<svg width="171" height="74" viewBox="0 0 171 74" fill="none" xmlns="http://www.w3.org/2000/svg">
<mask id="path-1-inside-1_1397_1728" fill="white">
<path d="M0 0H170.364V73.1864H0V0Z"/>
</mask>
<path d="M0 0H170.364V73.1864H0V0Z" fill="#131313" fill-opacity="0.23"/>
<path d="M170.364 73.1864V71.7203H0V73.1864V74.6525H170.364V73.1864Z" fill="#AAAAAA" mask="url(#path-1-inside-1_1397_1728)"/>
<path d="M31.6258 10.1006L22.7266 18.9998L31.6258 27.8991" stroke="#AAAAAA" stroke-width="2.19915" stroke-miterlimit="10" stroke-linecap="round" stroke-linejoin="round"/>
<path d="M47.6491 18.9998H22.9746" stroke="#AAAAAA" stroke-width="2.19915" stroke-miterlimit="10" stroke-linecap="round" stroke-linejoin="round"/>
<path d="M76.5308 29V8.47458H84.9462C86.3732 8.47458 87.5657 8.69938 88.5235 9.14898C89.5009 9.59859 90.2437 10.2241 90.752 11.0256C91.2602 11.8075 91.5144 12.7165 91.5144 13.7525C91.5144 14.7886 91.2896 15.6585 90.84 16.3622C90.3904 17.0659 89.7941 17.6133 89.0513 18.0042C88.328 18.3756 87.5266 18.5907 86.6469 18.6493L87.1161 18.3268C88.0544 18.3659 88.8852 18.62 89.6084 19.0892C90.3513 19.5388 90.9279 20.1447 91.3384 20.9071C91.7685 21.6695 91.9835 22.5003 91.9835 23.3995C91.9835 24.4942 91.7196 25.4618 91.1918 26.3024C90.664 27.1429 89.8919 27.8076 88.8754 28.2963C87.8784 28.7654 86.6567 29 85.2101 29H76.5308ZM80.4893 25.7746H84.5944C85.6695 25.7746 86.5003 25.5302 87.0867 25.0415C87.6732 24.5528 87.9664 23.8491 87.9664 22.9303C87.9664 22.0116 87.6634 21.2981 87.0574 20.7898C86.4514 20.262 85.6109 19.9981 84.5357 19.9981H80.4893V25.7746ZM80.4893 17.0366H84.3011C85.3372 17.0366 86.1191 16.802 86.6469 16.3329C87.1943 15.8637 87.4679 15.1991 87.4679 14.339C87.4679 13.4984 87.1943 12.8436 86.6469 12.3744C86.1191 11.8857 85.3274 11.6414 84.2718 11.6414H80.4893V17.0366ZM102.569 29.3519C101.377 29.3519 100.38 29.1564 99.5786 28.7654C98.7967 28.3745 98.2103 27.8467 97.8193 27.182C97.4479 26.5174 97.2622 25.7844 97.2622 24.9829C97.2622 24.0837 97.4967 23.3018 97.9659 22.6371C98.4351 21.9529 99.129 21.4154 100.048 21.0244C100.986 20.6334 102.169 20.438 103.596 20.438H107.261C107.261 19.7342 107.153 19.1478 106.938 18.6786C106.743 18.2095 106.43 17.8674 106 17.6524C105.59 17.4178 105.062 17.3005 104.417 17.3005C103.674 17.3005 103.029 17.4667 102.481 17.799C101.934 18.1313 101.602 18.6493 101.485 19.3531H97.6434C97.7411 18.2779 98.093 17.3494 98.699 16.5675C99.3049 15.7855 100.097 15.1795 101.074 14.7495C102.071 14.3194 103.195 14.1044 104.446 14.1044C105.834 14.1044 107.036 14.339 108.053 14.8081C109.069 15.2577 109.851 15.9321 110.398 16.8314C110.946 17.711 111.219 18.7862 111.219 20.0568V29H107.906L107.466 26.7422H107.437C107.202 27.1527 106.919 27.5144 106.587 27.8271C106.274 28.1399 105.912 28.4136 105.502 28.6481C105.111 28.8827 104.671 29.0586 104.182 29.1759C103.693 29.2932 103.156 29.3519 102.569 29.3519ZM103.654 26.3024C104.182 26.3024 104.642 26.2144 105.033 26.0385C105.443 25.843 105.795 25.5889 106.088 25.2761C106.381 24.9633 106.606 24.6017 106.763 24.1912C106.938 23.7611 107.056 23.3213 107.114 22.8717H104.065C103.459 22.8717 102.96 22.9499 102.569 23.1063C102.178 23.2431 101.895 23.4484 101.719 23.722C101.543 23.9762 101.455 24.2792 101.455 24.631C101.455 24.9829 101.543 25.2859 101.719 25.54C101.895 25.7941 102.149 25.9896 102.481 26.1264C102.814 26.2437 103.205 26.3024 103.654 26.3024ZM124.483 29.3519C122.978 29.3519 121.648 29.0293 120.495 28.3842C119.342 27.7196 118.443 26.8204 117.797 25.6866C117.152 24.5333 116.83 23.2138 116.83 21.7281C116.83 20.2425 117.152 18.9328 117.797 17.799C118.462 16.6456 119.371 15.7464 120.524 15.1014C121.678 14.4367 122.997 14.1044 124.483 14.1044C126.359 14.1044 127.943 14.5931 129.233 15.5705C130.523 16.5479 131.334 17.8967 131.667 19.6169H127.503C127.327 18.9328 126.965 18.405 126.418 18.0336C125.871 17.6426 125.216 17.4471 124.454 17.4471C123.769 17.4471 123.154 17.6231 122.606 17.9749C122.078 18.3072 121.658 18.7959 121.345 19.441C121.033 20.0666 120.876 20.8289 120.876 21.7281C120.876 22.3928 120.964 22.989 121.14 23.5168C121.316 24.025 121.56 24.4649 121.873 24.8363C122.206 25.2077 122.587 25.4911 123.017 25.6866C123.466 25.8821 123.945 25.9798 124.454 25.9798C124.962 25.9798 125.421 25.9016 125.832 25.7453C126.242 25.5693 126.594 25.325 126.887 25.0122C127.18 24.6799 127.386 24.2889 127.503 23.8393H131.667C131.334 25.5205 130.523 26.8595 129.233 27.8564C127.943 28.8534 126.359 29.3519 124.483 29.3519ZM147.262 29L140.899 20.9951L146.529 14.4563H151.191L143.949 22.6371L143.919 19.4997L152.188 29H147.262ZM137.527 29V8.09339H141.486V29H137.527Z" fill="#AAAAAA"/>
</svg>
