<svg width="345" height="65" viewBox="0 0 345 65" fill="none" xmlns="http://www.w3.org/2000/svg">
<rect x="0.5" y="1.40234" width="344" height="63" rx="7.5" stroke="url(#paint0_linear_534_269)"/>
<path d="M34.36 39.9023V25.9023H36.36V39.9023H34.36ZM25.46 39.9023V25.9023H27.46V39.9023H25.46ZM27.12 33.5823V31.9423H34.8V33.5823H27.12ZM42.5281 40.1423C41.7015 40.1423 41.0148 40.0023 40.4681 39.7223C39.9215 39.4423 39.5148 39.069 39.2481 38.6023C38.9815 38.1223 38.8481 37.609 38.8481 37.0623C38.8481 36.3957 39.0215 35.829 39.3681 35.3623C39.7148 34.8823 40.2081 34.5157 40.8481 34.2623C41.4881 34.009 42.2548 33.8823 43.1481 33.8823H45.7681C45.7681 33.2957 45.6815 32.809 45.5081 32.4223C45.3348 32.0357 45.0748 31.749 44.7281 31.5623C44.3948 31.3623 43.9681 31.2623 43.4481 31.2623C42.8481 31.2623 42.3348 31.409 41.9081 31.7023C41.4815 31.9823 41.2148 32.4023 41.1081 32.9623H39.1081C39.1881 32.2557 39.4281 31.6557 39.8281 31.1623C40.2415 30.6557 40.7681 30.269 41.4081 30.0023C42.0481 29.7223 42.7281 29.5823 43.4481 29.5823C44.3948 29.5823 45.1881 29.749 45.8281 30.0823C46.4681 30.4157 46.9481 30.889 47.2681 31.5023C47.6015 32.1023 47.7681 32.8223 47.7681 33.6623V39.9023H46.0281L45.8681 38.2023C45.7215 38.469 45.5481 38.7223 45.3481 38.9623C45.1481 39.2023 44.9081 39.409 44.6281 39.5823C44.3615 39.7557 44.0481 39.889 43.6881 39.9823C43.3415 40.089 42.9548 40.1423 42.5281 40.1423ZM42.9081 38.5223C43.3348 38.5223 43.7215 38.4357 44.0681 38.2623C44.4148 38.089 44.7081 37.8557 44.9481 37.5623C45.2015 37.2557 45.3881 36.9157 45.5081 36.5423C45.6415 36.1557 45.7148 35.7623 45.7281 35.3623V35.3023H43.3481C42.7748 35.3023 42.3081 35.3757 41.9481 35.5223C41.6015 35.6557 41.3481 35.8423 41.1881 36.0823C41.0281 36.3223 40.9481 36.6023 40.9481 36.9223C40.9481 37.2557 41.0215 37.5423 41.1681 37.7823C41.3281 38.009 41.5548 38.189 41.8481 38.3223C42.1415 38.4557 42.4948 38.5223 42.9081 38.5223ZM50.3209 44.3023V29.8223H52.1209L52.3209 31.3823C52.5343 31.0757 52.8009 30.789 53.1209 30.5223C53.4409 30.2423 53.8209 30.0157 54.2609 29.8423C54.7143 29.669 55.2409 29.5823 55.8409 29.5823C56.8009 29.5823 57.6409 29.8157 58.3609 30.2823C59.0943 30.749 59.6609 31.3823 60.0609 32.1823C60.4743 32.969 60.6809 33.869 60.6809 34.8823C60.6809 35.8957 60.4743 36.8023 60.0609 37.6023C59.6476 38.389 59.0743 39.009 58.3409 39.4623C57.6209 39.9157 56.7809 40.1423 55.8209 40.1423C55.0343 40.1423 54.3409 39.989 53.7409 39.6823C53.1409 39.3623 52.6676 38.9223 52.3209 38.3623V44.3023H50.3209ZM55.5009 38.4023C56.1143 38.4023 56.6543 38.2557 57.1209 37.9623C57.6009 37.669 57.9743 37.2557 58.2409 36.7223C58.5209 36.189 58.6609 35.569 58.6609 34.8623C58.6609 34.1557 58.5209 33.5423 58.2409 33.0223C57.9743 32.489 57.6009 32.0757 57.1209 31.7823C56.6543 31.4757 56.1143 31.3223 55.5009 31.3223C54.8743 31.3223 54.3209 31.4757 53.8409 31.7823C53.3743 32.0757 53.0076 32.489 52.7409 33.0223C52.4743 33.5423 52.3409 34.1557 52.3409 34.8623C52.3409 35.569 52.4743 36.189 52.7409 36.7223C53.0076 37.2557 53.3743 37.669 53.8409 37.9623C54.3209 38.2557 54.8743 38.4023 55.5009 38.4023ZM63.0163 44.3023V29.8223H64.8163L65.0163 31.3823C65.2296 31.0757 65.4963 30.789 65.8163 30.5223C66.1363 30.2423 66.5163 30.0157 66.9563 29.8423C67.4096 29.669 67.9363 29.5823 68.5363 29.5823C69.4963 29.5823 70.3363 29.8157 71.0563 30.2823C71.7896 30.749 72.3563 31.3823 72.7563 32.1823C73.1696 32.969 73.3763 33.869 73.3763 34.8823C73.3763 35.8957 73.1696 36.8023 72.7563 37.6023C72.3429 38.389 71.7696 39.009 71.0363 39.4623C70.3163 39.9157 69.4763 40.1423 68.5163 40.1423C67.7296 40.1423 67.0363 39.989 66.4363 39.6823C65.8363 39.3623 65.3629 38.9223 65.0163 38.3623V44.3023H63.0163ZM68.1963 38.4023C68.8096 38.4023 69.3496 38.2557 69.8163 37.9623C70.2963 37.669 70.6696 37.2557 70.9363 36.7223C71.2163 36.189 71.3563 35.569 71.3563 34.8623C71.3563 34.1557 71.2163 33.5423 70.9363 33.0223C70.6696 32.489 70.2963 32.0757 69.8163 31.7823C69.3496 31.4757 68.8096 31.3223 68.1963 31.3223C67.5696 31.3223 67.0163 31.4757 66.5363 31.7823C66.0696 32.0757 65.7029 32.489 65.4363 33.0223C65.1696 33.5423 65.0363 34.1557 65.0363 34.8623C65.0363 35.569 65.1696 36.189 65.4363 36.7223C65.7029 37.2557 66.0696 37.669 66.5363 37.9623C67.0163 38.2557 67.5696 38.4023 68.1963 38.4023ZM76.0317 44.3023L78.4917 38.7823H77.9117L73.9317 29.8223H76.0917L79.2517 37.1423L82.4317 29.8223H84.5317L78.1317 44.3023H76.0317ZM95.5747 39.9023C94.9347 39.9023 94.3814 39.8023 93.9147 39.6023C93.448 39.4023 93.088 39.069 92.8347 38.6023C92.5814 38.1357 92.4547 37.5023 92.4547 36.7023V31.5223H90.7147V29.8223H92.4547L92.6947 27.3023H94.4547V29.8223H97.3147V31.5223H94.4547V36.7223C94.4547 37.2957 94.5747 37.689 94.8147 37.9023C95.0547 38.1023 95.468 38.2023 96.0547 38.2023H97.2147V39.9023H95.5747ZM103.847 40.1423C102.9 40.1423 102.047 39.9223 101.287 39.4823C100.54 39.0423 99.9467 38.429 99.5067 37.6423C99.0801 36.8423 98.8667 35.9223 98.8667 34.8823C98.8667 33.8157 99.0867 32.889 99.5267 32.1023C99.9667 31.3023 100.567 30.6823 101.327 30.2423C102.087 29.8023 102.94 29.5823 103.887 29.5823C104.847 29.5823 105.7 29.8023 106.447 30.2423C107.193 30.6823 107.78 31.2957 108.207 32.0823C108.647 32.869 108.867 33.7957 108.867 34.8623C108.867 35.929 108.647 36.8557 108.207 37.6423C107.78 38.429 107.187 39.0423 106.427 39.4823C105.667 39.9223 104.807 40.1423 103.847 40.1423ZM103.847 38.4223C104.393 38.4223 104.887 38.289 105.327 38.0223C105.78 37.7557 106.14 37.3623 106.407 36.8423C106.687 36.309 106.827 35.649 106.827 34.8623C106.827 34.0757 106.693 33.4223 106.427 32.9023C106.16 32.369 105.8 31.969 105.347 31.7023C104.907 31.4357 104.42 31.3023 103.887 31.3023C103.353 31.3023 102.86 31.4357 102.407 31.7023C101.953 31.969 101.587 32.369 101.307 32.9023C101.04 33.4223 100.907 34.0757 100.907 34.8623C100.907 35.649 101.04 36.309 101.307 36.8423C101.587 37.3623 101.947 37.7557 102.387 38.0223C102.84 38.289 103.327 38.4223 103.847 38.4223ZM120.997 40.1423C120.023 40.1423 119.157 39.9223 118.397 39.4823C117.637 39.029 117.037 38.409 116.597 37.6223C116.17 36.8357 115.957 35.9223 115.957 34.8823C115.957 33.829 116.17 32.909 116.597 32.1223C117.037 31.3223 117.637 30.7023 118.397 30.2623C119.157 29.809 120.023 29.5823 120.997 29.5823C122.223 29.5823 123.25 29.9023 124.077 30.5423C124.903 31.1823 125.43 32.049 125.657 33.1423H123.577C123.443 32.5557 123.137 32.1023 122.657 31.7823C122.19 31.4623 121.63 31.3023 120.977 31.3023C120.443 31.3023 119.95 31.4423 119.497 31.7223C119.043 31.989 118.677 32.389 118.397 32.9223C118.13 33.4423 117.997 34.089 117.997 34.8623C117.997 35.4357 118.077 35.949 118.237 36.4023C118.397 36.8423 118.61 37.2157 118.877 37.5223C119.157 37.829 119.477 38.0623 119.837 38.2223C120.197 38.369 120.577 38.4423 120.977 38.4423C121.417 38.4423 121.81 38.3757 122.157 38.2423C122.517 38.0957 122.817 37.8823 123.057 37.6023C123.31 37.3223 123.483 36.989 123.577 36.6023H125.657C125.43 37.669 124.903 38.529 124.077 39.1823C123.25 39.8223 122.223 40.1423 120.997 40.1423ZM127.997 39.9023V25.5023H129.997V31.4623C130.33 30.8757 130.79 30.4157 131.377 30.0823C131.977 29.749 132.637 29.5823 133.357 29.5823C134.157 29.5823 134.843 29.749 135.417 30.0823C135.99 30.4023 136.43 30.889 136.737 31.5423C137.043 32.1823 137.197 32.989 137.197 33.9623V39.9023H135.217V34.1623C135.217 33.229 135.017 32.5223 134.617 32.0423C134.217 31.549 133.623 31.3023 132.837 31.3023C132.303 31.3023 131.823 31.429 131.397 31.6823C130.97 31.9357 130.63 32.309 130.377 32.8023C130.123 33.2823 129.997 33.869 129.997 34.5623V39.9023H127.997ZM143.095 40.1423C142.268 40.1423 141.581 40.0023 141.035 39.7223C140.488 39.4423 140.081 39.069 139.815 38.6023C139.548 38.1223 139.415 37.609 139.415 37.0623C139.415 36.3957 139.588 35.829 139.935 35.3623C140.281 34.8823 140.775 34.5157 141.415 34.2623C142.055 34.009 142.821 33.8823 143.715 33.8823H146.335C146.335 33.2957 146.248 32.809 146.075 32.4223C145.901 32.0357 145.641 31.749 145.295 31.5623C144.961 31.3623 144.535 31.2623 144.015 31.2623C143.415 31.2623 142.901 31.409 142.475 31.7023C142.048 31.9823 141.781 32.4023 141.675 32.9623H139.675C139.755 32.2557 139.995 31.6557 140.395 31.1623C140.808 30.6557 141.335 30.269 141.975 30.0023C142.615 29.7223 143.295 29.5823 144.015 29.5823C144.961 29.5823 145.755 29.749 146.395 30.0823C147.035 30.4157 147.515 30.889 147.835 31.5023C148.168 32.1023 148.335 32.8223 148.335 33.6623V39.9023H146.595L146.435 38.2023C146.288 38.469 146.115 38.7223 145.915 38.9623C145.715 39.2023 145.475 39.409 145.195 39.5823C144.928 39.7557 144.615 39.889 144.255 39.9823C143.908 40.089 143.521 40.1423 143.095 40.1423ZM143.475 38.5223C143.901 38.5223 144.288 38.4357 144.635 38.2623C144.981 38.089 145.275 37.8557 145.515 37.5623C145.768 37.2557 145.955 36.9157 146.075 36.5423C146.208 36.1557 146.281 35.7623 146.295 35.3623V35.3023H143.915C143.341 35.3023 142.875 35.3757 142.515 35.5223C142.168 35.6557 141.915 35.8423 141.755 36.0823C141.595 36.3223 141.515 36.6023 141.515 36.9223C141.515 37.2557 141.588 37.5423 141.735 37.7823C141.895 38.009 142.121 38.189 142.415 38.3223C142.708 38.4557 143.061 38.5223 143.475 38.5223ZM154.833 39.9023C154.193 39.9023 153.639 39.8023 153.173 39.6023C152.706 39.4023 152.346 39.069 152.093 38.6023C151.839 38.1357 151.713 37.5023 151.713 36.7023V31.5223H149.972V29.8223H151.713L151.952 27.3023H153.713V29.8223H156.573V31.5223H153.713V36.7223C153.713 37.2957 153.833 37.689 154.073 37.9023C154.313 38.1023 154.726 38.2023 155.313 38.2023H156.473V39.9023H154.833ZM168.495 40.1423C167.548 40.1423 166.695 39.9223 165.935 39.4823C165.188 39.0423 164.595 38.429 164.155 37.6423C163.728 36.8423 163.515 35.9223 163.515 34.8823C163.515 33.8157 163.735 32.889 164.175 32.1023C164.615 31.3023 165.215 30.6823 165.975 30.2423C166.735 29.8023 167.588 29.5823 168.535 29.5823C169.495 29.5823 170.348 29.8023 171.095 30.2423C171.842 30.6823 172.428 31.2957 172.855 32.0823C173.295 32.869 173.515 33.7957 173.515 34.8623C173.515 35.929 173.295 36.8557 172.855 37.6423C172.428 38.429 171.835 39.0423 171.075 39.4823C170.315 39.9223 169.455 40.1423 168.495 40.1423ZM168.495 38.4223C169.042 38.4223 169.535 38.289 169.975 38.0223C170.428 37.7557 170.788 37.3623 171.055 36.8423C171.335 36.309 171.475 35.649 171.475 34.8623C171.475 34.0757 171.342 33.4223 171.075 32.9023C170.808 32.369 170.448 31.969 169.995 31.7023C169.555 31.4357 169.068 31.3023 168.535 31.3023C168.002 31.3023 167.508 31.4357 167.055 31.7023C166.602 31.969 166.235 32.369 165.955 32.9023C165.688 33.4223 165.555 34.0757 165.555 34.8623C165.555 35.649 165.688 36.309 165.955 36.8423C166.235 37.3623 166.595 37.7557 167.035 38.0223C167.488 38.289 167.975 38.4223 168.495 38.4223ZM175.868 39.9023V29.8223H177.668L177.788 31.5423C178.108 30.9423 178.561 30.469 179.148 30.1223C179.734 29.7623 180.408 29.5823 181.168 29.5823C181.968 29.5823 182.654 29.7423 183.228 30.0623C183.801 30.3823 184.248 30.869 184.568 31.5223C184.888 32.1623 185.048 32.969 185.048 33.9423V39.9023H183.048V34.1423C183.048 33.209 182.841 32.5023 182.428 32.0223C182.014 31.5423 181.414 31.3023 180.628 31.3023C180.108 31.3023 179.641 31.429 179.228 31.6823C178.814 31.9223 178.481 32.2823 178.228 32.7623C177.988 33.2423 177.868 33.829 177.868 34.5223V39.9023H175.868ZM195.683 39.9023L191.883 25.9023H194.023L196.863 37.5623L200.123 25.9023H202.343L205.503 37.6023L208.383 25.9023H210.523L206.663 39.9023H204.323L201.183 28.7623L197.963 39.9023H195.683ZM212.411 39.9023V25.5023H214.411V31.4623C214.744 30.8757 215.204 30.4157 215.791 30.0823C216.391 29.749 217.051 29.5823 217.771 29.5823C218.571 29.5823 219.257 29.749 219.831 30.0823C220.404 30.4023 220.844 30.889 221.151 31.5423C221.457 32.1823 221.611 32.989 221.611 33.9623V39.9023H219.631V34.1623C219.631 33.229 219.431 32.5223 219.031 32.0423C218.631 31.549 218.037 31.3023 217.251 31.3023C216.717 31.3023 216.237 31.429 215.811 31.6823C215.384 31.9357 215.044 32.309 214.791 32.8023C214.537 33.2823 214.411 33.869 214.411 34.5623V39.9023H212.411ZM227.509 40.1423C226.682 40.1423 225.995 40.0023 225.449 39.7223C224.902 39.4423 224.495 39.069 224.229 38.6023C223.962 38.1223 223.829 37.609 223.829 37.0623C223.829 36.3957 224.002 35.829 224.349 35.3623C224.695 34.8823 225.189 34.5157 225.829 34.2623C226.469 34.009 227.235 33.8823 228.129 33.8823H230.749C230.749 33.2957 230.662 32.809 230.489 32.4223C230.315 32.0357 230.055 31.749 229.709 31.5623C229.375 31.3623 228.949 31.2623 228.429 31.2623C227.829 31.2623 227.315 31.409 226.889 31.7023C226.462 31.9823 226.195 32.4023 226.089 32.9623H224.089C224.169 32.2557 224.409 31.6557 224.809 31.1623C225.222 30.6557 225.749 30.269 226.389 30.0023C227.029 29.7223 227.709 29.5823 228.429 29.5823C229.375 29.5823 230.169 29.749 230.809 30.0823C231.449 30.4157 231.929 30.889 232.249 31.5023C232.582 32.1023 232.749 32.8223 232.749 33.6623V39.9023H231.009L230.849 38.2023C230.702 38.469 230.529 38.7223 230.329 38.9623C230.129 39.2023 229.889 39.409 229.609 39.5823C229.342 39.7557 229.029 39.889 228.669 39.9823C228.322 40.089 227.935 40.1423 227.509 40.1423ZM227.889 38.5223C228.315 38.5223 228.702 38.4357 229.049 38.2623C229.395 38.089 229.689 37.8557 229.929 37.5623C230.182 37.2557 230.369 36.9157 230.489 36.5423C230.622 36.1557 230.695 35.7623 230.709 35.3623V35.3023H228.329C227.755 35.3023 227.289 35.3757 226.929 35.5223C226.582 35.6557 226.329 35.8423 226.169 36.0823C226.009 36.3223 225.929 36.6023 225.929 36.9223C225.929 37.2557 226.002 37.5423 226.149 37.7823C226.309 38.009 226.535 38.189 226.829 38.3223C227.122 38.4557 227.475 38.5223 227.889 38.5223ZM239.247 39.9023C238.607 39.9023 238.053 39.8023 237.587 39.6023C237.12 39.4023 236.76 39.069 236.507 38.6023C236.253 38.1357 236.127 37.5023 236.127 36.7023V31.5223H234.387V29.8223H236.127L236.367 27.3023H238.127V29.8223H240.987V31.5223H238.127V36.7223C238.127 37.2957 238.247 37.689 238.487 37.9023C238.727 38.1023 239.14 38.2023 239.727 38.2023H240.887V39.9023H239.247ZM247.092 40.1423C246.239 40.1423 245.492 40.0023 244.852 39.7223C244.212 39.4423 243.705 39.049 243.332 38.5423C242.959 38.0357 242.732 37.4423 242.652 36.7623H244.692C244.759 37.0823 244.885 37.3757 245.072 37.6423C245.272 37.909 245.539 38.1223 245.872 38.2823C246.219 38.4423 246.625 38.5223 247.092 38.5223C247.532 38.5223 247.892 38.4623 248.172 38.3423C248.465 38.209 248.679 38.0357 248.812 37.8223C248.945 37.5957 249.012 37.3557 249.012 37.1023C249.012 36.729 248.919 36.449 248.732 36.2623C248.559 36.0623 248.292 35.909 247.932 35.8023C247.585 35.6823 247.165 35.5757 246.672 35.4823C246.205 35.4023 245.752 35.2957 245.312 35.1623C244.885 35.0157 244.499 34.8357 244.152 34.6223C243.819 34.409 243.552 34.1423 243.352 33.8223C243.152 33.489 243.052 33.0823 243.052 32.6023C243.052 32.029 243.205 31.5157 243.512 31.0623C243.819 30.5957 244.252 30.2357 244.812 29.9823C245.385 29.7157 246.059 29.5823 246.832 29.5823C247.952 29.5823 248.852 29.849 249.532 30.3823C250.212 30.9157 250.612 31.669 250.732 32.6423H248.792C248.739 32.189 248.539 31.8423 248.192 31.6023C247.845 31.349 247.385 31.2223 246.812 31.2223C246.239 31.2223 245.799 31.3357 245.492 31.5623C245.185 31.789 245.032 32.089 245.032 32.4623C245.032 32.7023 245.119 32.9157 245.292 33.1023C245.465 33.289 245.719 33.449 246.052 33.5823C246.399 33.7023 246.819 33.8157 247.312 33.9223C248.019 34.0557 248.652 34.2223 249.212 34.4223C249.772 34.6223 250.219 34.9157 250.552 35.3023C250.885 35.689 251.052 36.2423 251.052 36.9623C251.065 37.589 250.905 38.1423 250.572 38.6223C250.252 39.1023 249.792 39.4757 249.192 39.7423C248.605 40.009 247.905 40.1423 247.092 40.1423ZM256.747 40.1423C255.92 40.1423 255.234 40.0023 254.687 39.7223C254.14 39.4423 253.734 39.069 253.467 38.6023C253.2 38.1223 253.067 37.609 253.067 37.0623C253.067 36.3957 253.24 35.829 253.587 35.3623C253.934 34.8823 254.427 34.5157 255.067 34.2623C255.707 34.009 256.474 33.8823 257.367 33.8823H259.987C259.987 33.2957 259.9 32.809 259.727 32.4223C259.554 32.0357 259.294 31.749 258.947 31.5623C258.614 31.3623 258.187 31.2623 257.667 31.2623C257.067 31.2623 256.554 31.409 256.127 31.7023C255.7 31.9823 255.434 32.4023 255.327 32.9623H253.327C253.407 32.2557 253.647 31.6557 254.047 31.1623C254.46 30.6557 254.987 30.269 255.627 30.0023C256.267 29.7223 256.947 29.5823 257.667 29.5823C258.614 29.5823 259.407 29.749 260.047 30.0823C260.687 30.4157 261.167 30.889 261.487 31.5023C261.82 32.1023 261.987 32.8223 261.987 33.6623V39.9023H260.247L260.087 38.2023C259.94 38.469 259.767 38.7223 259.567 38.9623C259.367 39.2023 259.127 39.409 258.847 39.5823C258.58 39.7557 258.267 39.889 257.907 39.9823C257.56 40.089 257.174 40.1423 256.747 40.1423ZM257.127 38.5223C257.554 38.5223 257.94 38.4357 258.287 38.2623C258.634 38.089 258.927 37.8557 259.167 37.5623C259.42 37.2557 259.607 36.9157 259.727 36.5423C259.86 36.1557 259.934 35.7623 259.947 35.3623V35.3023H257.567C256.994 35.3023 256.527 35.3757 256.167 35.5223C255.82 35.6557 255.567 35.8423 255.407 36.0823C255.247 36.3223 255.167 36.6023 255.167 36.9223C255.167 37.2557 255.24 37.5423 255.387 37.7823C255.547 38.009 255.774 38.189 256.067 38.3223C256.36 38.4557 256.714 38.5223 257.127 38.5223ZM264.54 44.3023V29.8223H266.34L266.54 31.3823C266.753 31.0757 267.02 30.789 267.34 30.5223C267.66 30.2423 268.04 30.0157 268.48 29.8423C268.933 29.669 269.46 29.5823 270.06 29.5823C271.02 29.5823 271.86 29.8157 272.58 30.2823C273.313 30.749 273.88 31.3823 274.28 32.1823C274.693 32.969 274.9 33.869 274.9 34.8823C274.9 35.8957 274.693 36.8023 274.28 37.6023C273.866 38.389 273.293 39.009 272.56 39.4623C271.84 39.9157 271 40.1423 270.04 40.1423C269.253 40.1423 268.56 39.989 267.96 39.6823C267.36 39.3623 266.886 38.9223 266.54 38.3623V44.3023H264.54ZM269.72 38.4023C270.333 38.4023 270.873 38.2557 271.34 37.9623C271.82 37.669 272.193 37.2557 272.46 36.7223C272.74 36.189 272.88 35.569 272.88 34.8623C272.88 34.1557 272.74 33.5423 272.46 33.0223C272.193 32.489 271.82 32.0757 271.34 31.7823C270.873 31.4757 270.333 31.3223 269.72 31.3223C269.093 31.3223 268.54 31.4757 268.06 31.7823C267.593 32.0757 267.226 32.489 266.96 33.0223C266.693 33.5423 266.56 34.1557 266.56 34.8623C266.56 35.569 266.693 36.189 266.96 36.7223C267.226 37.2557 267.593 37.669 268.06 37.9623C268.54 38.2557 269.093 38.4023 269.72 38.4023ZM277.235 44.3023V29.8223H279.035L279.235 31.3823C279.448 31.0757 279.715 30.789 280.035 30.5223C280.355 30.2423 280.735 30.0157 281.175 29.8423C281.628 29.669 282.155 29.5823 282.755 29.5823C283.715 29.5823 284.555 29.8157 285.275 30.2823C286.008 30.749 286.575 31.3823 286.975 32.1823C287.388 32.969 287.595 33.869 287.595 34.8823C287.595 35.8957 287.388 36.8023 286.975 37.6023C286.562 38.389 285.988 39.009 285.255 39.4623C284.535 39.9157 283.695 40.1423 282.735 40.1423C281.948 40.1423 281.255 39.989 280.655 39.6823C280.055 39.3623 279.582 38.9223 279.235 38.3623V44.3023H277.235ZM282.415 38.4023C283.028 38.4023 283.568 38.2557 284.035 37.9623C284.515 37.669 284.888 37.2557 285.155 36.7223C285.435 36.189 285.575 35.569 285.575 34.8623C285.575 34.1557 285.435 33.5423 285.155 33.0223C284.888 32.489 284.515 32.0757 284.035 31.7823C283.568 31.4757 283.028 31.3223 282.415 31.3223C281.788 31.3223 281.235 31.4757 280.755 31.7823C280.288 32.0757 279.922 32.489 279.655 33.0223C279.388 33.5423 279.255 34.1557 279.255 34.8623C279.255 35.569 279.388 36.189 279.655 36.7223C279.922 37.2557 280.288 37.669 280.755 37.9623C281.235 38.2557 281.788 38.4023 282.415 38.4023Z" fill="white"/>
<path d="M318.98 32.3128C318.64 26.5128 313.37 22.0428 307.3 23.0428C303.12 23.7328 299.77 27.1228 299.12 31.3028C298.74 33.7228 299.24 36.0128 300.33 37.9028L299.44 41.2128C299.24 41.9628 299.93 42.6428 300.67 42.4328L303.93 41.5328C305.41 42.4028 307.14 42.9028 308.99 42.9028C314.63 42.9028 319.31 37.9328 318.98 32.3128ZM313.88 36.6228C313.79 36.8028 313.68 36.9728 313.54 37.1328C313.29 37.4028 313.02 37.6028 312.72 37.7228C312.42 37.8528 312.09 37.9128 311.74 37.9128C311.23 37.9128 310.68 37.7928 310.11 37.5428C309.53 37.2928 308.96 36.9628 308.39 36.5528C307.81 36.1328 307.27 35.6628 306.75 35.1528C306.23 34.6328 305.77 34.0828 305.35 33.5128C304.94 32.9428 304.61 32.3728 304.37 31.8028C304.13 31.2328 304.01 30.6828 304.01 30.1628C304.01 29.8228 304.07 29.4928 304.19 29.1928C304.31 28.8828 304.5 28.6028 304.77 28.3528C305.09 28.0328 305.44 27.8828 305.81 27.8828C305.95 27.8828 306.09 27.9128 306.22 27.9728C306.35 28.0328 306.47 28.1228 306.56 28.2528L307.72 29.8928C307.81 30.0228 307.88 30.1328 307.92 30.2428C307.97 30.3528 307.99 30.4528 307.99 30.5528C307.99 30.6728 307.95 30.7928 307.88 30.9128C307.81 31.0328 307.72 31.1528 307.6 31.2728L307.22 31.6728C307.16 31.7328 307.14 31.7928 307.14 31.8728C307.14 31.9128 307.15 31.9528 307.16 31.9928C307.18 32.0328 307.19 32.0628 307.2 32.0928C307.29 32.2628 307.45 32.4728 307.67 32.7328C307.9 32.9928 308.14 33.2628 308.4 33.5228C308.67 33.7928 308.93 34.0328 309.2 34.2628C309.46 34.4828 309.68 34.6328 309.85 34.7228C309.88 34.7328 309.91 34.7528 309.94 34.7628C309.98 34.7828 310.02 34.7828 310.07 34.7828C310.16 34.7828 310.22 34.7528 310.28 34.6928L310.66 34.3128C310.79 34.1828 310.91 34.0928 311.02 34.0328C311.14 33.9628 311.25 33.9228 311.38 33.9228C311.48 33.9228 311.58 33.9428 311.69 33.9928C311.8 34.0428 311.92 34.1028 312.04 34.1928L313.7 35.3728C313.83 35.4628 313.92 35.5728 313.98 35.6928C314.03 35.8228 314.06 35.9428 314.06 36.0828C314 36.2528 313.96 36.4428 313.88 36.6228Z" fill="#AAAAAA"/>
<defs>
<linearGradient id="paint0_linear_534_269" x1="9.56543e-08" y1="20.9023" x2="360.5" y2="125.402" gradientUnits="userSpaceOnUse">
<stop stop-color="#24BC40"/>
<stop offset="1" stop-color="#FFDA07"/>
</linearGradient>
</defs>
</svg>
