<svg width="474" height="1142" viewBox="0 0 474 1142" fill="none" xmlns="http://www.w3.org/2000/svg">
<path d="M10.1201 20V6.10962H12.799V20H10.1201ZM1.3692 20V6.10962H4.04805V20H1.3692ZM3.67103 13.9874V11.8245H10.5765V13.9874H3.67103ZM22.5792 20.2381C21.6267 20.2381 20.7668 20.0198 19.9995 19.5833C19.2455 19.1335 18.6436 18.5184 18.1938 17.7379C17.7572 16.9441 17.5389 16.0379 17.5389 15.0193C17.5389 13.9742 17.7572 13.0614 18.1938 12.2809C18.6436 11.4872 19.2521 10.872 20.0194 10.4355C20.7866 9.98569 21.6465 9.7608 22.599 9.7608C23.5647 9.7608 24.4246 9.98569 25.1786 10.4355C25.9459 10.872 26.5478 11.4872 26.9844 12.2809C27.4342 13.0614 27.6591 13.9676 27.6591 14.9995C27.6591 16.0313 27.4342 16.9441 26.9844 17.7379C26.5478 18.5184 25.9459 19.1335 25.1786 19.5833C24.4114 20.0198 23.5449 20.2381 22.5792 20.2381ZM22.5792 17.9164C23.0289 17.9164 23.4258 17.8106 23.7698 17.5989C24.1269 17.3873 24.4048 17.0632 24.6032 16.6266C24.8149 16.1901 24.9207 15.6477 24.9207 14.9995C24.9207 14.3512 24.8149 13.8155 24.6032 13.3921C24.4048 12.9556 24.1269 12.6315 23.7698 12.4198C23.4258 12.1949 23.0356 12.0825 22.599 12.0825C22.1757 12.0825 21.7854 12.1949 21.4282 12.4198C21.0711 12.6315 20.7866 12.9556 20.575 13.3921C20.3765 13.8155 20.2773 14.3512 20.2773 14.9995C20.2773 15.6477 20.3765 16.1901 20.575 16.6266C20.7866 17.0632 21.0644 17.3873 21.4084 17.5989C21.7656 17.8106 22.1558 17.9164 22.5792 17.9164ZM32.3491 20V9.99892H34.7105L34.9287 11.3284C35.2462 10.8522 35.6629 10.4752 36.1789 10.1974C36.708 9.90632 37.3099 9.7608 37.9846 9.7608C38.4873 9.7608 38.9371 9.82695 39.334 9.95924C39.7308 10.0915 40.0814 10.2833 40.3857 10.5347C40.7032 10.786 40.9611 11.1035 41.1596 11.4872C41.53 10.9448 42.0128 10.5215 42.6081 10.2172C43.2034 9.91294 43.8517 9.7608 44.5528 9.7608C45.4259 9.7608 46.1535 9.93939 46.7356 10.2966C47.3176 10.6405 47.7542 11.1432 48.0452 11.8047C48.3495 12.4661 48.5016 13.2797 48.5016 14.2454V20H45.8426V14.4835C45.8426 13.6898 45.6839 13.0813 45.3664 12.6579C45.0621 12.2346 44.5859 12.023 43.9376 12.023C43.5143 12.023 43.1373 12.1288 42.8066 12.3404C42.4758 12.5521 42.2179 12.8564 42.0327 13.2532C41.8607 13.6501 41.7747 14.1264 41.7747 14.682V20H39.0958V14.4835C39.0958 13.6898 38.9371 13.0813 38.6196 12.6579C38.3021 12.2346 37.8126 12.023 37.1512 12.023C36.7411 12.023 36.3707 12.1288 36.04 12.3404C35.7225 12.5521 35.4711 12.8564 35.2859 13.2532C35.1139 13.6501 35.028 14.1264 35.028 14.682V20H32.3491ZM58.2131 20.2381C57.2077 20.2381 56.3148 20.0265 55.5343 19.6031C54.767 19.1666 54.1651 18.5647 53.7285 17.7974C53.3052 17.0169 53.0935 16.1173 53.0935 15.0987C53.0935 14.0536 53.3052 13.1342 53.7285 12.3404C54.1651 11.5335 54.767 10.9051 55.5343 10.4553C56.3015 9.99231 57.1945 9.7608 58.2131 9.7608C59.2053 9.7608 60.0718 9.97908 60.8126 10.4156C61.5534 10.8522 62.1289 11.4409 62.539 12.1817C62.9491 12.9225 63.1541 13.7626 63.1541 14.7018C63.1541 14.8341 63.1541 14.9862 63.1541 15.1582C63.1541 15.317 63.1409 15.4823 63.1144 15.6543H54.9985V14.0271H60.4554C60.4157 13.3789 60.1842 12.8696 59.7609 12.4992C59.3508 12.1288 58.8349 11.9436 58.2131 11.9436C57.7633 11.9436 57.3466 12.0494 56.963 12.2611C56.5793 12.4595 56.2751 12.7704 56.0502 13.1937C55.8385 13.617 55.7327 14.1528 55.7327 14.801V15.3765C55.7327 15.9189 55.8319 16.3951 56.0303 16.8052C56.242 17.2021 56.533 17.513 56.9034 17.7379C57.2739 17.9495 57.7038 18.0553 58.1933 18.0553C58.6827 18.0553 59.0862 17.9495 59.4037 17.7379C59.7344 17.5262 59.9792 17.255 60.1379 16.9243H62.8763C62.6911 17.546 62.3802 18.1083 61.9437 18.611C61.5071 19.1137 60.9713 19.5105 60.3364 19.8016C59.7014 20.0926 58.9936 20.2381 58.2131 20.2381ZM74.8402 20V6.10962H80.0392C81.1636 6.10962 82.0963 6.30144 82.8371 6.68508C83.5779 7.06871 84.1269 7.58464 84.4841 8.23286C84.8413 8.88108 85.0198 9.6219 85.0198 10.4553C85.0198 11.2226 84.8479 11.9303 84.5039 12.5786C84.16 13.2268 83.6176 13.7559 82.8768 14.166C82.1359 14.5629 81.1901 14.7613 80.0392 14.7613H77.519V20H74.8402ZM77.519 12.5984H79.8804C80.7403 12.5984 81.3554 12.4066 81.7258 12.023C82.1095 11.6261 82.3013 11.1035 82.3013 10.4553C82.3013 9.76742 82.1095 9.23826 81.7258 8.86785C81.3554 8.48421 80.7403 8.29239 79.8804 8.29239H77.519V12.5984ZM92.0653 20.2381C91.2319 20.2381 90.544 20.1058 90.0016 19.8413C89.4592 19.5634 89.0558 19.1996 88.7912 18.7499C88.5398 18.2869 88.4142 17.7775 88.4142 17.2219C88.4142 16.6134 88.5663 16.0776 88.8705 15.6146C89.188 15.1516 89.6577 14.7878 90.2794 14.5232C90.9144 14.2586 91.7082 14.1264 92.6606 14.1264H95.1411C95.1411 13.6369 95.0749 13.2334 94.9426 12.9159C94.8103 12.5852 94.6053 12.3404 94.3275 12.1817C94.0497 12.023 93.6793 11.9436 93.2163 11.9436C92.7136 11.9436 92.2836 12.056 91.9264 12.2809C91.5825 12.4926 91.3708 12.8233 91.2914 13.2731H88.692C88.7581 12.5587 88.9896 11.9436 89.3865 11.4276C89.7966 10.8985 90.3323 10.4884 90.9938 10.1974C91.6685 9.90632 92.4159 9.7608 93.2361 9.7608C94.1754 9.7608 94.9889 9.91955 95.6768 10.237C96.3647 10.5545 96.8939 11.0109 97.2643 11.6062C97.6347 12.2015 97.8199 12.9357 97.8199 13.8089V20H95.5578L95.2601 18.4721C95.1146 18.7366 94.9426 18.9748 94.7442 19.1864C94.5458 19.3981 94.3143 19.5833 94.0497 19.742C93.7851 19.9008 93.4874 20.0198 93.1567 20.0992C92.826 20.1918 92.4622 20.2381 92.0653 20.2381ZM92.7003 18.1744C93.0443 18.1744 93.3485 18.1149 93.6131 17.9958C93.8909 17.8635 94.1291 17.6916 94.3275 17.4799C94.5259 17.255 94.6781 17.0036 94.7839 16.7258C94.9029 16.4348 94.9823 16.1239 95.022 15.7932V15.7734H92.9781C92.568 15.7734 92.2307 15.8263 91.9661 15.9321C91.7148 16.0247 91.5296 16.1636 91.4105 16.3488C91.2914 16.534 91.2319 16.7457 91.2319 16.9838C91.2319 17.2484 91.2914 17.4667 91.4105 17.6386C91.5296 17.8106 91.7015 17.9429 91.9264 18.0355C92.1513 18.1281 92.4093 18.1744 92.7003 18.1744ZM107.006 24.6037C106.054 24.6037 105.22 24.4846 104.506 24.2465C103.792 24.0216 103.236 23.671 102.839 23.1948C102.455 22.7318 102.264 22.1563 102.264 21.4684C102.264 21.0054 102.383 20.5688 102.621 20.1587C102.859 19.7487 103.203 19.3782 103.653 19.0475C104.116 18.7036 104.691 18.4125 105.379 18.1744L106.391 19.4841C105.783 19.6825 105.339 19.9272 105.062 20.2183C104.797 20.5225 104.665 20.8467 104.665 21.1906C104.665 21.4949 104.764 21.7528 104.962 21.9645C105.174 22.1762 105.452 22.3283 105.796 22.4209C106.153 22.5267 106.55 22.5796 106.986 22.5796C107.41 22.5796 107.773 22.5267 108.078 22.4209C108.395 22.3151 108.64 22.1563 108.812 21.9447C108.997 21.7462 109.09 21.5081 109.09 21.2303C109.09 20.8731 108.964 20.5821 108.713 20.3572C108.461 20.1323 107.959 19.9934 107.205 19.9405C106.53 19.8876 105.928 19.8148 105.399 19.7222C104.883 19.6164 104.427 19.4973 104.03 19.365C103.633 19.2195 103.295 19.0607 103.018 18.8888C102.753 18.7168 102.535 18.5448 102.363 18.3728V17.9164L104.486 15.6345L106.411 16.2496L103.911 18.7102L104.665 17.4005C104.81 17.4799 104.949 17.5593 105.081 17.6386C105.227 17.7048 105.405 17.7709 105.617 17.8371C105.829 17.89 106.107 17.9429 106.451 17.9958C106.795 18.0487 107.231 18.095 107.76 18.1347C108.633 18.2141 109.348 18.3795 109.903 18.6308C110.472 18.8822 110.889 19.2195 111.153 19.6428C111.418 20.0529 111.55 20.5622 111.55 21.1708C111.55 21.7661 111.385 22.3217 111.054 22.8376C110.737 23.3668 110.241 23.7901 109.566 24.1076C108.891 24.4383 108.038 24.6037 107.006 24.6037ZM107.006 17.0433C106.173 17.0433 105.452 16.8846 104.843 16.5671C104.248 16.2364 103.785 15.7998 103.454 15.2574C103.137 14.7018 102.978 14.0867 102.978 13.412C102.978 12.7373 103.137 12.1288 103.454 11.5864C103.785 11.0308 104.248 10.5876 104.843 10.2569C105.452 9.92616 106.173 9.7608 107.006 9.7608C107.853 9.7608 108.574 9.92616 109.169 10.2569C109.778 10.5876 110.241 11.0308 110.558 11.5864C110.876 12.1288 111.034 12.7373 111.034 13.412C111.034 14.0867 110.876 14.7018 110.558 15.2574C110.241 15.7998 109.778 16.2364 109.169 16.5671C108.574 16.8846 107.853 17.0433 107.006 17.0433ZM107.006 14.9995C107.522 14.9995 107.939 14.8672 108.256 14.6026C108.574 14.338 108.733 13.9478 108.733 13.4318C108.733 12.9159 108.574 12.5257 108.256 12.2611C107.939 11.9833 107.522 11.8444 107.006 11.8444C106.503 11.8444 106.087 11.9833 105.756 12.2611C105.439 12.5257 105.28 12.9159 105.28 13.4318C105.28 13.9478 105.439 14.338 105.756 14.6026C106.087 14.8672 106.503 14.9995 107.006 14.9995ZM108.673 11.9039L108.236 9.99892H112.344V11.5864L108.673 11.9039ZM121.317 20.2381C120.311 20.2381 119.418 20.0265 118.638 19.6031C117.871 19.1666 117.269 18.5647 116.832 17.7974C116.409 17.0169 116.197 16.1173 116.197 15.0987C116.197 14.0536 116.409 13.1342 116.832 12.3404C117.269 11.5335 117.871 10.9051 118.638 10.4553C119.405 9.99231 120.298 9.7608 121.317 9.7608C122.309 9.7608 123.175 9.97908 123.916 10.4156C124.657 10.8522 125.232 11.4409 125.643 12.1817C126.053 12.9225 126.258 13.7626 126.258 14.7018C126.258 14.8341 126.258 14.9862 126.258 15.1582C126.258 15.317 126.244 15.4823 126.218 15.6543H118.102V14.0271H123.559C123.519 13.3789 123.288 12.8696 122.864 12.4992C122.454 12.1288 121.938 11.9436 121.317 11.9436C120.867 11.9436 120.45 12.0494 120.067 12.2611C119.683 12.4595 119.379 12.7704 119.154 13.1937C118.942 13.617 118.836 14.1528 118.836 14.801V15.3765C118.836 15.9189 118.935 16.3951 119.134 16.8052C119.346 17.2021 119.637 17.513 120.007 17.7379C120.377 17.9495 120.807 18.0553 121.297 18.0553C121.786 18.0553 122.19 17.9495 122.507 17.7379C122.838 17.5262 123.083 17.255 123.241 16.9243H125.98C125.795 17.546 125.484 18.1083 125.047 18.611C124.611 19.1137 124.075 19.5105 123.44 19.8016C122.805 20.0926 122.097 20.2381 121.317 20.2381Z" fill="white"/>
<g clip-path="url(#clip0_1368_1189)">
<rect x="270.577" y="42.2798" width="203.143" height="310.59" stroke="#AAAAAA" stroke-width="0.559622"/>
<path d="M398.195 175.342C398.195 158.021 384.154 143.979 366.833 143.979C349.512 143.979 335.471 158.021 335.471 175.342C335.471 192.662 349.512 206.704 366.833 206.704C384.154 206.704 398.195 192.662 398.195 175.342Z" stroke="#AAAAAA" stroke-width="2" stroke-linecap="round" stroke-linejoin="round"/>
<path d="M410.738 250.611C410.738 226.361 391.08 206.704 366.831 206.704C342.582 206.704 322.924 226.361 322.924 250.611" stroke="#AAAAAA" stroke-width="2" stroke-linecap="round" stroke-linejoin="round"/>
<circle cx="362.075" cy="313.417" r="1.67887" fill="#D9D9D9"/>
<circle cx="372.148" cy="313.417" r="1.67887" fill="#D9D9D9"/>
<circle cx="382.222" cy="313.417" r="1.67887" fill="#D9D9D9"/>
<path d="M45.6992 191.832V177.942H47.366V191.832H45.6992ZM51.8382 191.832L56.9578 177.942H58.7239L63.8237 191.832H62.0576L57.831 180.025L53.5845 191.832H51.8382ZM54.1798 188.26L54.656 186.911H60.9464L61.4226 188.26H54.1798ZM68.2897 191.832V177.942H70.2343L75.1356 187.645L80.0568 177.942H82.0213V191.832H80.3545V180.918L75.7706 189.887H74.5205L69.9565 180.958V191.832H68.2897ZM45.6992 217.832V203.942H50.5807C51.5596 203.942 52.3666 204.1 53.0016 204.418C53.6498 204.722 54.1326 205.145 54.4501 205.688C54.7676 206.217 54.9264 206.812 54.9264 207.474C54.9264 208.188 54.7676 208.783 54.4501 209.26C54.1459 209.736 53.7424 210.1 53.2397 210.351C52.7502 210.602 52.2277 210.755 51.6721 210.807L51.9499 210.609C52.5452 210.622 53.0942 210.781 53.5969 211.085C54.0996 211.39 54.4964 211.8 54.7875 212.316C55.0917 212.831 55.2439 213.407 55.2439 214.042C55.2439 214.743 55.0719 215.385 54.7279 215.967C54.384 216.536 53.8747 216.992 53.2 217.336C52.5386 217.667 51.7184 217.832 50.7394 217.832H45.6992ZM47.366 216.443H50.5608C51.5001 216.443 52.2277 216.225 52.7436 215.788C53.2728 215.338 53.5373 214.717 53.5373 213.923C53.5373 213.142 53.2661 212.521 52.7238 212.058C52.1946 211.581 51.4604 211.343 50.5211 211.343H47.366V216.443ZM47.366 210.014H50.4616C51.3612 210.014 52.0425 209.802 52.5055 209.379C52.9817 208.955 53.2198 208.38 53.2198 207.652C53.2198 206.951 52.9817 206.389 52.5055 205.966C52.0425 205.542 51.3413 205.331 50.4021 205.331H47.366V210.014ZM65.0374 218.07C64.0849 218.07 63.2184 217.878 62.4379 217.495C61.6706 217.111 61.0555 216.529 60.5924 215.748C60.1294 214.955 59.8979 213.943 59.8979 212.712V203.942H61.5648V212.732C61.5648 213.632 61.7103 214.366 62.0013 214.935C62.3056 215.504 62.7223 215.92 63.2515 216.185C63.7806 216.45 64.3891 216.582 65.0771 216.582C65.7782 216.582 66.3867 216.45 66.9026 216.185C67.4186 215.92 67.8221 215.504 68.1131 214.935C68.4041 214.366 68.5496 213.632 68.5496 212.732V203.942H70.2165V212.712C70.2165 213.943 69.985 214.955 69.522 215.748C69.059 216.529 68.4372 217.111 67.6567 217.495C66.8762 217.878 66.0031 218.07 65.0374 218.07ZM79.846 218.07C78.8273 218.07 77.941 217.885 77.187 217.515C76.4329 217.144 75.8508 216.628 75.4407 215.967C75.0306 215.305 74.8256 214.538 74.8256 213.665H76.5718C76.5718 214.207 76.6975 214.71 76.9488 215.173C77.2002 215.623 77.564 215.987 78.0402 216.264C78.5297 216.529 79.1316 216.661 79.846 216.661C80.4677 216.661 80.9969 216.562 81.4334 216.364C81.8832 216.152 82.2206 215.868 82.4455 215.51C82.6836 215.153 82.8026 214.75 82.8026 214.3C82.8026 213.758 82.6836 213.321 82.4455 212.99C82.2206 212.646 81.9097 212.368 81.5128 212.157C81.116 211.945 80.6529 211.76 80.1238 211.601C79.6079 211.429 79.0655 211.251 78.4966 211.065C77.3986 210.695 76.5917 210.232 76.0757 209.676C75.5598 209.121 75.3018 208.4 75.3018 207.513C75.3018 206.759 75.4738 206.098 75.8178 205.529C76.1749 204.96 76.6776 204.517 77.3259 204.2C77.9873 203.869 78.7678 203.704 79.6674 203.704C80.5537 203.704 81.321 203.869 81.9692 204.2C82.6307 204.53 83.1466 204.987 83.517 205.569C83.8874 206.138 84.0726 206.799 84.0726 207.553H82.3264C82.3264 207.17 82.2272 206.792 82.0287 206.422C81.8303 206.052 81.526 205.747 81.116 205.509C80.7191 205.258 80.2164 205.132 79.6079 205.132C79.1052 205.119 78.6554 205.205 78.2585 205.39C77.8749 205.562 77.5706 205.814 77.3457 206.144C77.134 206.475 77.0282 206.878 77.0282 207.355C77.0282 207.804 77.1208 208.168 77.306 208.446C77.5045 208.724 77.7823 208.962 78.1394 209.16C78.5099 209.346 78.9398 209.518 79.4293 209.676C79.9187 209.835 80.4611 210.014 81.0564 210.212C81.7311 210.437 82.3264 210.715 82.8423 211.046C83.3715 211.363 83.7816 211.773 84.0726 212.276C84.3769 212.779 84.529 213.42 84.529 214.201C84.529 214.862 84.3504 215.491 83.9932 216.086C83.6493 216.668 83.1334 217.144 82.4455 217.515C81.7576 217.885 80.8911 218.07 79.846 218.07ZM88.4199 217.832L93.5395 203.942H95.3055L100.405 217.832H98.6392L94.4126 206.025L90.1661 217.832H88.4199ZM90.7614 214.26L91.2376 212.911H97.528L98.0042 214.26H90.7614ZM106.851 217.832V212.554L102.327 203.942H104.212L107.942 211.462H107.446L111.157 203.942H113.022L108.518 212.554V217.832H106.851ZM122.532 218.07C121.196 218.07 120.019 217.773 119 217.177C117.995 216.569 117.207 215.729 116.639 214.657C116.083 213.572 115.805 212.316 115.805 210.887C115.805 209.471 116.083 208.228 116.639 207.156C117.207 206.072 117.995 205.225 119 204.616C120.019 204.008 121.196 203.704 122.532 203.704C123.895 203.704 125.079 204.008 126.084 204.616C127.089 205.225 127.87 206.072 128.426 207.156C128.994 208.228 129.279 209.471 129.279 210.887C129.279 212.316 128.994 213.572 128.426 214.657C127.87 215.729 127.089 216.569 126.084 217.177C125.079 217.773 123.895 218.07 122.532 218.07ZM122.532 216.602C123.537 216.602 124.417 216.377 125.171 215.927C125.939 215.464 126.527 214.809 126.937 213.963C127.361 213.103 127.572 212.077 127.572 210.887C127.572 209.696 127.361 208.678 126.937 207.831C126.527 206.971 125.939 206.316 125.171 205.866C124.417 205.417 123.537 205.192 122.532 205.192C121.54 205.192 120.66 205.417 119.893 205.866C119.139 206.316 118.55 206.971 118.127 207.831C117.717 208.678 117.512 209.696 117.512 210.887C117.512 212.077 117.717 213.103 118.127 213.963C118.55 214.809 119.139 215.464 119.893 215.927C120.66 216.377 121.54 216.602 122.532 216.602ZM146.166 218.07C145.148 218.07 144.261 217.885 143.507 217.515C142.753 217.144 142.171 216.628 141.761 215.967C141.351 215.305 141.146 214.538 141.146 213.665H142.892C142.892 214.207 143.018 214.71 143.269 215.173C143.521 215.623 143.884 215.987 144.361 216.264C144.85 216.529 145.452 216.661 146.166 216.661C146.788 216.661 147.317 216.562 147.754 216.364C148.204 216.152 148.541 215.868 148.766 215.51C149.004 215.153 149.123 214.75 149.123 214.3C149.123 213.758 149.004 213.321 148.766 212.99C148.541 212.646 148.23 212.368 147.833 212.157C147.436 211.945 146.973 211.76 146.444 211.601C145.928 211.429 145.386 211.251 144.817 211.065C143.719 210.695 142.912 210.232 142.396 209.676C141.88 209.121 141.622 208.4 141.622 207.513C141.622 206.759 141.794 206.098 142.138 205.529C142.495 204.96 142.998 204.517 143.646 204.2C144.308 203.869 145.088 203.704 145.988 203.704C146.874 203.704 147.641 203.869 148.29 204.2C148.951 204.53 149.467 204.987 149.837 205.569C150.208 206.138 150.393 206.799 150.393 207.553H148.647C148.647 207.17 148.548 206.792 148.349 206.422C148.151 206.052 147.846 205.747 147.436 205.509C147.039 205.258 146.537 205.132 145.928 205.132C145.426 205.119 144.976 205.205 144.579 205.39C144.195 205.562 143.891 205.814 143.666 206.144C143.454 206.475 143.349 206.878 143.349 207.355C143.349 207.804 143.441 208.168 143.626 208.446C143.825 208.724 144.103 208.962 144.46 209.16C144.83 209.346 145.26 209.518 145.75 209.676C146.239 209.835 146.782 210.014 147.377 210.212C148.051 210.437 148.647 210.715 149.163 211.046C149.692 211.363 150.102 211.773 150.393 212.276C150.697 212.779 150.849 213.42 150.849 214.201C150.849 214.862 150.671 215.491 150.314 216.086C149.97 216.668 149.454 217.144 148.766 217.515C148.078 217.885 147.211 218.07 146.166 218.07ZM154.74 217.832L159.86 203.942H161.626L166.726 217.832H164.96L160.733 206.025L156.486 217.832H154.74ZM157.082 214.26L157.558 212.911H163.848L164.325 214.26H157.082ZM171.192 217.832V203.942H172.859V216.503H179.327V217.832H171.192ZM183.144 217.832L188.264 203.942H190.03L195.13 217.832H193.364L189.137 206.025L184.89 217.832H183.144ZM185.486 214.26L185.962 212.911H192.252L192.729 214.26H185.486ZM199.596 217.832V203.942H201.262V210.232L207.057 203.942H209.16L204.001 209.478L209.24 217.832H207.216L202.81 210.768L201.262 212.415V217.832H199.596ZM218.942 218.07C217.606 218.07 216.429 217.773 215.41 217.177C214.405 216.569 213.618 215.729 213.049 214.657C212.493 213.572 212.215 212.316 212.215 210.887C212.215 209.471 212.493 208.228 213.049 207.156C213.618 206.072 214.405 205.225 215.41 204.616C216.429 204.008 217.606 203.704 218.942 203.704C220.305 203.704 221.489 204.008 222.494 204.616C223.5 205.225 224.28 206.072 224.836 207.156C225.405 208.228 225.689 209.471 225.689 210.887C225.689 212.316 225.405 213.572 224.836 214.657C224.28 215.729 223.5 216.569 222.494 217.177C221.489 217.773 220.305 218.07 218.942 218.07ZM218.942 216.602C219.948 216.602 220.827 216.377 221.582 215.927C222.349 215.464 222.937 214.809 223.348 213.963C223.771 213.103 223.983 212.077 223.983 210.887C223.983 209.696 223.771 208.678 223.348 207.831C222.937 206.971 222.349 206.316 221.582 205.866C220.827 205.417 219.948 205.192 218.942 205.192C217.95 205.192 217.07 205.417 216.303 205.866C215.549 206.316 214.96 206.971 214.537 207.831C214.127 208.678 213.922 209.696 213.922 210.887C213.922 212.077 214.127 213.103 214.537 213.963C214.96 214.809 215.549 215.464 216.303 215.927C217.07 216.377 217.95 216.602 218.942 216.602Z" fill="white"/>
<rect x="45.3301" y="234.51" width="179.079" height="12.3117" fill="#AAAAAA"/>
<rect x="45.3301" y="258.014" width="179.079" height="12.3117" fill="#AAAAAA"/>
<rect x="45.3301" y="315.655" width="179.079" height="7.27509" fill="#AAAAAA"/>
<rect x="44.2109" y="74.2085" width="81.1452" height="3.29652" fill="#AAAAAA"/>
</g>
<rect x="0.279811" y="42.2798" width="473.44" height="310.59" stroke="#AAAAAA" stroke-width="0.559622"/>
<path d="M10.1201 414.15V400.26H12.799V414.15H10.1201ZM1.3692 414.15V400.26H4.04805V414.15H1.3692ZM3.67103 408.137V405.974H10.5765V408.137H3.67103ZM22.5792 414.388C21.6267 414.388 20.7668 414.17 19.9995 413.733C19.2455 413.283 18.6436 412.668 18.1938 411.888C17.7572 411.094 17.5389 410.188 17.5389 409.169C17.5389 408.124 17.7572 407.211 18.1938 406.431C18.6436 405.637 19.2521 405.022 20.0194 404.585C20.7866 404.136 21.6465 403.911 22.599 403.911C23.5647 403.911 24.4246 404.136 25.1786 404.585C25.9459 405.022 26.5478 405.637 26.9844 406.431C27.4342 407.211 27.6591 408.118 27.6591 409.149C27.6591 410.181 27.4342 411.094 26.9844 411.888C26.5478 412.668 25.9459 413.283 25.1786 413.733C24.4114 414.17 23.5449 414.388 22.5792 414.388ZM22.5792 412.066C23.0289 412.066 23.4258 411.961 23.7698 411.749C24.1269 411.537 24.4048 411.213 24.6032 410.777C24.8149 410.34 24.9207 409.798 24.9207 409.149C24.9207 408.501 24.8149 407.965 24.6032 407.542C24.4048 407.105 24.1269 406.781 23.7698 406.57C23.4258 406.345 23.0356 406.232 22.599 406.232C22.1757 406.232 21.7854 406.345 21.4282 406.57C21.0711 406.781 20.7866 407.105 20.575 407.542C20.3765 407.965 20.2773 408.501 20.2773 409.149C20.2773 409.798 20.3765 410.34 20.575 410.777C20.7866 411.213 21.0644 411.537 21.4084 411.749C21.7656 411.961 22.1558 412.066 22.5792 412.066ZM32.3491 414.15V404.149H34.7105L34.9287 405.478C35.2462 405.002 35.6629 404.625 36.1789 404.347C36.708 404.056 37.3099 403.911 37.9846 403.911C38.4873 403.911 38.9371 403.977 39.334 404.109C39.7308 404.241 40.0814 404.433 40.3857 404.685C40.7032 404.936 40.9611 405.253 41.1596 405.637C41.53 405.095 42.0128 404.671 42.6081 404.367C43.2034 404.063 43.8517 403.911 44.5528 403.911C45.4259 403.911 46.1535 404.089 46.7356 404.446C47.3176 404.79 47.7542 405.293 48.0452 405.955C48.3495 406.616 48.5016 407.43 48.5016 408.395V414.15H45.8426V408.633C45.8426 407.84 45.6839 407.231 45.3664 406.808C45.0621 406.385 44.5859 406.173 43.9376 406.173C43.5143 406.173 43.1373 406.279 42.8066 406.49C42.4758 406.702 42.2179 407.006 42.0327 407.403C41.8607 407.8 41.7747 408.276 41.7747 408.832V414.15H39.0958V408.633C39.0958 407.84 38.9371 407.231 38.6196 406.808C38.3021 406.385 37.8126 406.173 37.1512 406.173C36.7411 406.173 36.3707 406.279 36.04 406.49C35.7225 406.702 35.4711 407.006 35.2859 407.403C35.1139 407.8 35.028 408.276 35.028 408.832V414.15H32.3491ZM58.2131 414.388C57.2077 414.388 56.3148 414.176 55.5343 413.753C54.767 413.316 54.1651 412.715 53.7285 411.947C53.3052 411.167 53.0935 410.267 53.0935 409.249C53.0935 408.203 53.3052 407.284 53.7285 406.49C54.1651 405.683 54.767 405.055 55.5343 404.605C56.3015 404.142 57.1945 403.911 58.2131 403.911C59.2053 403.911 60.0718 404.129 60.8126 404.566C61.5534 405.002 62.1289 405.591 62.539 406.332C62.9491 407.072 63.1541 407.912 63.1541 408.852C63.1541 408.984 63.1541 409.136 63.1541 409.308C63.1541 409.467 63.1409 409.632 63.1144 409.804H54.9985V408.177H60.4554C60.4157 407.529 60.1842 407.02 59.7609 406.649C59.3508 406.279 58.8349 406.093 58.2131 406.093C57.7633 406.093 57.3466 406.199 56.963 406.411C56.5793 406.609 56.2751 406.92 56.0502 407.344C55.8385 407.767 55.7327 408.303 55.7327 408.951V409.526C55.7327 410.069 55.8319 410.545 56.0303 410.955C56.242 411.352 56.533 411.663 56.9034 411.888C57.2739 412.099 57.7038 412.205 58.1933 412.205C58.6827 412.205 59.0862 412.099 59.4037 411.888C59.7344 411.676 59.9792 411.405 60.1379 411.074H62.8763C62.6911 411.696 62.3802 412.258 61.9437 412.761C61.5071 413.264 60.9713 413.66 60.3364 413.951C59.7014 414.243 58.9936 414.388 58.2131 414.388ZM74.8402 414.15V400.26H80.0392C81.1636 400.26 82.0963 400.451 82.8371 400.835C83.5779 401.219 84.1269 401.735 84.4841 402.383C84.8413 403.031 85.0198 403.772 85.0198 404.605C85.0198 405.373 84.8479 406.08 84.5039 406.728C84.16 407.377 83.6176 407.906 82.8768 408.316C82.1359 408.713 81.1901 408.911 80.0392 408.911H77.519V414.15H74.8402ZM77.519 406.748H79.8804C80.7403 406.748 81.3554 406.556 81.7258 406.173C82.1095 405.776 82.3013 405.253 82.3013 404.605C82.3013 403.917 82.1095 403.388 81.7258 403.018C81.3554 402.634 80.7403 402.442 79.8804 402.442H77.519V406.748ZM92.0653 414.388C91.2319 414.388 90.544 414.256 90.0016 413.991C89.4592 413.713 89.0558 413.35 88.7912 412.9C88.5398 412.437 88.4142 411.927 88.4142 411.372C88.4142 410.763 88.5663 410.228 88.8705 409.765C89.188 409.301 89.6577 408.938 90.2794 408.673C90.9144 408.409 91.7082 408.276 92.6606 408.276H95.1411C95.1411 407.787 95.0749 407.383 94.9426 407.066C94.8103 406.735 94.6053 406.49 94.3275 406.332C94.0497 406.173 93.6793 406.093 93.2163 406.093C92.7136 406.093 92.2836 406.206 91.9264 406.431C91.5825 406.642 91.3708 406.973 91.2914 407.423H88.692C88.7581 406.709 88.9896 406.093 89.3865 405.578C89.7966 405.048 90.3323 404.638 90.9938 404.347C91.6685 404.056 92.4159 403.911 93.2361 403.911C94.1754 403.911 94.9889 404.069 95.6768 404.387C96.3647 404.704 96.8939 405.161 97.2643 405.756C97.6347 406.351 97.8199 407.086 97.8199 407.959V414.15H95.5578L95.2601 412.622C95.1146 412.887 94.9426 413.125 94.7442 413.336C94.5458 413.548 94.3143 413.733 94.0497 413.892C93.7851 414.051 93.4874 414.17 93.1567 414.249C92.826 414.342 92.4622 414.388 92.0653 414.388ZM92.7003 412.324C93.0443 412.324 93.3485 412.265 93.6131 412.146C93.8909 412.013 94.1291 411.841 94.3275 411.63C94.5259 411.405 94.6781 411.154 94.7839 410.876C94.9029 410.585 94.9823 410.274 95.022 409.943V409.923H92.9781C92.568 409.923 92.2307 409.976 91.9661 410.082C91.7148 410.175 91.5296 410.314 91.4105 410.499C91.2914 410.684 91.2319 410.896 91.2319 411.134C91.2319 411.398 91.2914 411.617 91.4105 411.789C91.5296 411.961 91.7015 412.093 91.9264 412.185C92.1513 412.278 92.4093 412.324 92.7003 412.324ZM107.006 418.754C106.054 418.754 105.22 418.635 104.506 418.396C103.792 418.171 103.236 417.821 102.839 417.345C102.455 416.882 102.264 416.306 102.264 415.618C102.264 415.155 102.383 414.719 102.621 414.309C102.859 413.899 103.203 413.528 103.653 413.197C104.116 412.853 104.691 412.562 105.379 412.324L106.391 413.634C105.783 413.832 105.339 414.077 105.062 414.368C104.797 414.672 104.665 414.997 104.665 415.341C104.665 415.645 104.764 415.903 104.962 416.114C105.174 416.326 105.452 416.478 105.796 416.571C106.153 416.677 106.55 416.73 106.986 416.73C107.41 416.73 107.773 416.677 108.078 416.571C108.395 416.465 108.64 416.306 108.812 416.095C108.997 415.896 109.09 415.658 109.09 415.38C109.09 415.023 108.964 414.732 108.713 414.507C108.461 414.282 107.959 414.143 107.205 414.09C106.53 414.037 105.928 413.965 105.399 413.872C104.883 413.766 104.427 413.647 104.03 413.515C103.633 413.369 103.295 413.211 103.018 413.039C102.753 412.867 102.535 412.695 102.363 412.523V412.066L104.486 409.784L106.411 410.399L103.911 412.86L104.665 411.55C104.81 411.63 104.949 411.709 105.081 411.789C105.227 411.855 105.405 411.921 105.617 411.987C105.829 412.04 106.107 412.093 106.451 412.146C106.795 412.199 107.231 412.245 107.76 412.285C108.633 412.364 109.348 412.529 109.903 412.781C110.472 413.032 110.889 413.369 111.153 413.793C111.418 414.203 111.55 414.712 111.55 415.321C111.55 415.916 111.385 416.472 111.054 416.988C110.737 417.517 110.241 417.94 109.566 418.257C108.891 418.588 108.038 418.754 107.006 418.754ZM107.006 411.193C106.173 411.193 105.452 411.034 104.843 410.717C104.248 410.386 103.785 409.95 103.454 409.407C103.137 408.852 102.978 408.237 102.978 407.562C102.978 406.887 103.137 406.279 103.454 405.736C103.785 405.181 104.248 404.738 104.843 404.407C105.452 404.076 106.173 403.911 107.006 403.911C107.853 403.911 108.574 404.076 109.169 404.407C109.778 404.738 110.241 405.181 110.558 405.736C110.876 406.279 111.034 406.887 111.034 407.562C111.034 408.237 110.876 408.852 110.558 409.407C110.241 409.95 109.778 410.386 109.169 410.717C108.574 411.034 107.853 411.193 107.006 411.193ZM107.006 409.149C107.522 409.149 107.939 409.017 108.256 408.752C108.574 408.488 108.733 408.098 108.733 407.582C108.733 407.066 108.574 406.676 108.256 406.411C107.939 406.133 107.522 405.994 107.006 405.994C106.503 405.994 106.087 406.133 105.756 406.411C105.439 406.676 105.28 407.066 105.28 407.582C105.28 408.098 105.439 408.488 105.756 408.752C106.087 409.017 106.503 409.149 107.006 409.149ZM108.673 406.054L108.236 404.149H112.344V405.736L108.673 406.054ZM121.317 414.388C120.311 414.388 119.418 414.176 118.638 413.753C117.871 413.316 117.269 412.715 116.832 411.947C116.409 411.167 116.197 410.267 116.197 409.249C116.197 408.203 116.409 407.284 116.832 406.49C117.269 405.683 117.871 405.055 118.638 404.605C119.405 404.142 120.298 403.911 121.317 403.911C122.309 403.911 123.175 404.129 123.916 404.566C124.657 405.002 125.232 405.591 125.643 406.332C126.053 407.072 126.258 407.912 126.258 408.852C126.258 408.984 126.258 409.136 126.258 409.308C126.258 409.467 126.244 409.632 126.218 409.804H118.102V408.177H123.559C123.519 407.529 123.288 407.02 122.864 406.649C122.454 406.279 121.938 406.093 121.317 406.093C120.867 406.093 120.45 406.199 120.067 406.411C119.683 406.609 119.379 406.92 119.154 407.344C118.942 407.767 118.836 408.303 118.836 408.951V409.526C118.836 410.069 118.935 410.545 119.134 410.955C119.346 411.352 119.637 411.663 120.007 411.888C120.377 412.099 120.807 412.205 121.297 412.205C121.786 412.205 122.19 412.099 122.507 411.888C122.838 411.676 123.083 411.405 123.241 411.074H125.98C125.795 411.696 125.484 412.258 125.047 412.761C124.611 413.264 124.075 413.66 123.44 413.951C122.805 414.243 122.097 414.388 121.317 414.388Z" fill="white"/>
<g clip-path="url(#clip1_1368_1189)">
<rect x="270.577" y="436.43" width="203.143" height="310.59" stroke="#AAAAAA" stroke-width="0.559622"/>
<path d="M398.195 569.492C398.195 552.171 384.154 538.129 366.833 538.129C349.512 538.129 335.471 552.171 335.471 569.492C335.471 586.812 349.512 600.854 366.833 600.854C384.154 600.854 398.195 586.812 398.195 569.492Z" stroke="#AAAAAA" stroke-width="2" stroke-linecap="round" stroke-linejoin="round"/>
<path d="M410.738 644.761C410.738 620.511 391.08 600.854 366.831 600.854C342.582 600.854 322.924 620.511 322.924 644.761" stroke="#AAAAAA" stroke-width="2" stroke-linecap="round" stroke-linejoin="round"/>
<circle cx="362.075" cy="707.567" r="1.67887" fill="#D9D9D9"/>
<circle cx="372.148" cy="707.567" r="1.67887" fill="#D9D9D9"/>
<circle cx="382.222" cy="707.567" r="1.67887" fill="#D9D9D9"/>
<path d="M45.6992 585.982V572.092H47.366V585.982H45.6992ZM51.8382 585.982L56.9578 572.092H58.7239L63.8237 585.982H62.0576L57.831 574.175L53.5845 585.982H51.8382ZM54.1798 582.41L54.656 581.061H60.9464L61.4226 582.41H54.1798ZM68.2897 585.982V572.092H70.2343L75.1356 581.795L80.0568 572.092H82.0213V585.982H80.3545V575.068L75.7706 584.037H74.5205L69.9565 575.108V585.982H68.2897ZM45.6992 611.982V598.092H50.5807C51.5596 598.092 52.3666 598.25 53.0016 598.568C53.6498 598.872 54.1326 599.295 54.4501 599.838C54.7676 600.367 54.9264 600.962 54.9264 601.624C54.9264 602.338 54.7676 602.933 54.4501 603.41C54.1459 603.886 53.7424 604.25 53.2397 604.501C52.7502 604.752 52.2277 604.904 51.6721 604.957L51.9499 604.759C52.5452 604.772 53.0942 604.931 53.5969 605.235C54.0996 605.539 54.4964 605.95 54.7875 606.465C55.0917 606.981 55.2439 607.557 55.2439 608.192C55.2439 608.893 55.0719 609.535 54.7279 610.117C54.384 610.685 53.8747 611.142 53.2 611.486C52.5386 611.817 51.7184 611.982 50.7394 611.982H45.6992ZM47.366 610.593H50.5608C51.5001 610.593 52.2277 610.375 52.7436 609.938C53.2728 609.488 53.5373 608.867 53.5373 608.073C53.5373 607.292 53.2661 606.671 52.7238 606.208C52.1946 605.731 51.4604 605.493 50.5211 605.493H47.366V610.593ZM47.366 604.164H50.4616C51.3612 604.164 52.0425 603.952 52.5055 603.529C52.9817 603.105 53.2198 602.53 53.2198 601.802C53.2198 601.101 52.9817 600.539 52.5055 600.116C52.0425 599.692 51.3413 599.481 50.4021 599.481H47.366V604.164ZM65.0374 612.22C64.0849 612.22 63.2184 612.028 62.4379 611.645C61.6706 611.261 61.0555 610.679 60.5924 609.898C60.1294 609.105 59.8979 608.093 59.8979 606.862V598.092H61.5648V606.882C61.5648 607.782 61.7103 608.516 62.0013 609.085C62.3056 609.654 62.7223 610.07 63.2515 610.335C63.7806 610.6 64.3891 610.732 65.0771 610.732C65.7782 610.732 66.3867 610.6 66.9026 610.335C67.4186 610.07 67.8221 609.654 68.1131 609.085C68.4041 608.516 68.5496 607.782 68.5496 606.882V598.092H70.2165V606.862C70.2165 608.093 69.985 609.105 69.522 609.898C69.059 610.679 68.4372 611.261 67.6567 611.645C66.8762 612.028 66.0031 612.22 65.0374 612.22ZM79.846 612.22C78.8273 612.22 77.941 612.035 77.187 611.664C76.4329 611.294 75.8508 610.778 75.4407 610.117C75.0306 609.455 74.8256 608.688 74.8256 607.815H76.5718C76.5718 608.357 76.6975 608.86 76.9488 609.323C77.2002 609.773 77.564 610.136 78.0402 610.414C78.5297 610.679 79.1316 610.811 79.846 610.811C80.4677 610.811 80.9969 610.712 81.4334 610.514C81.8832 610.302 82.2206 610.017 82.4455 609.66C82.6836 609.303 82.8026 608.9 82.8026 608.45C82.8026 607.907 82.6836 607.471 82.4455 607.14C82.2206 606.796 81.9097 606.518 81.5128 606.307C81.116 606.095 80.6529 605.91 80.1238 605.751C79.6079 605.579 79.0655 605.401 78.4966 605.215C77.3986 604.845 76.5917 604.382 76.0757 603.826C75.5598 603.271 75.3018 602.55 75.3018 601.663C75.3018 600.909 75.4738 600.248 75.8178 599.679C76.1749 599.11 76.6776 598.667 77.3259 598.35C77.9873 598.019 78.7678 597.853 79.6674 597.853C80.5537 597.853 81.321 598.019 81.9692 598.35C82.6307 598.68 83.1466 599.137 83.517 599.719C83.8874 600.288 84.0726 600.949 84.0726 601.703H82.3264C82.3264 601.319 82.2272 600.942 82.0287 600.572C81.8303 600.202 81.526 599.897 81.116 599.659C80.7191 599.408 80.2164 599.282 79.6079 599.282C79.1052 599.269 78.6554 599.355 78.2585 599.54C77.8749 599.712 77.5706 599.963 77.3457 600.294C77.134 600.625 77.0282 601.028 77.0282 601.505C77.0282 601.954 77.1208 602.318 77.306 602.596C77.5045 602.874 77.7823 603.112 78.1394 603.31C78.5099 603.496 78.9398 603.668 79.4293 603.826C79.9187 603.985 80.4611 604.164 81.0564 604.362C81.7311 604.587 82.3264 604.865 82.8423 605.195C83.3715 605.513 83.7816 605.923 84.0726 606.426C84.3769 606.928 84.529 607.57 84.529 608.351C84.529 609.012 84.3504 609.64 83.9932 610.236C83.6493 610.818 83.1334 611.294 82.4455 611.664C81.7576 612.035 80.8911 612.22 79.846 612.22ZM88.4199 611.982L93.5395 598.092H95.3055L100.405 611.982H98.6392L94.4126 600.175L90.1661 611.982H88.4199ZM90.7614 608.41L91.2376 607.061H97.528L98.0042 608.41H90.7614ZM106.851 611.982V606.704L102.327 598.092H104.212L107.942 605.612H107.446L111.157 598.092H113.022L108.518 606.704V611.982H106.851ZM122.532 612.22C121.196 612.22 120.019 611.922 119 611.327C117.995 610.719 117.207 609.879 116.639 608.807C116.083 607.722 115.805 606.465 115.805 605.037C115.805 603.621 116.083 602.378 116.639 601.306C117.207 600.221 117.995 599.375 119 598.766C120.019 598.158 121.196 597.853 122.532 597.853C123.895 597.853 125.079 598.158 126.084 598.766C127.089 599.375 127.87 600.221 128.426 601.306C128.994 602.378 129.279 603.621 129.279 605.037C129.279 606.465 128.994 607.722 128.426 608.807C127.87 609.879 127.089 610.719 126.084 611.327C125.079 611.922 123.895 612.22 122.532 612.22ZM122.532 610.752C123.537 610.752 124.417 610.527 125.171 610.077C125.939 609.614 126.527 608.959 126.937 608.112C127.361 607.253 127.572 606.227 127.572 605.037C127.572 603.846 127.361 602.828 126.937 601.981C126.527 601.121 125.939 600.466 125.171 600.016C124.417 599.567 123.537 599.342 122.532 599.342C121.54 599.342 120.66 599.567 119.893 600.016C119.139 600.466 118.55 601.121 118.127 601.981C117.717 602.828 117.512 603.846 117.512 605.037C117.512 606.227 117.717 607.253 118.127 608.112C118.55 608.959 119.139 609.614 119.893 610.077C120.66 610.527 121.54 610.752 122.532 610.752ZM146.166 612.22C145.148 612.22 144.261 612.035 143.507 611.664C142.753 611.294 142.171 610.778 141.761 610.117C141.351 609.455 141.146 608.688 141.146 607.815H142.892C142.892 608.357 143.018 608.86 143.269 609.323C143.521 609.773 143.884 610.136 144.361 610.414C144.85 610.679 145.452 610.811 146.166 610.811C146.788 610.811 147.317 610.712 147.754 610.514C148.204 610.302 148.541 610.017 148.766 609.66C149.004 609.303 149.123 608.9 149.123 608.45C149.123 607.907 149.004 607.471 148.766 607.14C148.541 606.796 148.23 606.518 147.833 606.307C147.436 606.095 146.973 605.91 146.444 605.751C145.928 605.579 145.386 605.401 144.817 605.215C143.719 604.845 142.912 604.382 142.396 603.826C141.88 603.271 141.622 602.55 141.622 601.663C141.622 600.909 141.794 600.248 142.138 599.679C142.495 599.11 142.998 598.667 143.646 598.35C144.308 598.019 145.088 597.853 145.988 597.853C146.874 597.853 147.641 598.019 148.29 598.35C148.951 598.68 149.467 599.137 149.837 599.719C150.208 600.288 150.393 600.949 150.393 601.703H148.647C148.647 601.319 148.548 600.942 148.349 600.572C148.151 600.202 147.846 599.897 147.436 599.659C147.039 599.408 146.537 599.282 145.928 599.282C145.426 599.269 144.976 599.355 144.579 599.54C144.195 599.712 143.891 599.963 143.666 600.294C143.454 600.625 143.349 601.028 143.349 601.505C143.349 601.954 143.441 602.318 143.626 602.596C143.825 602.874 144.103 603.112 144.46 603.31C144.83 603.496 145.26 603.668 145.75 603.826C146.239 603.985 146.782 604.164 147.377 604.362C148.051 604.587 148.647 604.865 149.163 605.195C149.692 605.513 150.102 605.923 150.393 606.426C150.697 606.928 150.849 607.57 150.849 608.351C150.849 609.012 150.671 609.64 150.314 610.236C149.97 610.818 149.454 611.294 148.766 611.664C148.078 612.035 147.211 612.22 146.166 612.22ZM154.74 611.982L159.86 598.092H161.626L166.726 611.982H164.96L160.733 600.175L156.486 611.982H154.74ZM157.082 608.41L157.558 607.061H163.848L164.325 608.41H157.082ZM171.192 611.982V598.092H172.859V610.652H179.327V611.982H171.192ZM183.144 611.982L188.264 598.092H190.03L195.13 611.982H193.364L189.137 600.175L184.89 611.982H183.144ZM185.486 608.41L185.962 607.061H192.252L192.729 608.41H185.486ZM199.596 611.982V598.092H201.262V604.382L207.057 598.092H209.16L204.001 603.628L209.24 611.982H207.216L202.81 604.918L201.262 606.565V611.982H199.596ZM218.942 612.22C217.606 612.22 216.429 611.922 215.41 611.327C214.405 610.719 213.618 609.879 213.049 608.807C212.493 607.722 212.215 606.465 212.215 605.037C212.215 603.621 212.493 602.378 213.049 601.306C213.618 600.221 214.405 599.375 215.41 598.766C216.429 598.158 217.606 597.853 218.942 597.853C220.305 597.853 221.489 598.158 222.494 598.766C223.5 599.375 224.28 600.221 224.836 601.306C225.405 602.378 225.689 603.621 225.689 605.037C225.689 606.465 225.405 607.722 224.836 608.807C224.28 609.879 223.5 610.719 222.494 611.327C221.489 611.922 220.305 612.22 218.942 612.22ZM218.942 610.752C219.948 610.752 220.827 610.527 221.582 610.077C222.349 609.614 222.937 608.959 223.348 608.112C223.771 607.253 223.983 606.227 223.983 605.037C223.983 603.846 223.771 602.828 223.348 601.981C222.937 601.121 222.349 600.466 221.582 600.016C220.827 599.567 219.948 599.342 218.942 599.342C217.95 599.342 217.07 599.567 216.303 600.016C215.549 600.466 214.96 601.121 214.537 601.981C214.127 602.828 213.922 603.846 213.922 605.037C213.922 606.227 214.127 607.253 214.537 608.112C214.96 608.959 215.549 609.614 216.303 610.077C217.07 610.527 217.95 610.752 218.942 610.752Z" fill="white"/>
<rect x="45.3301" y="628.66" width="179.079" height="12.3117" fill="#AAAAAA"/>
<rect x="45.3301" y="652.164" width="179.079" height="12.3117" fill="#AAAAAA"/>
<rect x="45.3301" y="709.805" width="179.079" height="7.27509" fill="#AAAAAA"/>
<rect x="44.2109" y="468.358" width="81.1452" height="3.29652" fill="#AAAAAA"/>
</g>
<rect x="0.279811" y="436.43" width="473.44" height="310.59" stroke="#AAAAAA" stroke-width="0.559622"/>
<path d="M10.1201 808.3V794.409H12.799V808.3H10.1201ZM1.3692 808.3V794.409H4.04805V808.3H1.3692ZM3.67103 802.287V800.124H10.5765V802.287H3.67103ZM22.5792 808.538C21.6267 808.538 20.7668 808.32 19.9995 807.883C19.2455 807.433 18.6436 806.818 18.1938 806.038C17.7572 805.244 17.5389 804.338 17.5389 803.319C17.5389 802.274 17.7572 801.361 18.1938 800.581C18.6436 799.787 19.2521 799.172 20.0194 798.735C20.7866 798.285 21.6465 798.061 22.599 798.061C23.5647 798.061 24.4246 798.285 25.1786 798.735C25.9459 799.172 26.5478 799.787 26.9844 800.581C27.4342 801.361 27.6591 802.267 27.6591 803.299C27.6591 804.331 27.4342 805.244 26.9844 806.038C26.5478 806.818 25.9459 807.433 25.1786 807.883C24.4114 808.32 23.5449 808.538 22.5792 808.538ZM22.5792 806.216C23.0289 806.216 23.4258 806.11 23.7698 805.899C24.1269 805.687 24.4048 805.363 24.6032 804.926C24.8149 804.49 24.9207 803.947 24.9207 803.299C24.9207 802.651 24.8149 802.115 24.6032 801.692C24.4048 801.255 24.1269 800.931 23.7698 800.72C23.4258 800.495 23.0356 800.382 22.599 800.382C22.1757 800.382 21.7854 800.495 21.4282 800.72C21.0711 800.931 20.7866 801.255 20.575 801.692C20.3765 802.115 20.2773 802.651 20.2773 803.299C20.2773 803.947 20.3765 804.49 20.575 804.926C20.7866 805.363 21.0644 805.687 21.4084 805.899C21.7656 806.11 22.1558 806.216 22.5792 806.216ZM32.3491 808.3V798.299H34.7105L34.9287 799.628C35.2462 799.152 35.6629 798.775 36.1789 798.497C36.708 798.206 37.3099 798.061 37.9846 798.061C38.4873 798.061 38.9371 798.127 39.334 798.259C39.7308 798.391 40.0814 798.583 40.3857 798.835C40.7032 799.086 40.9611 799.403 41.1596 799.787C41.53 799.245 42.0128 798.821 42.6081 798.517C43.2034 798.213 43.8517 798.061 44.5528 798.061C45.4259 798.061 46.1535 798.239 46.7356 798.596C47.3176 798.94 47.7542 799.443 48.0452 800.104C48.3495 800.766 48.5016 801.58 48.5016 802.545V808.3H45.8426V802.783C45.8426 801.99 45.6839 801.381 45.3664 800.958C45.0621 800.534 44.5859 800.323 43.9376 800.323C43.5143 800.323 43.1373 800.429 42.8066 800.64C42.4758 800.852 42.2179 801.156 42.0327 801.553C41.8607 801.95 41.7747 802.426 41.7747 802.982V808.3H39.0958V802.783C39.0958 801.99 38.9371 801.381 38.6196 800.958C38.3021 800.534 37.8126 800.323 37.1512 800.323C36.7411 800.323 36.3707 800.429 36.04 800.64C35.7225 800.852 35.4711 801.156 35.2859 801.553C35.1139 801.95 35.028 802.426 35.028 802.982V808.3H32.3491ZM58.2131 808.538C57.2077 808.538 56.3148 808.326 55.5343 807.903C54.767 807.466 54.1651 806.864 53.7285 806.097C53.3052 805.317 53.0935 804.417 53.0935 803.398C53.0935 802.353 53.3052 801.434 53.7285 800.64C54.1651 799.833 54.767 799.205 55.5343 798.755C56.3015 798.292 57.1945 798.061 58.2131 798.061C59.2053 798.061 60.0718 798.279 60.8126 798.715C61.5534 799.152 62.1289 799.741 62.539 800.482C62.9491 801.222 63.1541 802.062 63.1541 803.002C63.1541 803.134 63.1541 803.286 63.1541 803.458C63.1541 803.617 63.1409 803.782 63.1144 803.954H54.9985V802.327H60.4554C60.4157 801.679 60.1842 801.169 59.7609 800.799C59.3508 800.429 58.8349 800.243 58.2131 800.243C57.7633 800.243 57.3466 800.349 56.963 800.561C56.5793 800.759 56.2751 801.07 56.0502 801.494C55.8385 801.917 55.7327 802.453 55.7327 803.101V803.676C55.7327 804.219 55.8319 804.695 56.0303 805.105C56.242 805.502 56.533 805.813 56.9034 806.038C57.2739 806.249 57.7038 806.355 58.1933 806.355C58.6827 806.355 59.0862 806.249 59.4037 806.038C59.7344 805.826 59.9792 805.555 60.1379 805.224H62.8763C62.6911 805.846 62.3802 806.408 61.9437 806.911C61.5071 807.413 60.9713 807.81 60.3364 808.101C59.7014 808.392 58.9936 808.538 58.2131 808.538ZM74.8402 808.3V794.409H80.0392C81.1636 794.409 82.0963 794.601 82.8371 794.985C83.5779 795.369 84.1269 795.884 84.4841 796.533C84.8413 797.181 85.0198 797.922 85.0198 798.755C85.0198 799.522 84.8479 800.23 84.5039 800.878C84.16 801.527 83.6176 802.056 82.8768 802.466C82.1359 802.863 81.1901 803.061 80.0392 803.061H77.519V808.3H74.8402ZM77.519 800.898H79.8804C80.7403 800.898 81.3554 800.706 81.7258 800.323C82.1095 799.926 82.3013 799.403 82.3013 798.755C82.3013 798.067 82.1095 797.538 81.7258 797.168C81.3554 796.784 80.7403 796.592 79.8804 796.592H77.519V800.898ZM92.0653 808.538C91.2319 808.538 90.544 808.406 90.0016 808.141C89.4592 807.863 89.0558 807.499 88.7912 807.05C88.5398 806.587 88.4142 806.077 88.4142 805.522C88.4142 804.913 88.5663 804.377 88.8705 803.914C89.188 803.451 89.6577 803.088 90.2794 802.823C90.9144 802.558 91.7082 802.426 92.6606 802.426H95.1411C95.1411 801.937 95.0749 801.533 94.9426 801.216C94.8103 800.885 94.6053 800.64 94.3275 800.482C94.0497 800.323 93.6793 800.243 93.2163 800.243C92.7136 800.243 92.2836 800.356 91.9264 800.581C91.5825 800.792 91.3708 801.123 91.2914 801.573H88.692C88.7581 800.859 88.9896 800.243 89.3865 799.727C89.7966 799.198 90.3323 798.788 90.9938 798.497C91.6685 798.206 92.4159 798.061 93.2361 798.061C94.1754 798.061 94.9889 798.219 95.6768 798.537C96.3647 798.854 96.8939 799.311 97.2643 799.906C97.6347 800.501 97.8199 801.236 97.8199 802.109V808.3H95.5578L95.2601 806.772C95.1146 807.036 94.9426 807.275 94.7442 807.486C94.5458 807.698 94.3143 807.883 94.0497 808.042C93.7851 808.201 93.4874 808.32 93.1567 808.399C92.826 808.492 92.4622 808.538 92.0653 808.538ZM92.7003 806.474C93.0443 806.474 93.3485 806.415 93.6131 806.296C93.8909 806.163 94.1291 805.991 94.3275 805.78C94.5259 805.555 94.6781 805.303 94.7839 805.026C94.9029 804.735 94.9823 804.424 95.022 804.093V804.073H92.9781C92.568 804.073 92.2307 804.126 91.9661 804.232C91.7148 804.325 91.5296 804.463 91.4105 804.649C91.2914 804.834 91.2319 805.045 91.2319 805.284C91.2319 805.548 91.2914 805.766 91.4105 805.938C91.5296 806.11 91.7015 806.243 91.9264 806.335C92.1513 806.428 92.4093 806.474 92.7003 806.474ZM107.006 812.903C106.054 812.903 105.22 812.784 104.506 812.546C103.792 812.321 103.236 811.971 102.839 811.495C102.455 811.032 102.264 810.456 102.264 809.768C102.264 809.305 102.383 808.869 102.621 808.459C102.859 808.048 103.203 807.678 103.653 807.347C104.116 807.003 104.691 806.712 105.379 806.474L106.391 807.784C105.783 807.982 105.339 808.227 105.062 808.518C104.797 808.822 104.665 809.146 104.665 809.49C104.665 809.795 104.764 810.053 104.962 810.264C105.174 810.476 105.452 810.628 105.796 810.721C106.153 810.827 106.55 810.879 106.986 810.879C107.41 810.879 107.773 810.827 108.078 810.721C108.395 810.615 108.64 810.456 108.812 810.244C108.997 810.046 109.09 809.808 109.09 809.53C109.09 809.173 108.964 808.882 108.713 808.657C108.461 808.432 107.959 808.293 107.205 808.24C106.53 808.187 105.928 808.115 105.399 808.022C104.883 807.916 104.427 807.797 104.03 807.665C103.633 807.519 103.295 807.361 103.018 807.189C102.753 807.017 102.535 806.845 102.363 806.673V806.216L104.486 803.934L106.411 804.549L103.911 807.01L104.665 805.7C104.81 805.78 104.949 805.859 105.081 805.938C105.227 806.005 105.405 806.071 105.617 806.137C105.829 806.19 106.107 806.243 106.451 806.296C106.795 806.349 107.231 806.395 107.76 806.435C108.633 806.514 109.348 806.679 109.903 806.931C110.472 807.182 110.889 807.519 111.153 807.943C111.418 808.353 111.55 808.862 111.55 809.471C111.55 810.066 111.385 810.621 111.054 811.137C110.737 811.667 110.241 812.09 109.566 812.407C108.891 812.738 108.038 812.903 107.006 812.903ZM107.006 805.343C106.173 805.343 105.452 805.184 104.843 804.867C104.248 804.536 103.785 804.1 103.454 803.557C103.137 803.002 102.978 802.386 102.978 801.712C102.978 801.037 103.137 800.429 103.454 799.886C103.785 799.331 104.248 798.887 104.843 798.557C105.452 798.226 106.173 798.061 107.006 798.061C107.853 798.061 108.574 798.226 109.169 798.557C109.778 798.887 110.241 799.331 110.558 799.886C110.876 800.429 111.034 801.037 111.034 801.712C111.034 802.386 110.876 803.002 110.558 803.557C110.241 804.1 109.778 804.536 109.169 804.867C108.574 805.184 107.853 805.343 107.006 805.343ZM107.006 803.299C107.522 803.299 107.939 803.167 108.256 802.902C108.574 802.638 108.733 802.248 108.733 801.732C108.733 801.216 108.574 800.825 108.256 800.561C107.939 800.283 107.522 800.144 107.006 800.144C106.503 800.144 106.087 800.283 105.756 800.561C105.439 800.825 105.28 801.216 105.28 801.732C105.28 802.248 105.439 802.638 105.756 802.902C106.087 803.167 106.503 803.299 107.006 803.299ZM108.673 800.204L108.236 798.299H112.344V799.886L108.673 800.204ZM121.317 808.538C120.311 808.538 119.418 808.326 118.638 807.903C117.871 807.466 117.269 806.864 116.832 806.097C116.409 805.317 116.197 804.417 116.197 803.398C116.197 802.353 116.409 801.434 116.832 800.64C117.269 799.833 117.871 799.205 118.638 798.755C119.405 798.292 120.298 798.061 121.317 798.061C122.309 798.061 123.175 798.279 123.916 798.715C124.657 799.152 125.232 799.741 125.643 800.482C126.053 801.222 126.258 802.062 126.258 803.002C126.258 803.134 126.258 803.286 126.258 803.458C126.258 803.617 126.244 803.782 126.218 803.954H118.102V802.327H123.559C123.519 801.679 123.288 801.169 122.864 800.799C122.454 800.429 121.938 800.243 121.317 800.243C120.867 800.243 120.45 800.349 120.067 800.561C119.683 800.759 119.379 801.07 119.154 801.494C118.942 801.917 118.836 802.453 118.836 803.101V803.676C118.836 804.219 118.935 804.695 119.134 805.105C119.346 805.502 119.637 805.813 120.007 806.038C120.377 806.249 120.807 806.355 121.297 806.355C121.786 806.355 122.19 806.249 122.507 806.038C122.838 805.826 123.083 805.555 123.241 805.224H125.98C125.795 805.846 125.484 806.408 125.047 806.911C124.611 807.413 124.075 807.81 123.44 808.101C122.805 808.392 122.097 808.538 121.317 808.538Z" fill="white"/>
<g clip-path="url(#clip2_1368_1189)">
<rect x="270.577" y="830.58" width="203.143" height="310.59" stroke="#AAAAAA" stroke-width="0.559622"/>
<path d="M398.195 963.641C398.195 946.321 384.154 932.279 366.833 932.279C349.512 932.279 335.471 946.321 335.471 963.641C335.471 980.962 349.512 995.004 366.833 995.004C384.154 995.004 398.195 980.962 398.195 963.641Z" stroke="#AAAAAA" stroke-width="2" stroke-linecap="round" stroke-linejoin="round"/>
<path d="M410.738 1038.91C410.738 1014.66 391.08 995.003 366.831 995.003C342.582 995.003 322.924 1014.66 322.924 1038.91" stroke="#AAAAAA" stroke-width="2" stroke-linecap="round" stroke-linejoin="round"/>
<circle cx="362.075" cy="1101.72" r="1.67887" fill="#D9D9D9"/>
<circle cx="372.148" cy="1101.72" r="1.67887" fill="#D9D9D9"/>
<circle cx="382.222" cy="1101.72" r="1.67887" fill="#D9D9D9"/>
<path d="M45.6992 980.132V966.241H47.366V980.132H45.6992ZM51.8382 980.132L56.9578 966.241H58.7239L63.8237 980.132H62.0576L57.831 968.325L53.5845 980.132H51.8382ZM54.1798 976.56L54.656 975.211H60.9464L61.4226 976.56H54.1798ZM68.2897 980.132V966.241H70.2343L75.1356 975.945L80.0568 966.241H82.0213V980.132H80.3545V969.218L75.7706 978.187H74.5205L69.9565 969.258V980.132H68.2897ZM45.6992 1006.13V992.241H50.5807C51.5596 992.241 52.3666 992.4 53.0016 992.718C53.6498 993.022 54.1326 993.445 54.4501 993.988C54.7676 994.517 54.9264 995.112 54.9264 995.774C54.9264 996.488 54.7676 997.083 54.4501 997.559C54.1459 998.036 53.7424 998.4 53.2397 998.651C52.7502 998.902 52.2277 999.054 51.6721 999.107L51.9499 998.909C52.5452 998.922 53.0942 999.081 53.5969 999.385C54.0996 999.689 54.4964 1000.1 54.7875 1000.62C55.0917 1001.13 55.2439 1001.71 55.2439 1002.34C55.2439 1003.04 55.0719 1003.68 54.7279 1004.27C54.384 1004.84 53.8747 1005.29 53.2 1005.64C52.5386 1005.97 51.7184 1006.13 50.7394 1006.13H45.6992ZM47.366 1004.74H50.5608C51.5001 1004.74 52.2277 1004.52 52.7436 1004.09C53.2728 1003.64 53.5373 1003.02 53.5373 1002.22C53.5373 1001.44 53.2661 1000.82 52.7238 1000.36C52.1946 999.881 51.4604 999.643 50.5211 999.643H47.366V1004.74ZM47.366 998.314H50.4616C51.3612 998.314 52.0425 998.102 52.5055 997.679C52.9817 997.255 53.2198 996.68 53.2198 995.952C53.2198 995.251 52.9817 994.689 52.5055 994.265C52.0425 993.842 51.3413 993.63 50.4021 993.63H47.366V998.314ZM65.0374 1006.37C64.0849 1006.37 63.2184 1006.18 62.4379 1005.79C61.6706 1005.41 61.0555 1004.83 60.5924 1004.05C60.1294 1003.25 59.8979 1002.24 59.8979 1001.01V992.241H61.5648V1001.03C61.5648 1001.93 61.7103 1002.67 62.0013 1003.23C62.3056 1003.8 62.7223 1004.22 63.2515 1004.48C63.7806 1004.75 64.3891 1004.88 65.0771 1004.88C65.7782 1004.88 66.3867 1004.75 66.9026 1004.48C67.4186 1004.22 67.8221 1003.8 68.1131 1003.23C68.4041 1002.67 68.5496 1001.93 68.5496 1001.03V992.241H70.2165V1001.01C70.2165 1002.24 69.985 1003.25 69.522 1004.05C69.059 1004.83 68.4372 1005.41 67.6567 1005.79C66.8762 1006.18 66.0031 1006.37 65.0374 1006.37ZM79.846 1006.37C78.8273 1006.37 77.941 1006.18 77.187 1005.81C76.4329 1005.44 75.8508 1004.93 75.4407 1004.27C75.0306 1003.61 74.8256 1002.84 74.8256 1001.96H76.5718C76.5718 1002.51 76.6975 1003.01 76.9488 1003.47C77.2002 1003.92 77.564 1004.29 78.0402 1004.56C78.5297 1004.83 79.1316 1004.96 79.846 1004.96C80.4677 1004.96 80.9969 1004.86 81.4334 1004.66C81.8832 1004.45 82.2206 1004.17 82.4455 1003.81C82.6836 1003.45 82.8026 1003.05 82.8026 1002.6C82.8026 1002.06 82.6836 1001.62 82.4455 1001.29C82.2206 1000.95 81.9097 1000.67 81.5128 1000.46C81.116 1000.24 80.6529 1000.06 80.1238 999.901C79.6079 999.729 79.0655 999.55 78.4966 999.365C77.3986 998.995 76.5917 998.532 76.0757 997.976C75.5598 997.421 75.3018 996.7 75.3018 995.813C75.3018 995.059 75.4738 994.398 75.8178 993.829C76.1749 993.26 76.6776 992.817 77.3259 992.499C77.9873 992.169 78.7678 992.003 79.6674 992.003C80.5537 992.003 81.321 992.169 81.9692 992.499C82.6307 992.83 83.1466 993.287 83.517 993.869C83.8874 994.437 84.0726 995.099 84.0726 995.853H82.3264C82.3264 995.469 82.2272 995.092 82.0287 994.722C81.8303 994.351 81.526 994.047 81.116 993.809C80.7191 993.558 80.2164 993.432 79.6079 993.432C79.1052 993.419 78.6554 993.505 78.2585 993.69C77.8749 993.862 77.5706 994.113 77.3457 994.444C77.134 994.775 77.0282 995.178 77.0282 995.655C77.0282 996.104 77.1208 996.468 77.306 996.746C77.5045 997.024 77.7823 997.262 78.1394 997.46C78.5099 997.645 78.9398 997.817 79.4293 997.976C79.9187 998.135 80.4611 998.314 81.0564 998.512C81.7311 998.737 82.3264 999.015 82.8423 999.345C83.3715 999.663 83.7816 1000.07 84.0726 1000.58C84.3769 1001.08 84.529 1001.72 84.529 1002.5C84.529 1003.16 84.3504 1003.79 83.9932 1004.39C83.6493 1004.97 83.1334 1005.44 82.4455 1005.81C81.7576 1006.18 80.8911 1006.37 79.846 1006.37ZM88.4199 1006.13L93.5395 992.241H95.3055L100.405 1006.13H98.6392L94.4126 994.325L90.1661 1006.13H88.4199ZM90.7614 1002.56L91.2376 1001.21H97.528L98.0042 1002.56H90.7614ZM106.851 1006.13V1000.85L102.327 992.241H104.212L107.942 999.762H107.446L111.157 992.241H113.022L108.518 1000.85V1006.13H106.851ZM122.532 1006.37C121.196 1006.37 120.019 1006.07 119 1005.48C117.995 1004.87 117.207 1004.03 116.639 1002.96C116.083 1001.87 115.805 1000.62 115.805 999.187C115.805 997.771 116.083 996.528 116.639 995.456C117.207 994.371 117.995 993.525 119 992.916C120.019 992.308 121.196 992.003 122.532 992.003C123.895 992.003 125.079 992.308 126.084 992.916C127.089 993.525 127.87 994.371 128.426 995.456C128.994 996.528 129.279 997.771 129.279 999.187C129.279 1000.62 128.994 1001.87 128.426 1002.96C127.87 1004.03 127.089 1004.87 126.084 1005.48C125.079 1006.07 123.895 1006.37 122.532 1006.37ZM122.532 1004.9C123.537 1004.9 124.417 1004.68 125.171 1004.23C125.939 1003.76 126.527 1003.11 126.937 1002.26C127.361 1001.4 127.572 1000.38 127.572 999.187C127.572 997.996 127.361 996.977 126.937 996.131C126.527 995.271 125.939 994.616 125.171 994.166C124.417 993.716 123.537 993.492 122.532 993.492C121.54 993.492 120.66 993.716 119.893 994.166C119.139 994.616 118.55 995.271 118.127 996.131C117.717 996.977 117.512 997.996 117.512 999.187C117.512 1000.38 117.717 1001.4 118.127 1002.26C118.55 1003.11 119.139 1003.76 119.893 1004.23C120.66 1004.68 121.54 1004.9 122.532 1004.9ZM146.166 1006.37C145.148 1006.37 144.261 1006.18 143.507 1005.81C142.753 1005.44 142.171 1004.93 141.761 1004.27C141.351 1003.61 141.146 1002.84 141.146 1001.96H142.892C142.892 1002.51 143.018 1003.01 143.269 1003.47C143.521 1003.92 143.884 1004.29 144.361 1004.56C144.85 1004.83 145.452 1004.96 146.166 1004.96C146.788 1004.96 147.317 1004.86 147.754 1004.66C148.204 1004.45 148.541 1004.17 148.766 1003.81C149.004 1003.45 149.123 1003.05 149.123 1002.6C149.123 1002.06 149.004 1001.62 148.766 1001.29C148.541 1000.95 148.23 1000.67 147.833 1000.46C147.436 1000.24 146.973 1000.06 146.444 999.901C145.928 999.729 145.386 999.55 144.817 999.365C143.719 998.995 142.912 998.532 142.396 997.976C141.88 997.421 141.622 996.7 141.622 995.813C141.622 995.059 141.794 994.398 142.138 993.829C142.495 993.26 142.998 992.817 143.646 992.499C144.308 992.169 145.088 992.003 145.988 992.003C146.874 992.003 147.641 992.169 148.29 992.499C148.951 992.83 149.467 993.287 149.837 993.869C150.208 994.437 150.393 995.099 150.393 995.853H148.647C148.647 995.469 148.548 995.092 148.349 994.722C148.151 994.351 147.846 994.047 147.436 993.809C147.039 993.558 146.537 993.432 145.928 993.432C145.426 993.419 144.976 993.505 144.579 993.69C144.195 993.862 143.891 994.113 143.666 994.444C143.454 994.775 143.349 995.178 143.349 995.655C143.349 996.104 143.441 996.468 143.626 996.746C143.825 997.024 144.103 997.262 144.46 997.46C144.83 997.645 145.26 997.817 145.75 997.976C146.239 998.135 146.782 998.314 147.377 998.512C148.051 998.737 148.647 999.015 149.163 999.345C149.692 999.663 150.102 1000.07 150.393 1000.58C150.697 1001.08 150.849 1001.72 150.849 1002.5C150.849 1003.16 150.671 1003.79 150.314 1004.39C149.97 1004.97 149.454 1005.44 148.766 1005.81C148.078 1006.18 147.211 1006.37 146.166 1006.37ZM154.74 1006.13L159.86 992.241H161.626L166.726 1006.13H164.96L160.733 994.325L156.486 1006.13H154.74ZM157.082 1002.56L157.558 1001.21H163.848L164.325 1002.56H157.082ZM171.192 1006.13V992.241H172.859V1004.8H179.327V1006.13H171.192ZM183.144 1006.13L188.264 992.241H190.03L195.13 1006.13H193.364L189.137 994.325L184.89 1006.13H183.144ZM185.486 1002.56L185.962 1001.21H192.252L192.729 1002.56H185.486ZM199.596 1006.13V992.241H201.262V998.532L207.057 992.241H209.16L204.001 997.778L209.24 1006.13H207.216L202.81 999.068L201.262 1000.71V1006.13H199.596ZM218.942 1006.37C217.606 1006.37 216.429 1006.07 215.41 1005.48C214.405 1004.87 213.618 1004.03 213.049 1002.96C212.493 1001.87 212.215 1000.62 212.215 999.187C212.215 997.771 212.493 996.528 213.049 995.456C213.618 994.371 214.405 993.525 215.41 992.916C216.429 992.308 217.606 992.003 218.942 992.003C220.305 992.003 221.489 992.308 222.494 992.916C223.5 993.525 224.28 994.371 224.836 995.456C225.405 996.528 225.689 997.771 225.689 999.187C225.689 1000.62 225.405 1001.87 224.836 1002.96C224.28 1004.03 223.5 1004.87 222.494 1005.48C221.489 1006.07 220.305 1006.37 218.942 1006.37ZM218.942 1004.9C219.948 1004.9 220.827 1004.68 221.582 1004.23C222.349 1003.76 222.937 1003.11 223.348 1002.26C223.771 1001.4 223.983 1000.38 223.983 999.187C223.983 997.996 223.771 996.977 223.348 996.131C222.937 995.271 222.349 994.616 221.582 994.166C220.827 993.716 219.948 993.492 218.942 993.492C217.95 993.492 217.07 993.716 216.303 994.166C215.549 994.616 214.96 995.271 214.537 996.131C214.127 996.977 213.922 997.996 213.922 999.187C213.922 1000.38 214.127 1001.4 214.537 1002.26C214.96 1003.11 215.549 1003.76 216.303 1004.23C217.07 1004.68 217.95 1004.9 218.942 1004.9Z" fill="white"/>
<rect x="45.3301" y="1022.81" width="179.079" height="12.3117" fill="#AAAAAA"/>
<rect x="45.3301" y="1046.31" width="179.079" height="12.3117" fill="#AAAAAA"/>
<rect x="45.3301" y="1103.96" width="179.079" height="7.27509" fill="#AAAAAA"/>
<rect x="44.2109" y="862.508" width="81.1452" height="3.29652" fill="#AAAAAA"/>
</g>
<rect x="0.279811" y="830.58" width="473.44" height="310.59" stroke="#AAAAAA" stroke-width="0.559622"/>
<defs>
<clipPath id="clip0_1368_1189">
<rect y="42" width="474" height="311.15" fill="white"/>
</clipPath>
<clipPath id="clip1_1368_1189">
<rect y="436.15" width="474" height="311.15" fill="white"/>
</clipPath>
<clipPath id="clip2_1368_1189">
<rect y="830.3" width="474" height="311.15" fill="white"/>
</clipPath>
</defs>
</svg>
