<svg width="40" height="40" viewBox="0 0 40 40" fill="none" xmlns="http://www.w3.org/2000/svg">
<g clip-path="url(#clip0_537_315)">
<path d="M38.2277 0H19.0166C19.0166 1.13886 19.2408 2.26657 19.6766 3.31875C20.1125 4.37093 20.7512 5.32696 21.5565 6.13225C22.3618 6.93755 23.3179 7.57634 24.37 8.01214C25.4222 8.44794 26.5499 8.67223 27.6888 8.67219H31.2277V12.0891C31.2308 16.8742 35.1091 20.7527 39.8943 20.7558V1.66656C39.8943 0.746406 39.1483 0 38.2277 0Z" fill="#2684FF"/>
<path d="M28.7227 9.57324H9.51172C9.51469 14.3584 13.393 18.2368 18.1783 18.24H21.7172V21.6678C21.7233 26.4529 25.6042 30.3287 30.3894 30.3287V11.2401C30.3894 10.3196 29.6431 9.57324 28.7227 9.57324Z" fill="url(#paint0_linear_537_315)"/>
<path d="M19.2111 19.1377H0C0 23.9272 3.88281 27.8099 8.67219 27.8099H12.2222V31.2266C12.2253 36.0074 16.0969 39.8841 20.8778 39.8932V20.8044C20.8778 19.8839 20.1316 19.1377 19.2111 19.1377Z" fill="url(#paint1_linear_537_315)"/>
</g>
<defs>
<linearGradient id="paint0_linear_537_315" x1="2056.17" y1="12.9149" x2="1243.93" y2="860.455" gradientUnits="userSpaceOnUse">
<stop offset="0.18" stop-color="#0052CC"/>
<stop offset="1" stop-color="#2684FF"/>
</linearGradient>
<linearGradient id="paint1_linear_537_315" x1="2101.66" y1="28.5814" x2="1162.1" y2="952.988" gradientUnits="userSpaceOnUse">
<stop offset="0.18" stop-color="#0052CC"/>
<stop offset="1" stop-color="#2684FF"/>
</linearGradient>
<clipPath id="clip0_537_315">
<rect width="40" height="40" fill="white"/>
</clipPath>
</defs>
</svg>
