<svg width="40" height="40" viewBox="0 0 40 40" fill="none" xmlns="http://www.w3.org/2000/svg">
<g clip-path="url(#clip0_537_323)">
<path d="M20.0029 8.00098C14.6695 8.00098 11.3373 10.6666 10.0029 16C12.0023 13.3341 14.3364 12.3344 17.0023 13.001C18.5245 13.3804 19.6123 14.4841 20.817 15.7072C22.7776 17.6969 25.047 20.0004 30.0029 20.0004C35.3361 20.0004 38.6686 17.3344 40.0029 11.9997C38.0029 14.667 35.6697 15.6672 33.0032 15.0004C31.4814 14.6207 30.3948 13.5172 29.1886 12.2941C27.2292 10.3044 24.9604 8.00098 20.0029 8.00098ZM10.0029 20.0004C4.6698 20.0004 1.3373 22.6663 0.00292969 28.001C2.00272 25.3337 4.33585 24.3335 7.00231 25.0004C8.52449 25.38 9.6123 26.4835 10.817 27.7066C12.7776 29.6963 15.047 31.9997 20.0029 31.9997C25.3361 31.9997 28.6686 29.3341 30.0029 24.0007C28.0029 26.6667 25.6697 27.6664 23.0032 26.9997C21.4814 26.6204 20.3948 25.5166 19.1886 24.2935C17.2292 22.3038 14.9604 20.0004 10.0029 20.0004Z" fill="#38BDF8"/>
</g>
<defs>
<clipPath id="clip0_537_323">
<rect width="40" height="40" fill="white"/>
</clipPath>
</defs>
</svg>
