<svg width="43" height="40" viewBox="0 0 43 40" fill="none" xmlns="http://www.w3.org/2000/svg">
<g clip-path="url(#clip0_537_299)">
<path d="M29.885 14.9463H40.9519C41.9976 14.9463 42.8451 15.794 42.8451 16.8395V26.92C42.8451 30.7627 39.73 33.878 35.8873 33.878H35.8543C32.0117 33.8785 28.896 30.7639 28.8955 26.921V15.9359C28.8954 15.8059 28.921 15.6772 28.9707 15.5572C29.0204 15.4371 29.0933 15.328 29.1852 15.2361C29.277 15.1441 29.3861 15.0713 29.5062 15.0215C29.6263 14.9718 29.755 14.9462 29.885 14.9463Z" fill="#5059C9"/>
<path d="M37.3647 12.9531C39.8411 12.9531 41.8486 10.9456 41.8486 8.4692C41.8486 5.99284 39.8411 3.98535 37.3647 3.98535C34.8883 3.98535 32.8809 5.99284 32.8809 8.4692C32.8809 10.9456 34.8883 12.9531 37.3647 12.9531Z" fill="#5059C9"/>
<path d="M23.4151 12.9533C26.9921 12.9533 29.8918 10.0536 29.8918 6.47665C29.8918 2.8997 26.9921 0 23.4151 0C19.8382 0 16.9385 2.8997 16.9385 6.47665C16.9385 10.0536 19.8382 12.9533 23.4151 12.9533Z" fill="#7B83EB"/>
<path d="M32.0516 14.9463H13.7836C12.7505 14.9719 11.9333 15.8293 11.9572 16.8624V28.3598C11.8129 34.5597 16.7179 39.7046 22.9175 39.8564C29.1172 39.7046 34.0221 34.5597 33.878 28.3598V16.8624C33.902 15.8293 33.0847 14.9719 32.0516 14.9463Z" fill="#7B83EB"/>
<path opacity="0.1" d="M23.9136 14.9463V31.0581C23.9112 31.4195 23.8021 31.7721 23.6 32.0717C23.3979 32.3713 23.1118 32.6045 22.7777 32.7421C22.5601 32.8342 22.3263 32.8815 22.0901 32.8815H12.8334C12.7038 32.5526 12.5844 32.2238 12.4846 31.8852C12.1358 30.7418 11.9579 29.5532 11.9566 28.3578V16.8594C11.9326 15.828 12.7485 14.9719 13.78 14.9465L23.9136 14.9463Z" fill="black"/>
<path opacity="0.2" d="M22.9167 14.9463V32.0546C22.9167 32.2907 22.8694 32.5245 22.7773 32.7421C22.6397 33.0763 22.4065 33.3624 22.1069 33.5644C21.8073 33.7665 21.4547 33.8756 21.0933 33.878H13.3017C13.1323 33.5491 12.9728 33.2203 12.8334 32.8815C12.6994 32.5559 12.583 32.2233 12.4846 31.8852C12.1358 30.7418 11.9579 29.5532 11.9566 28.3578V16.8594C11.9326 15.828 12.7485 14.9719 13.78 14.9465L22.9167 14.9463Z" fill="black"/>
<path opacity="0.2" d="M22.9169 14.9463V30.0618C22.9094 31.0656 22.0975 31.8777 21.0935 31.8852H12.4846C12.1358 30.7418 11.9579 29.5532 11.9566 28.3578V16.8594C11.9326 15.828 12.7485 14.9719 13.78 14.9465L22.9169 14.9463Z" fill="black"/>
<path opacity="0.2" d="M21.9206 14.9463V30.0618C21.9129 31.0656 21.101 31.8777 20.0972 31.8852H12.4846C12.1358 30.7418 11.9579 29.5532 11.9566 28.3578V16.8594C11.9326 15.828 12.7485 14.9719 13.78 14.9465L21.9206 14.9463Z" fill="black"/>
<path opacity="0.1" d="M23.9136 9.79413V12.9327C23.7443 12.9428 23.5848 12.9528 23.4154 12.9528C23.246 12.9528 23.0865 12.9428 22.9172 12.9327C22.5809 12.9104 22.2473 12.8571 21.9208 12.7734C20.9261 12.5378 20.0013 12.0701 19.222 11.4086C18.4427 10.747 17.831 9.91044 17.437 8.96719C17.2994 8.64586 17.1927 8.31221 17.1182 7.9707H22.0902C23.0956 7.97455 23.9098 8.78861 23.9136 9.79413Z" fill="black"/>
<path opacity="0.2" d="M22.9165 10.791V12.9333C22.5802 12.911 22.2467 12.8576 21.9202 12.774C20.9255 12.5384 20.0007 12.0707 19.2214 11.4091C18.4422 10.7476 17.8305 9.91101 17.4365 8.96777H21.0931C22.0986 8.97146 22.9127 9.78568 22.9165 10.791Z" fill="black"/>
<path opacity="0.2" d="M22.9165 10.791V12.9333C22.5802 12.911 22.2467 12.8576 21.9202 12.774C20.9255 12.5384 20.0007 12.0707 19.2214 11.4091C18.4422 10.7476 17.8305 9.91101 17.4365 8.96777H21.0931C22.0986 8.97146 22.9127 9.78568 22.9165 10.791Z" fill="black"/>
<path opacity="0.2" d="M21.9204 10.7912V12.7741C20.9256 12.5385 20.0008 12.0708 19.2215 11.4093C18.4422 10.7477 17.8305 9.91106 17.4365 8.96777H20.0969C21.1025 8.97162 21.9165 9.78585 21.9204 10.7912Z" fill="black"/>
<path d="M1.82644 8.96794H20.0942C21.1031 8.96794 21.9208 9.78568 21.9208 10.7944V29.0623C21.9208 30.071 21.1031 30.8888 20.0944 30.8888H1.82644C0.817741 30.8888 0 30.071 0 29.0623V10.7946C0 9.78551 0.817741 8.96794 1.82644 8.96794Z" fill="url(#paint0_linear_537_299)"/>
<path d="M15.7675 15.9202H12.1156V25.8643H9.78911V15.9202H6.1543V13.9912H15.7675V15.9202Z" fill="white"/>
</g>
<defs>
<linearGradient id="paint0_linear_537_299" x1="380.809" y1="-133.738" x2="1811.29" y2="2343.76" gradientUnits="userSpaceOnUse">
<stop stop-color="#5A62C3"/>
<stop offset="0.5" stop-color="#4D55BD"/>
<stop offset="1" stop-color="#3940AB"/>
</linearGradient>
<clipPath id="clip0_537_299">
<rect width="42.8452" height="40" fill="white"/>
</clipPath>
</defs>
</svg>
