<svg width="1663" height="692" viewBox="0 0 1663 692" fill="none" xmlns="http://www.w3.org/2000/svg">
<g clip-path="url(#clip0_452_2561)">
<rect x="304.165" y="0.153697" width="226.857" height="357.806" fill="#303030"/>
<rect x="304.165" y="0.153697" width="226.857" height="357.806" stroke="white" stroke-width="0.307394"/>
<g opacity="0.2">
<path opacity="0.4" d="M460.356 199.706L447.047 168.579C444.623 162.881 441.009 159.649 436.884 159.437C432.802 159.224 428.847 162.073 425.828 167.516L417.749 182.016C416.048 185.078 413.624 186.907 410.987 187.119C408.308 187.374 405.63 185.971 403.461 183.207L402.525 182.016C399.506 178.232 395.764 176.403 391.937 176.786C388.11 177.169 384.836 179.805 382.667 184.1L375.311 198.77C372.674 204.086 372.93 210.252 376.034 215.269C379.138 220.287 384.538 223.306 390.449 223.306H444.708C450.406 223.306 455.721 220.457 458.868 215.695C462.1 210.932 462.61 204.936 460.356 199.706Z" fill="#7C7C7C"/>
<path d="M396.361 163.82C404.299 163.82 410.734 157.385 410.734 149.447C410.734 141.509 404.299 135.074 396.361 135.074C388.423 135.074 381.988 141.509 381.988 149.447C381.988 157.385 388.423 163.82 396.361 163.82Z" fill="#7C7C7C"/>
</g>
<rect x="225.32" y="267.742" width="8.60702" height="169.989" rx="4.30351" transform="rotate(90 225.32 267.742)" fill="#7C7C7C"/>
<rect x="18.4453" y="54.4102" width="8.60702" height="169.989" rx="4.30351" fill="#7C7C7C"/>
<mask id="path-8-outside-1_452_2561" maskUnits="userSpaceOnUse" x="54.332" y="63.0195" width="72" height="9" fill="black">
<rect fill="white" x="54.332" y="63.0195" width="72" height="9"/>
<path d="M58.0248 71.0195L55.6763 63.9864H57.2748L59.3281 70.2818H58.5166L60.6684 63.9864H62.1193L64.1727 70.2818H63.398L65.5006 63.9864H67.0007L64.6522 71.0195H62.9923L61.1356 65.4496H61.566L59.697 71.0195H58.0248ZM70.9791 66.8513H74.5449V68.0563H70.9791V66.8513ZM71.1882 69.7777H75.0982V71.0195H69.6389V63.9864H74.963V65.2405H71.1882V69.7777ZM77.9289 71.0195V63.9864H79.4782V69.7654H83.0931V71.0195H77.9289ZM88.6134 71.1425C87.8756 71.1425 87.2157 70.9867 86.6337 70.6753C86.0517 70.3556 85.5927 69.9211 85.2566 69.3719C84.9205 68.8227 84.7525 68.1997 84.7525 67.5029C84.7525 66.8062 84.9205 66.1873 85.2566 65.6463C85.5927 65.0971 86.0517 64.6667 86.6337 64.3552C87.2157 64.0355 87.8756 63.8757 88.6134 63.8757C89.2527 63.8757 89.8101 63.9741 90.2856 64.1708C90.7692 64.3593 91.1791 64.6585 91.5152 65.0684L90.5069 66.0275C90.261 65.7406 89.9823 65.5315 89.6708 65.4004C89.3593 65.261 89.0232 65.1913 88.6625 65.1913C88.2117 65.1913 87.8059 65.2897 87.4453 65.4864C87.0928 65.6832 86.8141 65.9578 86.6092 66.3103C86.4124 66.6545 86.3141 67.0521 86.3141 67.5029C86.3141 67.9538 86.4124 68.3555 86.6092 68.7079C86.8141 69.0604 87.0928 69.335 87.4453 69.5317C87.8059 69.7285 88.2117 69.8268 88.6625 69.8268C89.0232 69.8268 89.3593 69.7572 89.6708 69.6178C89.9823 69.4785 90.261 69.2653 90.5069 68.9784L91.5152 69.9498C91.1791 70.3515 90.7692 70.6507 90.2856 70.8474C89.8019 71.0441 89.2445 71.1425 88.6134 71.1425ZM97.2762 71.1425C96.5303 71.1425 95.8622 70.9867 95.272 70.6753C94.69 70.3556 94.2309 69.9211 93.8949 69.3719C93.5588 68.8227 93.3907 68.1997 93.3907 67.5029C93.3907 66.8062 93.5588 66.1873 93.8949 65.6463C94.2309 65.0971 94.69 64.6667 95.272 64.3552C95.8622 64.0355 96.5262 63.8757 97.2639 63.8757C98.0098 63.8757 98.6738 64.0355 99.2558 64.3552C99.846 64.6667 100.309 65.0971 100.645 65.6463C100.981 66.1873 101.149 66.8062 101.149 67.5029C101.149 68.1997 100.981 68.8227 100.645 69.3719C100.309 69.9211 99.846 70.3556 99.2558 70.6753C98.6738 70.9867 98.0139 71.1425 97.2762 71.1425ZM97.2639 69.8268C97.7147 69.8268 98.1123 69.7285 98.4566 69.5317C98.8091 69.3268 99.0837 69.0481 99.2804 68.6956C99.4771 68.3432 99.5755 67.9456 99.5755 67.5029C99.5755 67.0521 99.473 66.6545 99.2681 66.3103C99.0714 65.9578 98.8009 65.6832 98.4566 65.4864C98.1123 65.2897 97.7188 65.1913 97.2762 65.1913C96.8335 65.1913 96.436 65.2897 96.0835 65.4864C95.731 65.6832 95.4523 65.9578 95.2474 66.3103C95.0507 66.6545 94.9523 67.0521 94.9523 67.5029C94.9523 67.9456 95.0507 68.3432 95.2474 68.6956C95.4523 69.0481 95.731 69.3268 96.0835 69.5317C96.436 69.7285 96.8294 69.8268 97.2639 69.8268ZM103.928 71.0195V63.9864H105.256L108.244 68.9047H107.616L110.555 63.9864H111.883L111.895 71.0195H110.42L110.408 66.3103H110.641L108.256 70.2326H107.555L105.096 66.3103H105.403V71.0195H103.928ZM116.608 66.8513H120.174V68.0563H116.608V66.8513ZM116.817 69.7777H120.727V71.0195H115.268V63.9864H120.592V65.2405H116.817V69.7777ZM123.595 68.4128L123.324 63.9864H125.082L124.812 68.4128H123.595ZM124.209 71.1056C123.898 71.1056 123.652 71.0154 123.472 70.8351C123.299 70.6466 123.213 70.4416 123.213 70.2203C123.213 69.9908 123.299 69.7859 123.472 69.6055C123.652 69.4252 123.898 69.335 124.209 69.335C124.504 69.335 124.738 69.4252 124.91 69.6055C125.091 69.7859 125.181 69.9908 125.181 70.2203C125.181 70.4416 125.091 70.6466 124.91 70.8351C124.738 71.0154 124.504 71.1056 124.209 71.1056Z"/>
</mask>
<path d="M58.0248 71.0195L57.7332 71.1169L57.8034 71.3269H58.0248V71.0195ZM55.6763 63.9864V63.679H55.2496L55.3847 64.0837L55.6763 63.9864ZM57.2748 63.9864L57.567 63.891L57.4978 63.679H57.2748V63.9864ZM59.3281 70.2818V70.5892H59.7517L59.6204 70.1865L59.3281 70.2818ZM58.5166 70.2818L58.2258 70.1824L58.0867 70.5892H58.5166V70.2818ZM60.6684 63.9864V63.679H60.4486L60.3775 63.8869L60.6684 63.9864ZM62.1193 63.9864L62.4115 63.891L62.3424 63.679H62.1193V63.9864ZM64.1727 70.2818V70.5892H64.5963L64.4649 70.1865L64.1727 70.2818ZM63.398 70.2818L63.1065 70.1844L62.9713 70.5892H63.398V70.2818ZM65.5006 63.9864V63.679H65.2792L65.2091 63.889L65.5006 63.9864ZM67.0007 63.9864L67.2923 64.0837L67.4274 63.679H67.0007V63.9864ZM64.6522 71.0195V71.3269H64.8736L64.9438 71.1169L64.6522 71.0195ZM62.9923 71.0195L62.7007 71.1167L62.7707 71.3269H62.9923V71.0195ZM61.1356 65.4496V65.1422H60.7091L60.844 65.5468L61.1356 65.4496ZM61.566 65.4496L61.8574 65.5473L61.9934 65.1422H61.566V65.4496ZM59.697 71.0195V71.3269H59.9181L59.9884 71.1173L59.697 71.0195ZM58.0248 71.0195L58.3164 70.9222L55.9679 63.889L55.6763 63.9864L55.3847 64.0837L57.7332 71.1169L58.0248 71.0195ZM55.6763 63.9864V64.2938H57.2748V63.9864V63.679H55.6763V63.9864ZM57.2748 63.9864L56.9825 64.0817L59.0359 70.3771L59.3281 70.2818L59.6204 70.1865L57.567 63.891L57.2748 63.9864ZM59.3281 70.2818V69.9744H58.5166V70.2818V70.5892H59.3281V70.2818ZM58.5166 70.2818L58.8075 70.3812L60.9593 64.0858L60.6684 63.9864L60.3775 63.8869L58.2258 70.1824L58.5166 70.2818ZM60.6684 63.9864V64.2938H62.1193V63.9864V63.679H60.6684V63.9864ZM62.1193 63.9864L61.827 64.0817L63.8804 70.3771L64.1727 70.2818L64.4649 70.1865L62.4115 63.891L62.1193 63.9864ZM64.1727 70.2818V69.9744H63.398V70.2818V70.5892H64.1727V70.2818ZM63.398 70.2818L63.6896 70.3792L65.7922 64.0837L65.5006 63.9864L65.2091 63.889L63.1065 70.1844L63.398 70.2818ZM65.5006 63.9864V64.2938H67.0007V63.9864V63.679H65.5006V63.9864ZM67.0007 63.9864L66.7091 63.889L64.3606 70.9222L64.6522 71.0195L64.9438 71.1169L67.2923 64.0837L67.0007 63.9864ZM64.6522 71.0195V70.7121H62.9923V71.0195V71.3269H64.6522V71.0195ZM62.9923 71.0195L63.2839 70.9223L61.4272 65.3524L61.1356 65.4496L60.844 65.5468L62.7007 71.1167L62.9923 71.0195ZM61.1356 65.4496V65.757H61.566V65.4496V65.1422H61.1356V65.4496ZM61.566 65.4496L61.2746 65.3518L59.4056 70.9217L59.697 71.0195L59.9884 71.1173L61.8574 65.5473L61.566 65.4496ZM59.697 71.0195V70.7121H58.0248V71.0195V71.3269H59.697V71.0195ZM70.9791 66.8513V66.5439H70.6717V66.8513H70.9791ZM74.5449 66.8513H74.8523V66.5439H74.5449V66.8513ZM74.5449 68.0563V68.3636H74.8523V68.0563H74.5449ZM70.9791 68.0563H70.6717V68.3636H70.9791V68.0563ZM71.1882 69.7777H70.8808V70.0851H71.1882V69.7777ZM75.0982 69.7777H75.4056V69.4703H75.0982V69.7777ZM75.0982 71.0195V71.3269H75.4056V71.0195H75.0982ZM69.6389 71.0195H69.3315V71.3269H69.6389V71.0195ZM69.6389 63.9864V63.679H69.3315V63.9864H69.6389ZM74.963 63.9864H75.2704V63.679H74.963V63.9864ZM74.963 65.2405V65.5479H75.2704V65.2405H74.963ZM71.1882 65.2405V64.9331H70.8808V65.2405H71.1882ZM70.9791 66.8513V67.1587H74.5449V66.8513V66.5439H70.9791V66.8513ZM74.5449 66.8513H74.2375V68.0563H74.5449H74.8523V66.8513H74.5449ZM74.5449 68.0563V67.7489H70.9791V68.0563V68.3636H74.5449V68.0563ZM70.9791 68.0563H71.2865V66.8513H70.9791H70.6717V68.0563H70.9791ZM71.1882 69.7777V70.0851H75.0982V69.7777V69.4703H71.1882V69.7777ZM75.0982 69.7777H74.7908V71.0195H75.0982H75.4056V69.7777H75.0982ZM75.0982 71.0195V70.7121H69.6389V71.0195V71.3269H75.0982V71.0195ZM69.6389 71.0195H69.9463V63.9864H69.6389H69.3315V71.0195H69.6389ZM69.6389 63.9864V64.2938H74.963V63.9864V63.679H69.6389V63.9864ZM74.963 63.9864H74.6556V65.2405H74.963H75.2704V63.9864H74.963ZM74.963 65.2405V64.9331H71.1882V65.2405V65.5479H74.963V65.2405ZM71.1882 65.2405H70.8808V69.7777H71.1882H71.4956V65.2405H71.1882ZM77.9289 71.0195H77.6215V71.3269H77.9289V71.0195ZM77.9289 63.9864V63.679H77.6215V63.9864H77.9289ZM79.4782 63.9864H79.7856V63.679H79.4782V63.9864ZM79.4782 69.7654H79.1708V70.0728H79.4782V69.7654ZM83.0931 69.7654H83.4005V69.458H83.0931V69.7654ZM83.0931 71.0195V71.3269H83.4005V71.0195H83.0931ZM77.9289 71.0195H78.2363V63.9864H77.9289H77.6215V71.0195H77.9289ZM77.9289 63.9864V64.2938H79.4782V63.9864V63.679H77.9289V63.9864ZM79.4782 63.9864H79.1708V69.7654H79.4782H79.7856V63.9864H79.4782ZM79.4782 69.7654V70.0728H83.0931V69.7654V69.458H79.4782V69.7654ZM83.0931 69.7654H82.7857V71.0195H83.0931H83.4005V69.7654H83.0931ZM83.0931 71.0195V70.7121H77.9289V71.0195V71.3269H83.0931V71.0195ZM86.6337 70.6753L86.4857 70.9447L86.4887 70.9463L86.6337 70.6753ZM85.2566 69.3719L84.9944 69.5323L84.9944 69.5323L85.2566 69.3719ZM85.2566 65.6463L85.5177 65.8085L85.5188 65.8067L85.2566 65.6463ZM86.6337 64.3552L86.7788 64.6263L86.7817 64.6247L86.6337 64.3552ZM90.2856 64.1708L90.168 64.4549L90.1739 64.4572L90.2856 64.1708ZM91.5152 65.0684L91.727 65.2911L91.9339 65.0943L91.7529 64.8735L91.5152 65.0684ZM90.5069 66.0275L90.2735 66.2275L90.4842 66.4733L90.7188 66.2502L90.5069 66.0275ZM89.6708 65.4004L89.5452 65.681L89.5515 65.6837L89.6708 65.4004ZM87.4453 65.4864L87.2981 65.2166L87.2954 65.218L87.4453 65.4864ZM86.6092 66.3103L86.3434 66.1558L86.3423 66.1577L86.6092 66.3103ZM86.6092 68.7079L86.3407 68.8578L86.3434 68.8624L86.6092 68.7079ZM87.4453 69.5317L87.2954 69.8002L87.2981 69.8016L87.4453 69.5317ZM89.6708 69.6178L89.7963 69.8984L89.7963 69.8984L89.6708 69.6178ZM90.5069 68.9784L90.7202 68.7571L90.4855 68.531L90.2735 68.7784L90.5069 68.9784ZM91.5152 69.9498L91.7509 70.1471L91.9348 69.9273L91.7284 69.7284L91.5152 69.9498ZM90.2856 70.8474L90.1698 70.5627L90.1698 70.5627L90.2856 70.8474ZM88.6134 71.1425V70.8351C87.9202 70.8351 87.3111 70.6891 86.7788 70.4042L86.6337 70.6753L86.4887 70.9463C87.1204 71.2843 87.8311 71.4499 88.6134 71.4499V71.1425ZM86.6337 70.6753L86.7817 70.4058C86.2451 70.1111 85.8261 69.7135 85.5188 69.2115L85.2566 69.3719L84.9944 69.5323C85.3593 70.1287 85.8584 70.6001 86.4857 70.9447L86.6337 70.6753ZM85.2566 69.3719L85.5188 69.2115C85.2147 68.7145 85.0599 68.1479 85.0599 67.5029H84.7525H84.4451C84.4451 68.2515 84.6264 68.9309 84.9944 69.5323L85.2566 69.3719ZM84.7525 67.5029H85.0599C85.0599 66.8579 85.2147 66.2963 85.5177 65.8085L85.2566 65.6463L84.9955 65.4841C84.6264 66.0783 84.4451 66.7544 84.4451 67.5029H84.7525ZM85.2566 65.6463L85.5188 65.8067C85.8256 65.3054 86.2437 64.9126 86.7788 64.6263L86.6337 64.3552L86.4887 64.0842C85.8598 64.4208 85.3598 64.8888 84.9944 65.4858L85.2566 65.6463ZM86.6337 64.3552L86.7817 64.6247C87.3135 64.3326 87.9215 64.1831 88.6134 64.1831V63.8757V63.5683C87.8297 63.5683 87.118 63.7385 86.4857 64.0858L86.6337 64.3552ZM88.6134 63.8757V64.1831C89.2219 64.1831 89.7377 64.2768 90.168 64.4548L90.2856 64.1708L90.4031 63.8868C89.8826 63.6714 89.2836 63.5683 88.6134 63.5683V63.8757ZM90.2856 64.1708L90.1739 64.4572C90.6073 64.6261 90.9741 64.8934 91.2775 65.2633L91.5152 65.0684L91.7529 64.8735C91.384 64.4237 90.9311 64.0925 90.3972 63.8844L90.2856 64.1708ZM91.5152 65.0684L91.3033 64.8457L90.295 65.8047L90.5069 66.0275L90.7188 66.2502L91.727 65.2911L91.5152 65.0684ZM90.5069 66.0275L90.7403 65.8274C90.467 65.5086 90.1505 65.2688 89.7901 65.1171L89.6708 65.4004L89.5515 65.6837C89.8141 65.7942 90.0549 65.9725 90.2735 66.2275L90.5069 66.0275ZM89.6708 65.4004L89.7963 65.1198C89.4431 64.9618 89.064 64.884 88.6625 64.884V65.1913V65.4987C88.9825 65.4987 89.2755 65.5603 89.5453 65.681L89.6708 65.4004ZM88.6625 65.1913V64.884C88.1654 64.884 87.7082 64.9929 87.2981 65.2166L87.4453 65.4864L87.5925 65.7563C87.9037 65.5865 88.258 65.4987 88.6625 65.4987V65.1913ZM87.4453 65.4864L87.2954 65.218C86.8943 65.4419 86.5758 65.7561 86.3434 66.1558L86.6092 66.3103L86.8749 66.4648C87.0524 66.1595 87.2913 65.9244 87.5951 65.7549L87.4453 65.4864ZM86.6092 66.3103L86.3423 66.1577C86.1155 66.5545 86.0067 67.0061 86.0067 67.5029H86.3141H86.6214C86.6214 67.0981 86.7093 66.7545 86.876 66.4628L86.6092 66.3103ZM86.3141 67.5029H86.0067C86.0067 68 86.1156 68.4543 86.3407 68.8577L86.6092 68.7079L86.8776 68.5581C86.7093 68.2566 86.6214 67.9076 86.6214 67.5029H86.3141ZM86.6092 68.7079L86.3434 68.8624C86.5758 69.2621 86.8943 69.5763 87.2954 69.8002L87.4453 69.5317L87.5951 69.2633C87.2913 69.0938 87.0524 68.8587 86.8749 68.5534L86.6092 68.7079ZM87.4453 69.5317L87.2981 69.8016C87.7082 70.0253 88.1654 70.1342 88.6625 70.1342V69.8268V69.5194C88.258 69.5194 87.9037 69.4316 87.5925 69.2619L87.4453 69.5317ZM88.6625 69.8268V70.1342C89.064 70.1342 89.4431 70.0564 89.7963 69.8984L89.6708 69.6178L89.5453 69.3372C89.2755 69.4579 88.9825 69.5194 88.6625 69.5194V69.8268ZM89.6708 69.6178L89.7963 69.8984C90.1535 69.7386 90.468 69.4961 90.7403 69.1785L90.5069 68.9784L90.2735 68.7784C90.054 69.0345 89.811 69.2183 89.5453 69.3372L89.6708 69.6178ZM90.5069 68.9784L90.2936 69.1998L91.3019 70.1712L91.5152 69.9498L91.7284 69.7284L90.7202 68.7571L90.5069 68.9784ZM91.5152 69.9498L91.2794 69.7525C90.9754 70.1158 90.6067 70.3849 90.1698 70.5627L90.2856 70.8474L90.4014 71.1321C90.9317 70.9164 91.3827 70.5871 91.7509 70.1471L91.5152 69.9498ZM90.2856 70.8474L90.1698 70.5627C89.7297 70.7417 89.2129 70.8351 88.6134 70.8351V71.1425V71.4499C89.2762 71.4499 89.8742 71.3466 90.4014 71.1321L90.2856 70.8474ZM95.272 70.6753L95.124 70.9447L95.1285 70.9471L95.272 70.6753ZM93.8949 69.3719L93.6327 69.5323L93.6327 69.5323L93.8949 69.3719ZM93.8949 65.6463L94.156 65.8085L94.1571 65.8067L93.8949 65.6463ZM95.272 64.3552L95.417 64.6263L95.4184 64.6255L95.272 64.3552ZM99.2558 64.3552L99.1078 64.6247L99.1123 64.6271L99.2558 64.3552ZM100.645 65.6463L100.383 65.8067L100.384 65.8085L100.645 65.6463ZM100.645 69.3719L100.907 69.5323L100.907 69.5323L100.645 69.3719ZM99.2558 70.6753L99.4009 70.9463L99.4022 70.9455L99.2558 70.6753ZM98.4566 69.5317L98.6091 69.7986L98.6111 69.7975L98.4566 69.5317ZM99.2804 68.6956L99.5488 68.8454L99.5488 68.8454L99.2804 68.6956ZM99.2681 66.3103L98.9996 66.4601L99.004 66.4675L99.2681 66.3103ZM98.4566 65.4864L98.3041 65.7533L98.3041 65.7533L98.4566 65.4864ZM96.0835 65.4864L96.2333 65.7549L96.2333 65.7549L96.0835 65.4864ZM95.2474 66.3103L94.9816 66.1558L94.9805 66.1577L95.2474 66.3103ZM95.2474 68.6956L94.9789 68.8455L94.9817 68.8501L95.2474 68.6956ZM96.0835 69.5317L95.929 69.7975L95.9337 69.8002L96.0835 69.5317ZM97.2762 71.1425V70.8351C96.5743 70.8351 95.9564 70.6889 95.4155 70.4034L95.272 70.6753L95.1285 70.9471C95.7679 71.2846 96.4862 71.4499 97.2762 71.4499V71.1425ZM95.272 70.6753L95.42 70.4058C94.8834 70.1111 94.4643 69.7135 94.1571 69.2115L93.8949 69.3719L93.6327 69.5323C93.9976 70.1287 94.4966 70.6001 95.124 70.9447L95.272 70.6753ZM93.8949 69.3719L94.1571 69.2115C93.853 68.7145 93.6981 68.1479 93.6981 67.5029H93.3907H93.0833C93.0833 68.2515 93.2646 68.9309 93.6327 69.5323L93.8949 69.3719ZM93.3907 67.5029H93.6981C93.6981 66.8579 93.853 66.2963 94.156 65.8085L93.8949 65.6463L93.6337 65.4841C93.2646 66.0783 93.0833 66.7544 93.0833 67.5029H93.3907ZM93.8949 65.6463L94.1571 65.8067C94.4639 65.3054 94.8819 64.9126 95.417 64.6263L95.272 64.3552L95.1269 64.0842C94.498 64.4208 93.998 64.8888 93.6327 65.4858L93.8949 65.6463ZM95.272 64.3552L95.4184 64.6255C95.9593 64.3325 96.5721 64.1831 97.2639 64.1831V63.8757V63.5683C96.4802 63.5683 95.7651 63.7386 95.1256 64.0849L95.272 64.3552ZM97.2639 63.8757V64.1831C97.9646 64.1831 98.5765 64.3328 99.1078 64.6247L99.2558 64.3552L99.4038 64.0858C98.7711 63.7383 98.0551 63.5683 97.2639 63.5683V63.8757ZM99.2558 64.3552L99.1123 64.6271C99.6555 64.9138 100.077 65.3064 100.383 65.8067L100.645 65.6463L100.907 65.4858C100.541 64.8877 100.036 64.4197 99.3993 64.0834L99.2558 64.3552ZM100.645 65.6463L100.384 65.8085C100.687 66.2963 100.842 66.8579 100.842 67.5029H101.149H101.457C101.457 66.7544 101.275 66.0783 100.906 65.4841L100.645 65.6463ZM101.149 67.5029H100.842C100.842 68.1479 100.687 68.7145 100.383 69.2115L100.645 69.3719L100.907 69.5323C101.275 68.9309 101.457 68.2515 101.457 67.5029H101.149ZM100.645 69.3719L100.383 69.2115C100.076 69.7125 99.6541 70.1099 99.1094 70.405L99.2558 70.6753L99.4022 70.9455C100.038 70.6012 100.542 70.1297 100.907 69.5323L100.645 69.3719ZM99.2558 70.6753L99.1108 70.4042C98.5784 70.6891 97.9694 70.8351 97.2762 70.8351V71.1425V71.4499C98.0585 71.4499 98.7692 71.2843 99.4009 70.9463L99.2558 70.6753ZM97.2639 69.8268V70.1342C97.7608 70.1342 98.2123 70.0254 98.6091 69.7986L98.4566 69.5317L98.3041 69.2649C98.0123 69.4316 97.6687 69.5194 97.2639 69.5194V69.8268ZM98.4566 69.5317L98.6111 69.7975C99.0107 69.5651 99.3249 69.2466 99.5488 68.8454L99.2804 68.6956L99.012 68.5458C98.8424 68.8496 98.6074 69.0885 98.3021 69.266L98.4566 69.5317ZM99.2804 68.6956L99.5488 68.8454C99.7735 68.4428 99.8829 67.9928 99.8829 67.5029H99.5755H99.2681C99.2681 67.8983 99.1807 68.2435 99.012 68.5458L99.2804 68.6956ZM99.5755 67.5029H99.8829C99.8829 67.0039 99.7689 66.5506 99.5322 66.153L99.2681 66.3103L99.004 66.4675C99.1772 66.7585 99.2681 67.1004 99.2681 67.5029H99.5755ZM99.2681 66.3103L99.5365 66.1604C99.313 65.76 99.0029 65.4446 98.6091 65.2196L98.4566 65.4864L98.3041 65.7533C98.5989 65.9218 98.8297 66.1555 98.9997 66.4601L99.2681 66.3103ZM98.4566 65.4864L98.6091 65.2196C98.2131 64.9933 97.766 64.884 97.2762 64.884V65.1913V65.4987C97.6717 65.4987 98.0115 65.5861 98.3041 65.7533L98.4566 65.4864ZM97.2762 65.1913V64.884C96.7863 64.884 96.3363 64.9933 95.9337 65.218L96.0835 65.4864L96.2333 65.7549C96.5357 65.5861 96.8808 65.4987 97.2762 65.4987V65.1913ZM96.0835 65.4864L95.9337 65.218C95.5325 65.4419 95.214 65.7561 94.9817 66.1558L95.2474 66.3103L95.5131 66.4648C95.6906 66.1595 95.9295 65.9244 96.2333 65.7549L96.0835 65.4864ZM95.2474 66.3103L94.9805 66.1577C94.7538 66.5545 94.6449 67.0061 94.6449 67.5029H94.9523H95.2597C95.2597 67.0981 95.3476 66.7545 95.5143 66.4628L95.2474 66.3103ZM94.9523 67.5029H94.6449C94.6449 67.9928 94.7543 68.4428 94.979 68.8454L95.2474 68.6956L95.5158 68.5458C95.3471 68.2435 95.2597 67.8983 95.2597 67.5029H94.9523ZM95.2474 68.6956L94.9817 68.8501C95.2134 69.2487 95.5304 69.5658 95.929 69.7975L96.0835 69.5317L96.238 69.266C95.9316 69.0879 95.6913 68.8475 95.5131 68.5411L95.2474 68.6956ZM96.0835 69.5317L95.9337 69.8002C96.3354 70.0244 96.7811 70.1342 97.2639 70.1342V69.8268V69.5194C96.8778 69.5194 96.5365 69.4326 96.2333 69.2633L96.0835 69.5317ZM103.928 71.0195H103.62V71.3269H103.928V71.0195ZM103.928 63.9864V63.679H103.62V63.9864H103.928ZM105.256 63.9864L105.518 63.8268L105.429 63.679H105.256V63.9864ZM108.244 68.9047V69.2121H108.79L108.506 68.7451L108.244 68.9047ZM107.616 68.9047L107.353 68.747L107.075 69.2121H107.616V68.9047ZM110.555 63.9864V63.679H110.381L110.291 63.8287L110.555 63.9864ZM111.883 63.9864L112.19 63.9858L112.19 63.679H111.883V63.9864ZM111.895 71.0195V71.3269H112.203L112.203 71.019L111.895 71.0195ZM110.42 71.0195L110.112 71.0203L110.113 71.3269H110.42V71.0195ZM110.408 66.3103V66.0029H110.099L110.1 66.3111L110.408 66.3103ZM110.641 66.3103L110.904 66.47L111.188 66.0029H110.641V66.3103ZM108.256 70.2326V70.54H108.429L108.518 70.3923L108.256 70.2326ZM107.555 70.2326L107.295 70.3959L107.385 70.54H107.555V70.2326ZM105.096 66.3103V66.0029H104.54L104.835 66.4735L105.096 66.3103ZM105.403 66.3103H105.711V66.0029H105.403V66.3103ZM105.403 71.0195V71.3269H105.711V71.0195H105.403ZM103.928 71.0195H104.235V63.9864H103.928H103.62V71.0195H103.928ZM103.928 63.9864V64.2938H105.256V63.9864V63.679H103.928V63.9864ZM105.256 63.9864L104.993 64.146L107.981 69.0643L108.244 68.9047L108.506 68.7451L105.518 63.8268L105.256 63.9864ZM108.244 68.9047V68.5973H107.616V68.9047V69.2121H108.244V68.9047ZM107.616 68.9047L107.88 69.0623L110.819 64.144L110.555 63.9864L110.291 63.8287L107.353 68.747L107.616 68.9047ZM110.555 63.9864V64.2938H111.883V63.9864V63.679H110.555V63.9864ZM111.883 63.9864L111.576 63.9869L111.588 71.0201L111.895 71.0195L112.203 71.019L112.19 63.9858L111.883 63.9864ZM111.895 71.0195V70.7121H110.42V71.0195V71.3269H111.895V71.0195ZM110.42 71.0195L110.727 71.0187L110.715 66.3095L110.408 66.3103L110.1 66.3111L110.112 71.0203L110.42 71.0195ZM110.408 66.3103V66.6177H110.641V66.3103V66.0029H110.408V66.3103ZM110.641 66.3103L110.379 66.1505L107.993 70.0729L108.256 70.2326L108.518 70.3923L110.904 66.47L110.641 66.3103ZM108.256 70.2326V69.9252H107.555V70.2326V70.54H108.256V70.2326ZM107.555 70.2326L107.815 70.0693L105.356 66.147L105.096 66.3103L104.835 66.4735L107.295 70.3959L107.555 70.2326ZM105.096 66.3103V66.6177H105.403V66.3103V66.0029H105.096V66.3103ZM105.403 66.3103H105.096V71.0195H105.403H105.711V66.3103H105.403ZM105.403 71.0195V70.7121H103.928V71.0195V71.3269H105.403V71.0195ZM116.608 66.8513V66.5439H116.301V66.8513H116.608ZM120.174 66.8513H120.481V66.5439H120.174V66.8513ZM120.174 68.0563V68.3636H120.481V68.0563H120.174ZM116.608 68.0563H116.301V68.3636H116.608V68.0563ZM116.817 69.7777H116.51V70.0851H116.817V69.7777ZM120.727 69.7777H121.034V69.4703H120.727V69.7777ZM120.727 71.0195V71.3269H121.034V71.0195H120.727ZM115.268 71.0195H114.96V71.3269H115.268V71.0195ZM115.268 63.9864V63.679H114.96V63.9864H115.268ZM120.592 63.9864H120.899V63.679H120.592V63.9864ZM120.592 65.2405V65.5479H120.899V65.2405H120.592ZM116.817 65.2405V64.9331H116.51V65.2405H116.817ZM116.608 66.8513V67.1587H120.174V66.8513V66.5439H116.608V66.8513ZM120.174 66.8513H119.866V68.0563H120.174H120.481V66.8513H120.174ZM120.174 68.0563V67.7489H116.608V68.0563V68.3636H120.174V68.0563ZM116.608 68.0563H116.915V66.8513H116.608H116.301V68.0563H116.608ZM116.817 69.7777V70.0851H120.727V69.7777V69.4703H116.817V69.7777ZM120.727 69.7777H120.42V71.0195H120.727H121.034V69.7777H120.727ZM120.727 71.0195V70.7121H115.268V71.0195V71.3269H120.727V71.0195ZM115.268 71.0195H115.575V63.9864H115.268H114.96V71.0195H115.268ZM115.268 63.9864V64.2938H120.592V63.9864V63.679H115.268V63.9864ZM120.592 63.9864H120.284V65.2405H120.592H120.899V63.9864H120.592ZM120.592 65.2405V64.9331H116.817V65.2405V65.5479H120.592V65.2405ZM116.817 65.2405H116.51V69.7777H116.817H117.124V65.2405H116.817ZM123.595 68.4128L123.288 68.4316L123.305 68.7202H123.595V68.4128ZM123.324 63.9864V63.679H122.997L123.017 64.0051L123.324 63.9864ZM125.082 63.9864L125.389 64.0051L125.409 63.679H125.082V63.9864ZM124.812 68.4128V68.7202H125.101L125.119 68.4316L124.812 68.4128ZM123.472 70.8351L123.244 71.0426L123.254 71.0525L123.472 70.8351ZM123.472 69.6055L123.254 69.3881L123.249 69.3933L123.472 69.6055ZM124.91 69.6055L124.688 69.8178L124.693 69.8229L124.91 69.6055ZM124.91 70.8351L124.688 70.6226L124.688 70.6228L124.91 70.8351ZM123.595 68.4128L123.901 68.3941L123.631 63.9676L123.324 63.9864L123.017 64.0051L123.288 68.4316L123.595 68.4128ZM123.324 63.9864V64.2938H125.082V63.9864V63.679H123.324V63.9864ZM125.082 63.9864L124.776 63.9676L124.505 68.3941L124.812 68.4128L125.119 68.4316L125.389 64.0051L125.082 63.9864ZM124.812 68.4128V68.1054H123.595V68.4128V68.7202H124.812V68.4128ZM124.209 71.1056V70.7982C123.96 70.7982 123.799 70.7281 123.689 70.6177L123.472 70.8351L123.254 71.0525C123.505 71.3027 123.836 71.413 124.209 71.413V71.1056ZM123.472 70.8351L123.699 70.6278C123.57 70.4866 123.521 70.3532 123.521 70.2203H123.213H122.906C122.906 70.53 123.029 70.8065 123.245 71.0424L123.472 70.8351ZM123.213 70.2203H123.521C123.521 70.077 123.571 69.9463 123.694 69.8178L123.472 69.6055L123.249 69.3933C123.028 69.6254 122.906 69.9046 122.906 70.2203H123.213ZM123.472 69.6055L123.689 69.8229C123.799 69.7125 123.96 69.6424 124.209 69.6424V69.335V69.0276C123.836 69.0276 123.505 69.1379 123.254 69.3882L123.472 69.6055ZM124.209 69.335V69.6424C124.437 69.6424 124.584 69.7093 124.688 69.8178L124.91 69.6055L125.133 69.3933C124.892 69.1411 124.572 69.0276 124.209 69.0276V69.335ZM124.91 69.6055L124.693 69.8229C124.823 69.9526 124.873 70.0817 124.873 70.2203H125.181H125.488C125.488 69.8998 125.359 69.6191 125.128 69.3882L124.91 69.6055ZM125.181 70.2203H124.873C124.873 70.3485 124.824 70.4804 124.688 70.6226L124.91 70.8351L125.132 71.0476C125.357 70.8128 125.488 70.5347 125.488 70.2203H125.181ZM124.91 70.8351L124.688 70.6228C124.584 70.7313 124.437 70.7982 124.209 70.7982V71.1056V71.413C124.572 71.413 124.892 71.2996 125.133 71.0473L124.91 70.8351Z" fill="white" mask="url(#path-8-outside-1_452_2561)"/>
<rect x="55.332" y="124.34" width="100.21" height="47.9534" rx="6.14787" fill="#A3A3A3"/>
<rect x="55.332" y="176.289" width="226.857" height="23.9767" rx="6.14787" fill="#7C7C7C"/>
<rect x="55.332" y="212.562" width="226.857" height="9.22181" rx="4.61091" fill="#7C7C7C"/>
<rect x="55.332" y="224.859" width="226.857" height="9.22181" rx="4.61091" fill="#7C7C7C"/>
<rect x="0.153697" y="0.153697" width="530.869" height="33.9603" fill="white" fill-opacity="0.33"/>
<rect x="0.153697" y="0.153697" width="530.869" height="33.9603" stroke="white" stroke-width="0.307394"/>
<rect x="55.332" y="5.83984" width="26.7433" height="22.7471" rx="6.14787" fill="#A3A3A3"/>
<rect x="249.605" y="14.6016" width="21.825" height="5.22569" rx="2.61285" fill="#A3A3A3"/>
<rect x="290.488" y="14.6016" width="21.825" height="5.22569" rx="2.61285" fill="#A3A3A3"/>
<rect x="331.371" y="14.6016" width="21.825" height="5.22569" rx="2.61285" fill="#A3A3A3"/>
<rect x="372.254" y="14.6016" width="21.825" height="5.22569" rx="2.61285" fill="#A3A3A3"/>
<rect x="413.141" y="14.6016" width="21.825" height="5.22569" rx="2.61285" fill="#A3A3A3"/>
<rect x="454.023" y="14.6016" width="21.825" height="5.22569" rx="2.61285" fill="#A3A3A3"/>
</g>
<rect x="0.153697" y="0.153697" width="530.869" height="357.806" stroke="white" stroke-width="0.307394"/>
<rect x="0.153697" y="358.267" width="530.869" height="321.841" stroke="white" stroke-width="0.307394"/>
<rect x="55.9402" y="421.28" width="163.547" height="177.679" fill="#303030"/>
<rect x="55.9402" y="421.28" width="163.547" height="177.679" stroke="white" stroke-width="0.614787"/>
<g opacity="0.2">
<path opacity="0.4" d="M180.321 530.765L167.012 499.638C164.588 493.94 160.973 490.708 156.849 490.495C152.766 490.283 148.812 493.132 145.793 498.575L137.713 513.075C136.012 516.137 133.589 517.965 130.952 518.178C128.273 518.433 125.594 517.03 123.426 514.266L122.49 513.075C119.471 509.291 115.729 507.462 111.902 507.845C108.075 508.227 104.801 510.864 102.632 515.159L95.2756 529.829C92.6392 535.144 92.8944 541.31 95.9985 546.328C99.1027 551.346 104.503 554.365 110.414 554.365H164.673C170.371 554.365 175.686 551.516 178.833 546.753C182.065 541.991 182.575 535.995 180.321 530.765Z" fill="#7C7C7C"/>
<path d="M116.326 494.878C124.264 494.878 130.699 488.443 130.699 480.506C130.699 472.568 124.264 466.133 116.326 466.133C108.388 466.133 101.953 472.568 101.953 480.506C101.953 488.443 108.388 494.878 116.326 494.878Z" fill="#7C7C7C"/>
</g>
<g opacity="0.2" clip-path="url(#clip1_452_2561)">
<rect x="282.801" y="415.598" width="157.693" height="11.0662" rx="5.53309" fill="white"/>
</g>
<g opacity="0.2" clip-path="url(#clip2_452_2561)">
<rect x="282.801" y="437.73" width="199.191" height="6.14787" rx="3.07394" fill="#E8E8E8"/>
<rect x="282.801" y="451.453" width="199.191" height="6.14787" rx="3.07394" fill="#E8E8E8"/>
<rect x="282.801" y="465.172" width="199.191" height="6.14787" rx="3.07394" fill="#E8E8E8"/>
<rect x="282.801" y="478.895" width="199.191" height="6.14787" rx="3.07394" fill="#E8E8E8"/>
<rect x="282.801" y="492.613" width="82.0741" height="6.14787" rx="3.07394" fill="#E8E8E8"/>
<rect x="282.801" y="506.336" width="199.191" height="6.14787" rx="3.07394" fill="#E8E8E8"/>
<rect x="282.801" y="520.055" width="199.191" height="6.14787" rx="3.07394" fill="#E8E8E8"/>
<rect x="282.801" y="533.777" width="199.191" height="6.14787" rx="3.07394" fill="#E8E8E8"/>
<rect x="282.801" y="547.496" width="199.191" height="6.14787" rx="3.07394" fill="#E8E8E8"/>
<rect x="282.801" y="561.219" width="38.7316" height="6.14787" rx="3.07394" fill="#E8E8E8"/>
<rect x="282.801" y="574.941" width="199.191" height="6.14787" rx="3.07394" fill="#E8E8E8"/>
<rect x="282.801" y="588.66" width="17.5214" height="6.14787" rx="3.07394" fill="#E8E8E8"/>
</g>
<rect width="59.9418" height="19.3658" transform="translate(282.801 604.645)" fill="#DBDBDB"/>
<g opacity="0.2" clip-path="url(#clip3_452_2561)">
<rect x="292.023" y="611.254" width="41.4981" height="6.14787" rx="3.07394" fill="#14332D"/>
</g>
<g clip-path="url(#clip4_452_2561)">
<rect x="566.064" y="34.2748" width="530.869" height="652.597" stroke="white" stroke-width="0.307394"/>
<g clip-path="url(#clip5_452_2561)">
<path d="M754.04 178.238V143.875H760.422V172.838H778.39V178.238H754.04ZM803.816 178.729C801.132 178.729 798.661 178.287 796.403 177.404C794.145 176.52 792.181 175.293 790.512 173.722C788.843 172.118 787.55 170.253 786.634 168.126C785.717 165.966 785.259 163.609 785.259 161.056C785.259 158.504 785.717 156.164 786.634 154.036C787.55 151.876 788.843 150.011 790.512 148.44C792.181 146.836 794.145 145.593 796.403 144.709C798.661 143.825 801.116 143.384 803.767 143.384C806.45 143.384 808.905 143.825 811.13 144.709C813.388 145.593 815.352 146.836 817.021 148.44C818.69 150.011 819.983 151.876 820.899 154.036C821.816 156.164 822.274 158.504 822.274 161.056C822.274 163.609 821.816 165.966 820.899 168.126C819.983 170.286 818.69 172.151 817.021 173.722C815.352 175.293 813.388 176.52 811.13 177.404C808.905 178.287 806.467 178.729 803.816 178.729ZM803.767 173.133C805.501 173.133 807.105 172.838 808.577 172.249C810.05 171.66 811.327 170.826 812.407 169.746C813.487 168.633 814.321 167.356 814.91 165.916C815.532 164.444 815.843 162.824 815.843 161.056C815.843 159.289 815.532 157.685 814.91 156.245C814.321 154.773 813.487 153.496 812.407 152.416C811.327 151.304 810.05 150.453 808.577 149.864C807.105 149.275 805.501 148.98 803.767 148.98C802.032 148.98 800.428 149.275 798.956 149.864C797.516 150.453 796.239 151.304 795.126 152.416C794.046 153.496 793.196 154.773 792.574 156.245C791.985 157.685 791.69 159.289 791.69 161.056C791.69 162.791 791.985 164.395 792.574 165.867C793.196 167.34 794.046 168.633 795.126 169.746C796.206 170.826 797.483 171.66 798.956 172.249C800.428 172.838 802.032 173.133 803.767 173.133ZM850 178.729C847.317 178.729 844.846 178.304 842.588 177.453C840.362 176.569 838.415 175.342 836.746 173.771C835.077 172.167 833.784 170.286 832.868 168.126C831.951 165.966 831.493 163.609 831.493 161.056C831.493 158.504 831.951 156.147 832.868 153.987C833.784 151.827 835.077 149.962 836.746 148.391C838.448 146.787 840.428 145.56 842.686 144.709C844.944 143.825 847.415 143.384 850.099 143.384C853.011 143.384 855.629 143.858 857.953 144.807C860.309 145.756 862.289 147.147 863.893 148.98L859.868 152.907C858.526 151.565 857.069 150.584 855.499 149.962C853.96 149.307 852.259 148.98 850.393 148.98C848.593 148.98 846.924 149.275 845.386 149.864C843.848 150.453 842.522 151.287 841.409 152.367C840.297 153.447 839.429 154.724 838.808 156.196C838.218 157.669 837.924 159.289 837.924 161.056C837.924 162.791 838.218 164.395 838.808 165.867C839.429 167.34 840.297 168.633 841.409 169.746C842.522 170.826 843.831 171.66 845.337 172.249C846.842 172.838 848.511 173.133 850.344 173.133C852.046 173.133 853.682 172.871 855.253 172.347C856.857 171.791 858.379 170.875 859.819 169.598L863.451 174.36C861.651 175.8 859.557 176.896 857.168 177.649C854.811 178.369 852.422 178.729 850 178.729ZM857.413 173.526V160.664H863.451V174.36L857.413 173.526ZM892.879 178.729C890.196 178.729 887.725 178.287 885.467 177.404C883.209 176.52 881.245 175.293 879.576 173.722C877.907 172.118 876.614 170.253 875.698 168.126C874.781 165.966 874.323 163.609 874.323 161.056C874.323 158.504 874.781 156.164 875.698 154.036C876.614 151.876 877.907 150.011 879.576 148.44C881.245 146.836 883.209 145.593 885.467 144.709C887.725 143.825 890.179 143.384 892.83 143.384C895.514 143.384 897.969 143.825 900.194 144.709C902.452 145.593 904.416 146.836 906.085 148.44C907.754 150.011 909.047 151.876 909.963 154.036C910.88 156.164 911.338 158.504 911.338 161.056C911.338 163.609 910.88 165.966 909.963 168.126C909.047 170.286 907.754 172.151 906.085 173.722C904.416 175.293 902.452 176.52 900.194 177.404C897.969 178.287 895.53 178.729 892.879 178.729ZM892.83 173.133C894.565 173.133 896.169 172.838 897.641 172.249C899.114 171.66 900.39 170.826 901.47 169.746C902.55 168.633 903.385 167.356 903.974 165.916C904.596 164.444 904.907 162.824 904.907 161.056C904.907 159.289 904.596 157.685 903.974 156.245C903.385 154.773 902.55 153.496 901.47 152.416C900.39 151.304 899.114 150.453 897.641 149.864C896.169 149.275 894.565 148.98 892.83 148.98C891.096 148.98 889.492 149.275 888.019 149.864C886.579 150.453 885.303 151.304 884.19 152.416C883.11 153.496 882.259 154.773 881.638 156.245C881.049 157.685 880.754 159.289 880.754 161.056C880.754 162.791 881.049 164.395 881.638 165.867C882.259 167.34 883.11 168.633 884.19 169.746C885.27 170.826 886.547 171.66 888.019 172.249C889.492 172.838 891.096 173.133 892.83 173.133Z" fill="#262626"/>
<rect x="975.977" y="204.113" width="65.7823" height="11.0662" rx="5.53309" fill="#A3A3A3"/>
<rect x="722.684" y="225.016" width="319.075" height="10.7588" rx="5.37939" fill="#7C7C7C"/>
<rect x="722.684" y="245.613" width="319.075" height="10.7588" rx="5.37939" fill="#7C7C7C"/>
<rect x="566.064" y="34.2748" width="530.869" height="71.6227" stroke="white" stroke-width="0.307394"/>
<rect x="621.55" y="61.784" width="92.8329" height="92.8329" rx="46.4165" fill="#1E1E1E"/>
<rect x="621.55" y="61.784" width="92.8329" height="92.8329" rx="46.4165" stroke="white" stroke-width="0.614787"/>
<g opacity="0.2">
<path opacity="0.4" d="M691.865 119.562L684.449 102.311C683.098 99.1533 681.084 97.3623 678.786 97.2444C676.511 97.1266 674.308 98.7056 672.625 101.722L668.123 109.758C667.175 111.455 665.825 112.469 664.356 112.586C662.863 112.728 661.37 111.95 660.162 110.418L659.64 109.758C657.958 107.661 655.873 106.648 653.74 106.86C651.608 107.072 649.783 108.533 648.575 110.913L644.476 119.044C643.007 121.99 643.149 125.407 644.878 128.188C646.608 130.969 649.617 132.642 652.911 132.642H683.146C686.321 132.642 689.283 131.063 691.036 128.423C692.837 125.784 693.121 122.461 691.865 119.562Z" fill="#7C7C7C"/>
<path d="M656.204 99.6734C660.627 99.6734 664.213 96.1071 664.213 91.7078C664.213 87.3085 660.627 83.7422 656.204 83.7422C651.781 83.7422 648.195 87.3085 648.195 91.7078C648.195 96.1071 651.781 99.6734 656.204 99.6734Z" fill="#7C7C7C"/>
</g>
</g>
<rect x="566.064" y="294.638" width="530.869" height="392.234" stroke="white" stroke-width="0.307394"/>
<g opacity="0.2" clip-path="url(#clip6_452_2561)">
<rect x="621.242" y="348.434" width="157.693" height="11.0662" rx="5.53309" fill="white"/>
</g>
<g opacity="0.2" clip-path="url(#clip7_452_2561)">
<rect x="621.242" y="370.566" width="199.191" height="6.14787" rx="3.07394" fill="#E8E8E8"/>
<rect x="621.242" y="386.902" width="199.191" height="6.14787" rx="3.07394" fill="#E8E8E8"/>
<rect x="621.242" y="403.238" width="199.191" height="6.14787" rx="3.07394" fill="#E8E8E8"/>
<rect x="621.242" y="419.574" width="199.191" height="6.14787" rx="3.07394" fill="#E8E8E8"/>
<rect x="621.242" y="435.91" width="82.0741" height="6.14787" rx="3.07394" fill="#E8E8E8"/>
<rect x="621.242" y="452.246" width="199.191" height="6.14787" rx="3.07394" fill="#E8E8E8"/>
<rect x="621.242" y="468.582" width="199.191" height="6.14787" rx="3.07394" fill="#E8E8E8"/>
<rect x="621.242" y="484.918" width="17.5214" height="6.14787" rx="3.07394" fill="#E8E8E8"/>
</g>
<rect x="854.245" y="325.53" width="187.203" height="187.203" fill="#303030"/>
<rect x="854.245" y="325.53" width="187.203" height="187.203" stroke="white" stroke-width="0.614787"/>
<g opacity="0.2">
<path opacity="0.4" d="M990.61 439.936L977.301 408.81C974.877 403.112 971.262 399.88 967.138 399.667C963.056 399.455 959.101 402.304 956.082 407.747L948.002 422.247C946.302 425.309 943.878 427.137 941.241 427.35C938.562 427.605 935.883 426.202 933.715 423.438L932.779 422.247C929.76 418.462 926.018 416.634 922.191 417.017C918.364 417.399 915.09 420.036 912.921 424.331L905.565 439.001C902.928 444.316 903.183 450.482 906.288 455.5C909.392 460.517 914.792 463.537 920.703 463.537H974.962C980.66 463.537 985.975 460.688 989.122 455.925C992.354 451.162 992.864 445.167 990.61 439.936Z" fill="#7C7C7C"/>
<path d="M926.615 404.05C934.553 404.05 940.988 397.615 940.988 389.677C940.988 381.74 934.553 375.305 926.615 375.305C918.677 375.305 912.242 381.74 912.242 389.677C912.242 397.615 918.677 404.05 926.615 404.05Z" fill="#7C7C7C"/>
</g>
<g opacity="0.2" clip-path="url(#clip8_452_2561)">
<rect x="621.242" y="545.012" width="157.693" height="11.0662" rx="5.53309" fill="white"/>
</g>
<g opacity="0.2" clip-path="url(#clip9_452_2561)">
<rect x="621.242" y="567.145" width="412.83" height="6.14787" rx="3.07394" fill="#E8E8E8"/>
<rect x="621.242" y="582.516" width="412.83" height="6.14787" rx="3.07394" fill="#E8E8E8"/>
<rect x="621.242" y="597.883" width="357.499" height="6.14787" rx="3.07394" fill="#E8E8E8"/>
<rect x="621.242" y="613.254" width="412.83" height="6.14787" rx="3.07394" fill="#E8E8E8"/>
<rect x="621.242" y="628.625" width="274.503" height="6.14787" rx="3.07394" fill="#E8E8E8"/>
</g>
<rect x="566.064" y="0.153697" width="530.869" height="33.9603" fill="white" fill-opacity="0.33"/>
<rect x="566.064" y="0.153697" width="530.869" height="33.9603" stroke="white" stroke-width="0.307394"/>
<rect x="621.242" y="5.83984" width="26.7433" height="22.7471" rx="6.14787" fill="#A3A3A3"/>
<rect x="815.516" y="14.6016" width="21.825" height="5.22569" rx="2.61285" fill="#A3A3A3"/>
<rect x="856.398" y="14.6016" width="21.825" height="5.22569" rx="2.61285" fill="#A3A3A3"/>
<rect x="897.281" y="14.6016" width="21.825" height="5.22569" rx="2.61285" fill="#A3A3A3"/>
<rect x="938.164" y="14.6016" width="21.825" height="5.22569" rx="2.61285" fill="#A3A3A3"/>
<rect x="979.051" y="14.6016" width="21.825" height="5.22569" rx="2.61285" fill="#A3A3A3"/>
<rect x="1019.93" y="14.6016" width="21.825" height="5.22569" rx="2.61285" fill="#A3A3A3"/>
</g>
<g clip-path="url(#clip10_452_2561)">
<rect x="1131.98" y="0.153697" width="265.281" height="232.697" stroke="white" stroke-width="0.307394"/>
<g opacity="0.2" clip-path="url(#clip11_452_2561)">
<rect x="1177.93" y="39.1875" width="137.251" height="9.63167" rx="4.81583" fill="white"/>
</g>
<g opacity="0.2" clip-path="url(#clip12_452_2561)">
<rect x="1177.93" y="58.4492" width="173.37" height="5.35093" rx="2.67546" fill="#E8E8E8"/>
<rect x="1177.93" y="70.3906" width="173.37" height="5.35093" rx="2.67546" fill="#E8E8E8"/>
<rect x="1177.93" y="82.332" width="173.37" height="5.35093" rx="2.67546" fill="#E8E8E8"/>
<rect x="1177.93" y="94.2773" width="173.37" height="5.35093" rx="2.67546" fill="#E8E8E8"/>
<rect x="1177.93" y="106.219" width="71.4349" height="5.35093" rx="2.67546" fill="#E8E8E8"/>
<rect x="1177.93" y="118.16" width="173.37" height="5.35093" rx="2.67546" fill="#E8E8E8"/>
<rect x="1177.93" y="130.102" width="173.37" height="5.35093" rx="2.67546" fill="#E8E8E8"/>
<rect x="1177.93" y="142.047" width="173.37" height="5.35093" rx="2.67546" fill="#E8E8E8"/>
<rect x="1177.93" y="153.988" width="173.37" height="5.35093" rx="2.67546" fill="#E8E8E8"/>
<rect x="1177.93" y="165.93" width="33.7108" height="5.35093" rx="2.67546" fill="#E8E8E8"/>
<rect x="1177.93" y="177.871" width="173.37" height="5.35093" rx="2.67546" fill="#E8E8E8"/>
<rect x="1177.93" y="189.816" width="15.2501" height="5.35093" rx="2.67546" fill="#E8E8E8"/>
</g>
<rect x="1397.72" y="0.307394" width="264.973" height="232.39" fill="#303030"/>
<rect x="1397.72" y="0.307394" width="264.973" height="232.39" stroke="white" stroke-width="0.614787"/>
<g opacity="0.2">
<path opacity="0.4" d="M1572.82 137.155L1559.51 106.028C1557.09 100.33 1553.47 97.0987 1549.35 96.8861C1545.27 96.6735 1541.31 99.5225 1538.29 104.965L1530.21 119.466C1528.51 122.527 1526.09 124.356 1523.45 124.568C1520.77 124.824 1518.09 123.42 1515.93 120.656L1514.99 119.466C1511.97 115.681 1508.23 113.853 1504.4 114.235C1500.58 114.618 1497.3 117.255 1495.13 121.549L1487.78 136.22C1485.14 141.535 1485.39 147.701 1488.5 152.719C1491.6 157.736 1497 160.755 1502.91 160.755H1557.17C1562.87 160.755 1568.19 157.906 1571.33 153.144C1574.56 148.381 1575.07 142.385 1572.82 137.155Z" fill="#7C7C7C"/>
<path d="M1508.83 101.269C1516.76 101.269 1523.2 94.834 1523.2 86.8961C1523.2 78.9583 1516.76 72.5234 1508.83 72.5234C1500.89 72.5234 1494.45 78.9583 1494.45 86.8961C1494.45 94.834 1500.89 101.269 1508.83 101.269Z" fill="#7C7C7C"/>
</g>
</g>
<g clip-path="url(#clip13_452_2561)">
<rect x="1132.13" y="233.311" width="264.973" height="232.082" fill="#303030"/>
<rect x="1132.13" y="233.311" width="264.973" height="232.082" stroke="white" stroke-width="0.614787"/>
<g opacity="0.2">
<path opacity="0.4" d="M1307.23 370.159L1293.92 339.032C1291.5 333.334 1287.88 330.103 1283.76 329.89C1279.68 329.677 1275.72 332.526 1272.7 337.969L1264.62 352.47C1262.92 355.531 1260.5 357.36 1257.86 357.572C1255.18 357.827 1252.5 356.424 1250.34 353.66L1249.4 352.47C1246.38 348.685 1242.64 346.857 1238.81 347.239C1234.99 347.622 1231.71 350.258 1229.54 354.553L1222.19 369.224C1219.55 374.539 1219.8 380.705 1222.91 385.722C1226.01 390.74 1231.41 393.759 1237.32 393.759H1291.58C1297.28 393.759 1302.6 390.91 1305.74 386.148C1308.97 381.385 1309.49 375.389 1307.23 370.159Z" fill="#7C7C7C"/>
<path d="M1243.24 334.273C1251.17 334.273 1257.61 327.838 1257.61 319.9C1257.61 311.962 1251.17 305.527 1243.24 305.527C1235.3 305.527 1228.86 311.962 1228.86 319.9C1228.86 327.838 1235.3 334.273 1243.24 334.273Z" fill="#7C7C7C"/>
</g>
<rect x="1397.57" y="233.158" width="265.281" height="232.39" stroke="white" stroke-width="0.307394"/>
<g opacity="0.2" clip-path="url(#clip14_452_2561)">
<rect x="1446.91" y="262.621" width="131.898" height="9.25597" rx="4.62798" fill="white"/>
</g>
<g opacity="0.2" clip-path="url(#clip15_452_2561)">
<rect x="1446.91" y="281.133" width="166.607" height="5.1422" rx="2.5711" fill="#E8E8E8"/>
<rect x="1446.91" y="292.609" width="166.607" height="5.1422" rx="2.5711" fill="#E8E8E8"/>
<rect x="1446.91" y="304.086" width="166.607" height="5.1422" rx="2.5711" fill="#E8E8E8"/>
<rect x="1446.91" y="315.562" width="166.607" height="5.1422" rx="2.5711" fill="#E8E8E8"/>
<rect x="1446.91" y="327.039" width="68.6484" height="5.1422" rx="2.5711" fill="#E8E8E8"/>
<rect x="1446.91" y="338.516" width="166.607" height="5.1422" rx="2.5711" fill="#E8E8E8"/>
<rect x="1446.91" y="349.992" width="166.607" height="5.1422" rx="2.5711" fill="#E8E8E8"/>
<rect x="1446.91" y="361.469" width="166.607" height="5.1422" rx="2.5711" fill="#E8E8E8"/>
<rect x="1446.91" y="372.945" width="166.607" height="5.1422" rx="2.5711" fill="#E8E8E8"/>
<rect x="1446.91" y="384.422" width="32.3959" height="5.1422" rx="2.5711" fill="#E8E8E8"/>
<rect x="1446.91" y="395.898" width="166.607" height="5.1422" rx="2.5711" fill="#E8E8E8"/>
<rect x="1446.91" y="407.375" width="14.6553" height="5.1422" rx="2.5711" fill="#E8E8E8"/>
</g>
<rect width="50.1365" height="16.1979" transform="translate(1446.91 420.746)" fill="#DBDBDB"/>
<g opacity="0.2" clip-path="url(#clip16_452_2561)">
<rect x="1454.62" y="426.273" width="34.7099" height="5.1422" rx="2.5711" fill="#14332D"/>
</g>
</g>
<rect x="1131.98" y="465.857" width="530.869" height="225.012" stroke="white" stroke-width="0.307394"/>
<rect x="1187.15" y="620.629" width="9.8366" height="9.8366" fill="#7C7C7C"/>
<rect x="1209.29" y="620.629" width="9.8366" height="9.8366" fill="#7C7C7C"/>
<rect x="1231.42" y="620.629" width="9.8366" height="9.8366" fill="#7C7C7C"/>
<rect x="1253.55" y="620.629" width="9.8366" height="9.8366" fill="#7C7C7C"/>
<rect x="1275.68" y="620.629" width="9.8366" height="9.8366" fill="#7C7C7C"/>
<rect x="1184.08" y="490.293" width="79.9224" height="67.0118" fill="#B3B3B3"/>
<g opacity="0.2" clip-path="url(#clip17_452_2561)">
<rect x="1333.17" y="491.062" width="44.5721" height="7.37745" rx="3.68872" fill="#A3A3A3"/>
</g>
<g opacity="0.2" clip-path="url(#clip18_452_2561)">
<rect x="1333.17" y="512.73" width="19.3658" height="6.14787" rx="3.07394" fill="#7C7C7C"/>
</g>
<g opacity="0.2" clip-path="url(#clip19_452_2561)">
<rect x="1333.17" y="526.254" width="30.432" height="6.14787" rx="3.07394" fill="#7C7C7C"/>
</g>
<g opacity="0.2" clip-path="url(#clip20_452_2561)">
<rect x="1333.17" y="539.781" width="35.6577" height="6.14787" rx="3.07394" fill="#7C7C7C"/>
</g>
<g opacity="0.2" clip-path="url(#clip21_452_2561)">
<rect x="1333.17" y="553.305" width="25.2063" height="6.14787" rx="3.07394" fill="#7C7C7C"/>
</g>
<g opacity="0.2" clip-path="url(#clip22_452_2561)">
<rect x="1446.9" y="491.062" width="41.4981" height="7.37745" rx="3.68872" fill="#A3A3A3"/>
</g>
<g opacity="0.2" clip-path="url(#clip23_452_2561)">
<rect x="1447.21" y="511.812" width="160.46" height="6.14787" rx="3.07394" fill="#A3A3A3"/>
<rect x="1447.21" y="520.418" width="70.7006" height="6.14787" rx="3.07394" fill="#A3A3A3"/>
</g>
<rect x="1447.06" y="542.091" width="160.46" height="21.825" stroke="#E2E2E2" stroke-width="0.307394"/>
<g opacity="0.2" clip-path="url(#clip24_452_2561)">
<rect x="1454.28" y="549.93" width="76.8484" height="6.14787" rx="3.07394" fill="#A3A3A3"/>
</g>
<rect x="1549.11" y="576.517" width="58.4048" height="21.825" stroke="white" stroke-width="0.307394"/>
<g opacity="0.2" clip-path="url(#clip25_452_2561)">
<rect x="1561.25" y="584.355" width="31.6616" height="6.14787" rx="3.07394" fill="#297A53"/>
</g>
<g opacity="0.2" clip-path="url(#clip26_452_2561)">
<rect x="1321.48" y="671.961" width="152.16" height="6.14787" rx="3.07394" fill="#297A53"/>
</g>
<defs>
<clipPath id="clip0_452_2561">
<rect width="531.176" height="358.114" fill="white"/>
</clipPath>
<clipPath id="clip1_452_2561">
<rect width="199.191" height="13.5253" fill="white" transform="translate(282.801 414.367)"/>
</clipPath>
<clipPath id="clip2_452_2561">
<rect width="199.191" height="157.078" fill="white" transform="translate(282.801 437.73)"/>
</clipPath>
<clipPath id="clip3_452_2561">
<rect width="41.4981" height="13.2179" fill="white" transform="translate(292.023 607.719)"/>
</clipPath>
<clipPath id="clip4_452_2561">
<rect width="531.176" height="687.025" fill="white" transform="translate(565.91)"/>
</clipPath>
<clipPath id="clip5_452_2561">
<rect width="531.176" height="260.362" fill="white" transform="translate(565.91 34.1211)"/>
</clipPath>
<clipPath id="clip6_452_2561">
<rect width="199.191" height="13.5253" fill="white" transform="translate(621.242 347.203)"/>
</clipPath>
<clipPath id="clip7_452_2561">
<rect width="199.191" height="120.498" fill="white" transform="translate(621.242 370.566)"/>
</clipPath>
<clipPath id="clip8_452_2561">
<rect width="412.83" height="13.5253" fill="white" transform="translate(621.242 543.781)"/>
</clipPath>
<clipPath id="clip9_452_2561">
<rect width="412.83" height="67.6266" fill="white" transform="translate(621.242 567.145)"/>
</clipPath>
<clipPath id="clip10_452_2561">
<rect width="531.176" height="233.004" fill="white" transform="translate(1131.82)"/>
</clipPath>
<clipPath id="clip11_452_2561">
<rect width="173.37" height="11.772" fill="white" transform="translate(1177.93 38.1172)"/>
</clipPath>
<clipPath id="clip12_452_2561">
<rect width="173.37" height="136.716" fill="white" transform="translate(1177.93 58.4492)"/>
</clipPath>
<clipPath id="clip13_452_2561">
<rect width="531.176" height="232.697" fill="white" transform="translate(1131.82 233.004)"/>
</clipPath>
<clipPath id="clip14_452_2561">
<rect width="166.607" height="11.3128" fill="white" transform="translate(1446.91 261.594)"/>
</clipPath>
<clipPath id="clip15_452_2561">
<rect width="166.607" height="131.383" fill="white" transform="translate(1446.91 281.133)"/>
</clipPath>
<clipPath id="clip16_452_2561">
<rect width="34.7099" height="11.0557" fill="white" transform="translate(1454.62 423.316)"/>
</clipPath>
<clipPath id="clip17_452_2561">
<rect width="44.5721" height="8.91442" fill="white" transform="translate(1333.17 490.293)"/>
</clipPath>
<clipPath id="clip18_452_2561">
<rect width="19.3658" height="7.37745" fill="white" transform="translate(1333.17 512.117)"/>
</clipPath>
<clipPath id="clip19_452_2561">
<rect width="30.432" height="7.37745" fill="white" transform="translate(1333.17 525.641)"/>
</clipPath>
<clipPath id="clip20_452_2561">
<rect width="35.6577" height="7.37745" fill="white" transform="translate(1333.17 539.168)"/>
</clipPath>
<clipPath id="clip21_452_2561">
<rect width="25.2063" height="7.37745" fill="white" transform="translate(1333.17 552.691)"/>
</clipPath>
<clipPath id="clip22_452_2561">
<rect width="160.767" height="8.91442" fill="white" transform="translate(1446.9 490.293)"/>
</clipPath>
<clipPath id="clip23_452_2561">
<rect width="160.46" height="14.7549" fill="white" transform="translate(1447.21 511.812)"/>
</clipPath>
<clipPath id="clip24_452_2561">
<rect width="76.8484" height="7.37745" fill="white" transform="translate(1454.28 549.316)"/>
</clipPath>
<clipPath id="clip25_452_2561">
<rect width="31.6616" height="7.37745" fill="white" transform="translate(1561.25 583.742)"/>
</clipPath>
<clipPath id="clip26_452_2561">
<rect width="152.16" height="7.37745" fill="white" transform="translate(1321.48 671.348)"/>
</clipPath>
</defs>
</svg>
