<svg width="1675" height="804" viewBox="0 0 1675 804" fill="none" xmlns="http://www.w3.org/2000/svg">
<g clip-path="url(#clip0_457_2192)" filter="url(#filter0_d_457_2192)">
<rect width="525.533" height="673.71" transform="translate(12 8)" fill="#272727"/>
<rect width="525.533" height="673.71" transform="translate(12 8)" fill="#B3B3B3"/>
<g clip-path="url(#clip1_457_2192)">
<circle cx="876.5" cy="1124.5" r="921" stroke="#F8E8B1" stroke-opacity="0.5"/>
<line x1="314.5" y1="8" x2="314.5" y2="1197" stroke="#F8E8B1" stroke-opacity="0.4"/>
<line x1="5" y1="203" x2="1194" y2="203" stroke="#F8E8B1" stroke-opacity="0.4"/>
<circle cx="284.5" cy="232.5" r="22" stroke="#F8E8B1" stroke-opacity="0.4"/>
<rect x="312.999" y="8.108" width="231.554" height="365.26" fill="#8E8E8E"/>
<rect x="312.999" y="8.108" width="231.554" height="365.26" stroke="white" stroke-width="0.216002"/>
<g opacity="0.6">
<path opacity="0.4" d="M458.823 205.14L449.471 183.268C447.768 179.264 445.228 176.993 442.329 176.844C439.461 176.694 436.682 178.696 434.56 182.521L428.883 192.71C427.688 194.862 425.985 196.146 424.132 196.296C422.25 196.475 420.367 195.489 418.843 193.547L418.186 192.71C416.065 190.051 413.435 188.766 410.746 189.035C408.057 189.304 405.756 191.156 404.232 194.174L399.063 204.483C397.21 208.218 397.389 212.551 399.571 216.077C401.752 219.602 405.547 221.724 409.7 221.724H447.827C451.831 221.724 455.566 219.722 457.777 216.375C460.048 213.029 460.407 208.816 458.823 205.14Z" fill="#272727"/>
<path d="M413.853 179.922C419.431 179.922 423.953 175.4 423.953 169.822C423.953 164.244 419.431 159.723 413.853 159.723C408.276 159.723 403.754 164.244 403.754 169.822C403.754 175.4 408.276 179.922 413.853 179.922Z" fill="#272727"/>
</g>
<g opacity="0.2" clip-path="url(#clip2_457_2192)">
<rect x="70.3906" y="294.652" width="205.85" height="9.73209" rx="4.86605" fill="white" fill-opacity="0.6"/>
</g>
<g opacity="0.2" clip-path="url(#clip3_457_2192)">
<rect x="66.7422" y="136" width="76.2487" height="38.9284" rx="19.4642" fill="white"/>
</g>
<g opacity="0.2" clip-path="url(#clip4_457_2192)">
<rect x="66.7422" y="181.371" width="219.458" height="19.4642" rx="9.73209" fill="#F8E8B1"/>
</g>
<g opacity="0.2" clip-path="url(#clip5_457_2192)">
<rect x="66.7422" y="215.148" width="228.704" height="9.73209" rx="4.86605" fill="white"/>
<rect x="66.7422" y="229.176" width="132.019" height="9.73209" rx="4.86605" fill="white"/>
</g>
</g>
<g clip-path="url(#clip6_457_2192)">
<rect width="525.533" height="318.726" transform="translate(12 362.918)" fill="#7D7D7D"/>
<g opacity="0.01">
<rect width="525.533" height="339.711" transform="translate(12 358.355)" fill="#272727"/>
<rect width="525.533" height="339.711" transform="translate(12 358.355)" fill="#B3B3B3"/>
</g>
<g clip-path="url(#clip7_457_2192)">
<rect x="48.6328" y="415.324" width="251.666" height="251.666" fill="#B3B3B3"/>
</g>
<rect x="69.7227" y="427.789" width="157.058" height="171.04" stroke="white" stroke-width="5.35955"/>
<g clip-path="url(#clip8_457_2192)">
<rect x="140.676" y="511.328" width="136.05" height="204.649" fill="#B3B3B3"/>
</g>
<rect x="152.328" y="521.582" width="89.7143" height="96.472" stroke="white" stroke-width="2.79629"/>
<g opacity="0.2" clip-path="url(#clip9_457_2192)">
<rect x="291.797" y="419.793" width="155.953" height="10.9486" rx="5.4743" fill="white"/>
</g>
<g opacity="0.2" clip-path="url(#clip10_457_2192)">
<rect x="291.797" y="441.695" width="197.075" height="6.08256" rx="3.04128" fill="#E8E8E8"/>
<rect x="291.797" y="455.281" width="197.075" height="6.08256" rx="3.04128" fill="#E8E8E8"/>
<rect x="291.797" y="468.867" width="197.075" height="6.08256" rx="3.04128" fill="#E8E8E8"/>
<rect x="291.797" y="482.453" width="197.075" height="6.08256" rx="3.04128" fill="#E8E8E8"/>
<rect x="291.797" y="496.035" width="81.1088" height="6.08256" rx="3.04128" fill="#E8E8E8"/>
<rect x="291.797" y="509.621" width="197.075" height="6.08256" rx="3.04128" fill="#E8E8E8"/>
<rect x="291.797" y="523.207" width="197.075" height="6.08256" rx="3.04128" fill="#E8E8E8"/>
<rect x="291.797" y="536.793" width="197.075" height="6.08256" rx="3.04128" fill="#E8E8E8"/>
<rect x="291.797" y="550.379" width="197.075" height="6.08256" rx="3.04128" fill="#E8E8E8"/>
<rect x="291.797" y="563.965" width="38.1244" height="6.08256" rx="3.04128" fill="#E8E8E8"/>
<rect x="291.797" y="577.551" width="197.075" height="6.08256" rx="3.04128" fill="#E8E8E8"/>
<rect x="291.797" y="591.133" width="17.1992" height="6.08256" rx="3.04128" fill="#E8E8E8"/>
</g>
<rect width="59.2881" height="19.0427" transform="translate(291.797 606.949)" fill="#DBDBDB"/>
<g opacity="0.2" clip-path="url(#clip11_457_2192)">
<rect x="300.922" y="613.43" width="41.0404" height="6.08256" rx="3.04128" fill="#14332D"/>
</g>
</g>
<rect width="525.533" height="33.9036" transform="translate(12 8)" fill="#272727"/>
<rect x="66.7422" y="12.0742" width="32.2156" height="25.5467" fill="#B3B3B3"/>
<mask id="path-34-inside-1_457_2192" fill="white">
<path d="M220.012 19.6562H241.845V30.0416H220.012V19.6562Z"/>
</mask>
<path d="M241.845 30.0416V29.4333H220.012V30.0416V30.6499H241.845V30.0416Z" fill="#F8E8B1" mask="url(#path-34-inside-1_457_2192)"/>
<g opacity="0.2" clip-path="url(#clip12_457_2192)">
<rect x="221.531" y="20.2852" width="18.7922" height="6.08256" rx="3.04128" fill="#F8E8B1"/>
</g>
<g opacity="0.2" clip-path="url(#clip13_457_2192)">
<rect x="260.699" y="21.8047" width="33.2643" height="6.08256" rx="3.04128" fill="white"/>
</g>
<g opacity="0.2" clip-path="url(#clip14_457_2192)">
<rect x="312.82" y="21.8047" width="40.3924" height="6.08256" rx="3.04128" fill="white"/>
</g>
<g opacity="0.2" clip-path="url(#clip15_457_2192)">
<rect x="372.07" y="21.8047" width="27.2163" height="6.08256" rx="3.04128" fill="white"/>
</g>
<g opacity="0.2" clip-path="url(#clip16_457_2192)">
<rect x="418.141" y="21.8047" width="28.7283" height="6.08256" rx="3.04128" fill="white"/>
</g>
<g opacity="0.2" clip-path="url(#clip17_457_2192)">
<rect x="465.727" y="21.8047" width="17.0642" height="6.08256" rx="3.04128" fill="white"/>
</g>
</g>
<g clip-path="url(#clip18_457_2192)">
<rect width="525.533" height="679.759" transform="translate(580.734 8)" fill="#272727"/>
<rect width="525.533" height="679.759" transform="translate(580.734 8)" fill="#B3B3B3"/>
<g clip-path="url(#clip19_457_2192)">
<rect width="525.533" height="257.596" transform="translate(580.734 41.6953)" fill="#272727"/>
<rect width="525.533" height="257.596" transform="translate(580.734 41.6953)" fill="#7D7D7D"/>
<path d="M742.288 205.434V160.527H750.628V198.377H774.108V205.434H742.288ZM807.335 206.075C803.828 206.075 800.599 205.498 797.648 204.343C794.697 203.188 792.13 201.584 789.949 199.532C787.768 197.436 786.079 194.998 784.881 192.218C783.684 189.396 783.085 186.316 783.085 182.98C783.085 179.644 783.684 176.586 784.881 173.807C786.079 170.984 787.768 168.546 789.949 166.493C792.13 164.397 794.697 162.772 797.648 161.618C800.599 160.463 803.806 159.885 807.27 159.885C810.777 159.885 813.985 160.463 816.893 161.618C819.844 162.772 822.41 164.397 824.592 166.493C826.773 168.546 828.462 170.984 829.66 173.807C830.857 176.586 831.456 179.644 831.456 182.98C831.456 186.316 830.857 189.396 829.66 192.218C828.462 195.041 826.773 197.479 824.592 199.532C822.41 201.584 819.844 203.188 816.893 204.343C813.985 205.498 810.799 206.075 807.335 206.075ZM807.27 198.762C809.537 198.762 811.633 198.377 813.557 197.607C815.482 196.837 817.15 195.747 818.561 194.335C819.973 192.881 821.063 191.213 821.833 189.331C822.646 187.407 823.052 185.29 823.052 182.98C823.052 180.671 822.646 178.575 821.833 176.693C821.063 174.769 819.973 173.101 818.561 171.689C817.15 170.235 815.482 169.123 813.557 168.354C811.633 167.584 809.537 167.199 807.27 167.199C805.004 167.199 802.908 167.584 800.983 168.354C799.102 169.123 797.434 170.235 795.98 171.689C794.568 173.101 793.456 174.769 792.644 176.693C791.874 178.575 791.489 180.671 791.489 182.98C791.489 185.247 791.874 187.343 792.644 189.267C793.456 191.192 794.568 192.881 795.98 194.335C797.391 195.747 799.059 196.837 800.983 197.607C802.908 198.377 805.004 198.762 807.27 198.762ZM867.689 206.075C864.182 206.075 860.953 205.519 858.002 204.407C855.094 203.252 852.549 201.649 850.368 199.596C848.187 197.5 846.497 195.041 845.3 192.218C844.102 189.396 843.503 186.316 843.503 182.98C843.503 179.644 844.102 176.565 845.3 173.742C846.497 170.92 848.187 168.482 850.368 166.429C852.592 164.333 855.179 162.73 858.13 161.618C861.081 160.463 864.31 159.885 867.817 159.885C871.624 159.885 875.045 160.506 878.082 161.746C881.161 162.986 883.748 164.804 885.844 167.199L880.583 172.331C878.83 170.578 876.927 169.294 874.874 168.482C872.864 167.626 870.64 167.199 868.202 167.199C865.85 167.199 863.669 167.584 861.659 168.354C859.648 169.123 857.916 170.214 856.462 171.625C855.008 173.037 853.875 174.705 853.062 176.629C852.292 178.554 851.907 180.671 851.907 182.98C851.907 185.247 852.292 187.343 853.062 189.267C853.875 191.192 855.008 192.881 856.462 194.335C857.916 195.747 859.627 196.837 861.594 197.607C863.562 198.377 865.743 198.762 868.138 198.762C870.362 198.762 872.5 198.42 874.553 197.735C876.649 197.008 878.638 195.811 880.519 194.143L885.267 200.366C882.914 202.247 880.177 203.68 877.055 204.664C873.976 205.605 870.854 206.075 867.689 206.075ZM877.376 199.275V182.467H885.267V200.366L877.376 199.275ZM923.723 206.075C920.216 206.075 916.987 205.498 914.036 204.343C911.085 203.188 908.519 201.584 906.338 199.532C904.157 197.436 902.468 194.998 901.27 192.218C900.073 189.396 899.474 186.316 899.474 182.98C899.474 179.644 900.073 176.586 901.27 173.807C902.468 170.984 904.157 168.546 906.338 166.493C908.519 164.397 911.085 162.772 914.036 161.618C916.987 160.463 920.195 159.885 923.659 159.885C927.166 159.885 930.374 160.463 933.282 161.618C936.233 162.772 938.799 164.397 940.98 166.493C943.162 168.546 944.851 170.984 946.048 173.807C947.246 176.586 947.845 179.644 947.845 182.98C947.845 186.316 947.246 189.396 946.048 192.218C944.851 195.041 943.162 197.479 940.98 199.532C938.799 201.584 936.233 203.188 933.282 204.343C930.374 205.498 927.188 206.075 923.723 206.075ZM923.659 198.762C925.926 198.762 928.022 198.377 929.946 197.607C931.871 196.837 933.539 195.747 934.95 194.335C936.361 192.881 937.452 191.213 938.222 189.331C939.034 187.407 939.441 185.29 939.441 182.98C939.441 180.671 939.034 178.575 938.222 176.693C937.452 174.769 936.361 173.101 934.95 171.689C933.539 170.235 931.871 169.123 929.946 168.354C928.022 167.584 925.926 167.199 923.659 167.199C921.393 167.199 919.297 167.584 917.372 168.354C915.491 169.123 913.823 170.235 912.368 171.689C910.957 173.101 909.845 174.769 909.033 176.693C908.263 178.575 907.878 180.671 907.878 182.98C907.878 185.247 908.263 187.343 909.033 189.267C909.845 191.192 910.957 192.881 912.368 194.335C913.78 195.747 915.448 196.837 917.372 197.607C919.297 198.377 921.393 198.762 923.659 198.762Z" fill="#262626"/>
<g opacity="0.2" clip-path="url(#clip20_457_2192)">
<rect x="982.188" y="211.75" width="69.3367" height="10.9486" rx="5.4743" fill="white"/>
</g>
<g opacity="0.2" clip-path="url(#clip21_457_2192)">
<rect x="735.84" y="234.301" width="315.685" height="7.29907" rx="3.64953" fill="#E8E8E8"/>
<rect x="749.875" y="256.16" width="301.649" height="7.29907" rx="3.64953" fill="#E8E8E8"/>
</g>
<g clip-path="url(#clip22_457_2192)">
<rect width="525.533" height="71.1659" transform="translate(580.734 41.6953)" fill="white"/>
<rect x="580.734" y="-89.9922" width="531.611" height="462.887" fill="#B3B3B3"/>
</g>
<g clip-path="url(#clip23_457_2192)">
<rect x="635.477" y="68.7656" width="92.4549" height="92.4549" rx="46.2274" fill="white"/>
<rect x="634.105" y="67.4844" width="108.23" height="162.802" fill="#B3B3B3"/>
</g>
<rect x="636.997" y="70.2863" width="89.4136" height="89.4136" rx="44.7068" stroke="white" stroke-width="3.04128"/>
</g>
<rect width="525.533" height="388.371" transform="translate(580.734 299.293)" fill="white"/>
<g opacity="0.2" clip-path="url(#clip24_457_2192)">
<rect x="635.477" y="367.562" width="155.521" height="10.9486" rx="5.4743" fill="black"/>
</g>
<g opacity="0.2" clip-path="url(#clip25_457_2192)">
<rect x="635.477" y="389.465" width="182.477" height="6.08256" rx="3.04128" fill="#777777"/>
<rect x="635.477" y="403.355" width="182.477" height="6.08256" rx="3.04128" fill="#777777"/>
<rect x="635.477" y="417.246" width="182.477" height="6.08256" rx="3.04128" fill="#777777"/>
<rect x="635.477" y="431.137" width="182.477" height="6.08256" rx="3.04128" fill="#777777"/>
<rect x="635.477" y="445.027" width="182.477" height="6.08256" rx="3.04128" fill="#777777"/>
<rect x="635.477" y="458.918" width="182.477" height="6.08256" rx="3.04128" fill="#777777"/>
<rect x="635.477" y="472.809" width="50.1665" height="6.08256" rx="3.04128" fill="#777777"/>
</g>
<g clip-path="url(#clip26_457_2192)">
<rect width="185.822" height="185.822" transform="translate(865.703 329.703)" fill="white"/>
<rect x="862.66" y="306.59" width="195.106" height="293.483" fill="#B3B3B3"/>
</g>
<g opacity="0.2" clip-path="url(#clip27_457_2192)">
<rect x="635.477" y="548.309" width="274.755" height="9.73209" rx="4.86605" fill="black"/>
</g>
<circle cx="638.366" cy="576.62" r="2.88922" fill="#297A53"/>
<g opacity="0.2" clip-path="url(#clip28_457_2192)">
<rect x="646.121" y="573.578" width="77.7607" height="6.08256" rx="3.04128" fill="#297A53"/>
</g>
<g opacity="0.2" clip-path="url(#clip29_457_2192)">
<rect x="743.137" y="573.578" width="244.73" height="6.08256" rx="3.04128" fill="#777777"/>
</g>
<circle cx="638.366" cy="596.878" r="2.88922" fill="#297A53"/>
<g opacity="0.2" clip-path="url(#clip30_457_2192)">
<rect x="646.121" y="593.836" width="71.9287" height="6.08256" rx="3.04128" fill="#297A53"/>
</g>
<g opacity="0.2" clip-path="url(#clip31_457_2192)">
<rect x="743.137" y="593.836" width="254.882" height="6.08256" rx="3.04128" fill="#777777"/>
</g>
<circle cx="638.366" cy="617.139" r="2.88922" fill="#297A53"/>
<g opacity="0.2" clip-path="url(#clip32_457_2192)">
<rect x="646.121" y="614.098" width="89.2089" height="6.08256" rx="3.04128" fill="#297A53"/>
</g>
<g opacity="0.2" clip-path="url(#clip33_457_2192)">
<rect x="743.137" y="614.098" width="221.186" height="6.08256" rx="3.04128" fill="#777777"/>
</g>
<circle cx="638.366" cy="637.397" r="2.88922" fill="#297A53"/>
<g opacity="0.2" clip-path="url(#clip34_457_2192)">
<rect x="646.121" y="634.355" width="74.7367" height="6.08256" rx="3.04128" fill="#297A53"/>
</g>
<g opacity="0.2" clip-path="url(#clip35_457_2192)">
<rect x="743.137" y="630.918" width="308.386" height="6.08256" rx="3.04128" fill="#777777"/>
<rect x="743.137" y="650.754" width="26.2015" height="6.08256" rx="3.04128" fill="#777777"/>
</g>
<rect width="525.533" height="33.9036" transform="translate(580.734 8)" fill="#272727"/>
<rect x="635.477" y="12.0742" width="32.2156" height="25.5467" fill="#B3B3B3"/>
<g opacity="0.2" clip-path="url(#clip36_457_2192)">
<rect x="788.746" y="21.8047" width="18.7922" height="6.08256" rx="3.04128" fill="white"/>
</g>
<mask id="path-75-inside-2_457_2192" fill="white">
<path d="M826.395 19.6562H862.7V30.0416H826.395V19.6562Z"/>
</mask>
<path d="M862.7 30.0416V29.4333H826.395V30.0416V30.6499H862.7V30.0416Z" fill="#F8E8B1" mask="url(#path-75-inside-2_457_2192)"/>
<g opacity="0.2" clip-path="url(#clip37_457_2192)">
<rect x="827.914" y="20.2852" width="33.2643" height="6.08256" rx="3.04128" fill="#F8E8B1"/>
</g>
<g opacity="0.2" clip-path="url(#clip38_457_2192)">
<rect x="881.555" y="21.8047" width="40.3924" height="6.08256" rx="3.04128" fill="white"/>
</g>
<g opacity="0.2" clip-path="url(#clip39_457_2192)">
<rect x="940.805" y="21.8047" width="27.2163" height="6.08256" rx="3.04128" fill="white"/>
</g>
<g opacity="0.2" clip-path="url(#clip40_457_2192)">
<rect x="986.875" y="21.8047" width="28.7283" height="6.08256" rx="3.04128" fill="white"/>
</g>
<g opacity="0.2" clip-path="url(#clip41_457_2192)">
<rect x="1034.46" y="21.8047" width="17.0642" height="6.08256" rx="3.04128" fill="white"/>
</g>
</g>
<g clip-path="url(#clip42_457_2192)">
<rect width="525.533" height="795.752" transform="translate(1149.47 8)" fill="#272727"/>
<rect width="525.533" height="795.752" transform="translate(1149.47 8)" fill="#B3B3B3"/>
<rect width="525.533" height="222.926" transform="translate(1149.47 580.871)" fill="white"/>
<rect x="1204.21" y="734.039" width="9.72009" height="9.72009" fill="#8C8C8C"/>
<rect x="1226.1" y="734.039" width="9.72009" height="9.72009" fill="#8C8C8C"/>
<rect x="1247.98" y="734.039" width="9.72009" height="9.72009" fill="#8C8C8C"/>
<rect x="1269.87" y="734.039" width="9.72009" height="9.72009" fill="#8C8C8C"/>
<rect x="1291.75" y="734.039" width="9.72009" height="9.72009" fill="#8C8C8C"/>
<rect x="1201.17" y="605.199" width="79.0732" height="66.2999" fill="#B3B3B3"/>
<g opacity="0.2" clip-path="url(#clip43_457_2192)">
<rect x="1348.8" y="605.977" width="43.8484" height="7.29907" rx="3.64953" fill="black"/>
</g>
<g opacity="0.2" clip-path="url(#clip44_457_2192)">
<rect x="1348.8" y="627.461" width="19.0082" height="6.08256" rx="3.04128" fill="#1B1B1B"/>
</g>
<g opacity="0.2" clip-path="url(#clip45_457_2192)">
<rect x="1348.8" y="640.887" width="30.0243" height="6.08256" rx="3.04128" fill="#1B1B1B"/>
</g>
<g opacity="0.2" clip-path="url(#clip46_457_2192)">
<rect x="1348.8" y="654.312" width="35.4243" height="6.08256" rx="3.04128" fill="#1B1B1B"/>
</g>
<g opacity="0.2" clip-path="url(#clip47_457_2192)">
<rect x="1348.8" y="667.738" width="25.0562" height="6.08256" rx="3.04128" fill="#1B1B1B"/>
</g>
<g opacity="0.2" clip-path="url(#clip48_457_2192)">
<rect x="1461.2" y="605.977" width="41.0404" height="7.29907" rx="3.64953" fill="black"/>
</g>
<g opacity="0.2" clip-path="url(#clip49_457_2192)">
<rect x="1461.51" y="626.527" width="158.755" height="6.08256" rx="3.04128" fill="black"/>
<rect x="1461.51" y="634.699" width="69.7754" height="6.08256" rx="3.04128" fill="black"/>
</g>
<rect x="1461.36" y="656.14" width="158.755" height="21.4221" stroke="#E2E2E2" stroke-width="0.304128"/>
<g opacity="0.2" clip-path="url(#clip50_457_2192)">
<rect x="1468.5" y="663.812" width="75.8167" height="6.08256" rx="3.04128" fill="black"/>
</g>
<rect x="1562.32" y="690.031" width="57.7843" height="21.4221" stroke="#1B1B1B" stroke-width="0.304128"/>
<g opacity="0.2" clip-path="url(#clip51_457_2192)">
<rect x="1574.34" y="697.703" width="31.1043" height="6.08256" rx="3.04128" fill="#297A53"/>
</g>
<g opacity="0.2" clip-path="url(#clip52_457_2192)">
<rect x="1337" y="784.844" width="150.553" height="6.08256" rx="3.04128" fill="#297A53"/>
</g>
<rect x="1149.58" y="41.8658" width="261.147" height="270.219" fill="#B2B2B2"/>
<rect x="1149.58" y="41.8658" width="261.147" height="270.219" stroke="#1E1E1E" stroke-width="0.216002"/>
<g opacity="0.2" clip-path="url(#clip53_457_2192)">
<rect x="1219.23" y="122.645" width="96.4449" height="6.76806" rx="3.38403" fill="black"/>
</g>
<g opacity="0.2" clip-path="url(#clip54_457_2192)">
<rect x="1219.23" y="136.184" width="121.825" height="3.76004" rx="1.88002" fill="#2F2F2F"/>
<rect x="1219.23" y="144.574" width="121.825" height="3.76004" rx="1.88002" fill="#2F2F2F"/>
<rect x="1219.23" y="152.969" width="121.825" height="3.76004" rx="1.88002" fill="#2F2F2F"/>
<rect x="1219.23" y="161.359" width="121.825" height="3.76004" rx="1.88002" fill="#2F2F2F"/>
<rect x="1219.23" y="169.75" width="50.1965" height="3.76004" rx="1.88002" fill="#2F2F2F"/>
<rect x="1219.23" y="178.141" width="121.825" height="3.76004" rx="1.88002" fill="#2F2F2F"/>
<rect x="1219.23" y="186.535" width="121.825" height="3.76004" rx="1.88002" fill="#2F2F2F"/>
<rect x="1219.23" y="194.926" width="121.825" height="3.76004" rx="1.88002" fill="#2F2F2F"/>
<rect x="1219.23" y="203.316" width="121.825" height="3.76004" rx="1.88002" fill="#2F2F2F"/>
<rect x="1219.23" y="211.711" width="23.6882" height="3.76004" rx="1.88002" fill="#2F2F2F"/>
<rect x="1219.23" y="220.102" width="121.825" height="3.76004" rx="1.88002" fill="#2F2F2F"/>
<rect x="1219.23" y="228.492" width="10.7161" height="3.76004" rx="1.88002" fill="#2F2F2F"/>
</g>
<rect x="1411.05" y="41.9738" width="263.739" height="270.003" fill="#8E8E8E"/>
<rect x="1411.05" y="41.9738" width="263.739" height="270.003" stroke="white" stroke-width="0.432004"/>
<g opacity="0.6">
<path opacity="0.4" d="M1572.97 191.488L1563.62 169.616C1561.91 165.612 1559.37 163.341 1556.47 163.191C1553.61 163.042 1550.83 165.044 1548.7 168.869L1543.03 179.058C1541.83 181.209 1540.13 182.494 1538.28 182.643C1536.39 182.823 1534.51 181.837 1532.99 179.894L1532.33 179.058C1530.21 176.398 1527.58 175.114 1524.89 175.383C1522.2 175.651 1519.9 177.504 1518.38 180.522L1513.21 190.831C1511.35 194.566 1511.53 198.898 1513.72 202.424C1515.9 205.95 1519.69 208.072 1523.84 208.072H1561.97C1565.98 208.072 1569.71 206.07 1571.92 202.723C1574.19 199.376 1574.55 195.163 1572.97 191.488Z" fill="#272727"/>
<path d="M1528 166.269C1533.58 166.269 1538.1 161.748 1538.1 156.17C1538.1 150.592 1533.58 146.07 1528 146.07C1522.42 146.07 1517.9 150.592 1517.9 156.17C1517.9 161.748 1522.42 166.269 1528 166.269Z" fill="#272727"/>
</g>
<rect x="1149.68" y="312.407" width="263.739" height="270.003" fill="#8E8E8E"/>
<rect x="1149.68" y="312.407" width="263.739" height="270.003" stroke="white" stroke-width="0.432004"/>
<g opacity="0.6">
<path opacity="0.4" d="M1311.6 461.922L1302.25 440.049C1300.55 436.045 1298.01 433.774 1295.11 433.625C1292.24 433.476 1289.46 435.478 1287.34 439.302L1281.66 449.491C1280.47 451.643 1278.77 452.928 1276.91 453.077C1275.03 453.256 1273.15 452.27 1271.62 450.328L1270.97 449.491C1268.85 446.832 1266.22 445.547 1263.53 445.816C1260.84 446.085 1258.54 447.938 1257.01 450.956L1251.84 461.264C1249.99 464.999 1250.17 469.332 1252.35 472.858C1254.53 476.384 1258.33 478.505 1262.48 478.505H1300.61C1304.61 478.505 1308.35 476.503 1310.56 473.157C1312.83 469.81 1313.19 465.597 1311.6 461.922Z" fill="#272727"/>
<path d="M1266.63 436.703C1272.21 436.703 1276.73 432.181 1276.73 426.603C1276.73 421.026 1272.21 416.504 1266.63 416.504C1261.06 416.504 1256.54 421.026 1256.54 426.603C1256.54 432.181 1261.06 436.703 1266.63 436.703Z" fill="#272727"/>
</g>
<rect width="261.363" height="270.37" transform="translate(1413.64 312.191)" fill="white"/>
<rect width="261.363" height="270.37" transform="translate(1413.64 312.191)" fill="#B3B3B3"/>
<g opacity="0.2" clip-path="url(#clip55_457_2192)">
<rect x="1461.08" y="382.914" width="160.58" height="10.9486" rx="5.4743" fill="black"/>
<rect x="1461.08" y="398.75" width="104.023" height="10.9486" rx="5.4743" fill="black"/>
</g>
<g opacity="0.2" clip-path="url(#clip56_457_2192)">
<rect x="1461.08" y="419.43" width="160.58" height="6.08256" rx="3.04128" fill="#777777"/>
<rect x="1461.08" y="433.895" width="160.58" height="6.08256" rx="3.04128" fill="#777777"/>
<rect x="1461.08" y="448.355" width="160.58" height="6.08256" rx="3.04128" fill="#777777"/>
<rect x="1461.08" y="462.82" width="160.58" height="6.08256" rx="3.04128" fill="#777777"/>
<rect x="1461.08" y="477.285" width="109.801" height="6.08256" rx="3.04128" fill="#777777"/>
</g>
<rect width="64.6881" height="19.0427" transform="translate(1461.08 493.098)" fill="#DBDBDB"/>
<g opacity="0.2" clip-path="url(#clip57_457_2192)">
<rect x="1470.21" y="499.578" width="46.4404" height="6.08256" rx="3.04128" fill="#14332D"/>
</g>
<rect width="525.533" height="33.9036" transform="translate(1149.47 8)" fill="#272727"/>
<rect x="1204.21" y="12.0742" width="32.2156" height="25.5467" fill="#B3B3B3"/>
<g opacity="0.2" clip-path="url(#clip58_457_2192)">
<rect x="1357.48" y="21.8047" width="18.7922" height="6.08256" rx="3.04128" fill="white"/>
</g>
<mask id="path-131-inside-3_457_2192" fill="white">
<path d="M1395.13 19.6562H1431.43V30.0416H1395.13V19.6562Z"/>
</mask>
<path d="M1431.43 30.0416V29.4333H1395.13V30.0416V30.6499H1431.43V30.0416Z" fill="#F8E8B1" mask="url(#path-131-inside-3_457_2192)"/>
<g opacity="0.2" clip-path="url(#clip59_457_2192)">
<rect x="1396.65" y="20.2852" width="33.2643" height="6.08256" rx="3.04128" fill="#F8E8B1"/>
</g>
<g opacity="0.2" clip-path="url(#clip60_457_2192)">
<rect x="1450.29" y="21.8047" width="40.3924" height="6.08256" rx="3.04128" fill="white"/>
</g>
<g opacity="0.2" clip-path="url(#clip61_457_2192)">
<rect x="1509.54" y="21.8047" width="27.2163" height="6.08256" rx="3.04128" fill="white"/>
</g>
<g opacity="0.2" clip-path="url(#clip62_457_2192)">
<rect x="1555.61" y="21.8047" width="28.7283" height="6.08256" rx="3.04128" fill="white"/>
</g>
<g opacity="0.2" clip-path="url(#clip63_457_2192)">
<rect x="1603.2" y="21.8047" width="17.0642" height="6.08256" rx="3.04128" fill="white"/>
</g>
</g>
<defs>
<filter id="filter0_d_457_2192" x="0.919094" y="0.375127" width="562.381" height="710.561" filterUnits="userSpaceOnUse" color-interpolation-filters="sRGB">
<feFlood flood-opacity="0" result="BackgroundImageFix"/>
<feColorMatrix in="SourceAlpha" type="matrix" values="0 0 0 0 0 0 0 0 0 0 0 0 0 0 0 0 0 0 127 0" result="hardAlpha"/>
<feMorphology radius="4.32004" operator="dilate" in="SourceAlpha" result="effect1_dropShadow_457_2192"/>
<feOffset dx="7.34407" dy="10.8001"/>
<feGaussianBlur stdDeviation="7.05247"/>
<feComposite in2="hardAlpha" operator="out"/>
<feColorMatrix type="matrix" values="0 0 0 0 0.299171 0 0 0 0 0.335833 0 0 0 0 0.312035 0 0 0 0.27 0"/>
<feBlend mode="normal" in2="BackgroundImageFix" result="effect1_dropShadow_457_2192"/>
<feBlend mode="normal" in="SourceGraphic" in2="effect1_dropShadow_457_2192" result="shape"/>
</filter>
<clipPath id="clip0_457_2192">
<rect width="525.533" height="673.71" fill="white" transform="translate(12 8)"/>
</clipPath>
<clipPath id="clip1_457_2192">
<rect width="525.533" height="354.309" fill="white" transform="translate(12 8)"/>
</clipPath>
<clipPath id="clip2_457_2192">
<rect width="206.282" height="11.8801" fill="white" transform="translate(70.3906 293.578)"/>
</clipPath>
<clipPath id="clip3_457_2192">
<rect width="219.458" height="47.5205" fill="white" transform="translate(66.7422 131.703)"/>
</clipPath>
<clipPath id="clip4_457_2192">
<rect width="219.458" height="23.7602" fill="white" transform="translate(66.7422 179.223)"/>
</clipPath>
<clipPath id="clip5_457_2192">
<rect width="228.704" height="23.7602" fill="white" transform="translate(66.7422 215.148)"/>
</clipPath>
<clipPath id="clip6_457_2192">
<rect width="525.533" height="318.726" fill="white" transform="translate(12 362.918)"/>
</clipPath>
<clipPath id="clip7_457_2192">
<rect x="67.043" y="425.109" width="162.418" height="176.399" fill="white"/>
</clipPath>
<clipPath id="clip8_457_2192">
<rect x="150.93" y="520.184" width="92.5106" height="99.2683" fill="white"/>
</clipPath>
<clipPath id="clip9_457_2192">
<rect width="197.075" height="13.3921" fill="white" transform="translate(291.797 418.57)"/>
</clipPath>
<clipPath id="clip10_457_2192">
<rect width="197.075" height="155.521" fill="white" transform="translate(291.797 441.695)"/>
</clipPath>
<clipPath id="clip11_457_2192">
<rect width="41.0404" height="12.9601" fill="white" transform="translate(300.922 609.992)"/>
</clipPath>
<clipPath id="clip12_457_2192">
<rect width="18.7922" height="7.34407" fill="white" transform="translate(221.531 19.6562)"/>
</clipPath>
<clipPath id="clip13_457_2192">
<rect width="33.2643" height="7.34407" fill="white" transform="translate(260.699 21.1758)"/>
</clipPath>
<clipPath id="clip14_457_2192">
<rect width="40.3924" height="7.34407" fill="white" transform="translate(312.82 21.1758)"/>
</clipPath>
<clipPath id="clip15_457_2192">
<rect width="27.2163" height="7.34407" fill="white" transform="translate(372.07 21.1758)"/>
</clipPath>
<clipPath id="clip16_457_2192">
<rect width="28.7283" height="7.34407" fill="white" transform="translate(418.141 21.1758)"/>
</clipPath>
<clipPath id="clip17_457_2192">
<rect width="17.0642" height="7.34407" fill="white" transform="translate(465.727 21.1758)"/>
</clipPath>
<clipPath id="clip18_457_2192">
<rect width="525.533" height="679.759" fill="white" transform="translate(580.734 8)"/>
</clipPath>
<clipPath id="clip19_457_2192">
<rect width="525.533" height="257.596" fill="white" transform="translate(580.734 41.6953)"/>
</clipPath>
<clipPath id="clip20_457_2192">
<rect width="315.685" height="14.6881" fill="white" transform="translate(735.84 209.879)"/>
</clipPath>
<clipPath id="clip21_457_2192">
<rect width="315.685" height="29.1603" fill="white" transform="translate(735.84 234.301)"/>
</clipPath>
<clipPath id="clip22_457_2192">
<rect width="525.533" height="71.1659" fill="white" transform="translate(580.734 41.6953)"/>
</clipPath>
<clipPath id="clip23_457_2192">
<rect x="635.477" y="68.7656" width="92.4549" height="92.4549" rx="46.2274" fill="white"/>
</clipPath>
<clipPath id="clip24_457_2192">
<rect width="182.477" height="13.3921" fill="white" transform="translate(635.477 366.34)"/>
</clipPath>
<clipPath id="clip25_457_2192">
<rect width="182.477" height="89.4249" fill="white" transform="translate(635.477 389.465)"/>
</clipPath>
<clipPath id="clip26_457_2192">
<rect width="185.822" height="185.822" fill="white" transform="translate(865.703 329.703)"/>
</clipPath>
<clipPath id="clip27_457_2192">
<rect width="416.047" height="14.4721" fill="white" transform="translate(635.477 545.938)"/>
</clipPath>
<clipPath id="clip28_457_2192">
<rect width="89.7177" height="12.9601" fill="white" transform="translate(646.121 570.141)"/>
</clipPath>
<clipPath id="clip29_457_2192">
<rect width="308.386" height="12.9601" fill="white" transform="translate(743.137 570.141)"/>
</clipPath>
<clipPath id="clip30_457_2192">
<rect width="89.7177" height="12.9601" fill="white" transform="translate(646.121 590.398)"/>
</clipPath>
<clipPath id="clip31_457_2192">
<rect width="308.386" height="12.9601" fill="white" transform="translate(743.137 590.398)"/>
</clipPath>
<clipPath id="clip32_457_2192">
<rect width="89.7177" height="12.9601" fill="white" transform="translate(646.121 610.66)"/>
</clipPath>
<clipPath id="clip33_457_2192">
<rect width="308.386" height="12.9601" fill="white" transform="translate(743.137 610.66)"/>
</clipPath>
<clipPath id="clip34_457_2192">
<rect width="89.7177" height="12.9601" fill="white" transform="translate(646.121 630.918)"/>
</clipPath>
<clipPath id="clip35_457_2192">
<rect width="308.386" height="25.9202" fill="white" transform="translate(743.137 630.918)"/>
</clipPath>
<clipPath id="clip36_457_2192">
<rect width="18.7922" height="7.34407" fill="white" transform="translate(788.746 21.1758)"/>
</clipPath>
<clipPath id="clip37_457_2192">
<rect width="33.2643" height="7.34407" fill="white" transform="translate(827.914 19.6562)"/>
</clipPath>
<clipPath id="clip38_457_2192">
<rect width="40.3924" height="7.34407" fill="white" transform="translate(881.555 21.1758)"/>
</clipPath>
<clipPath id="clip39_457_2192">
<rect width="27.2163" height="7.34407" fill="white" transform="translate(940.805 21.1758)"/>
</clipPath>
<clipPath id="clip40_457_2192">
<rect width="28.7283" height="7.34407" fill="white" transform="translate(986.875 21.1758)"/>
</clipPath>
<clipPath id="clip41_457_2192">
<rect width="17.0642" height="7.34407" fill="white" transform="translate(1034.46 21.1758)"/>
</clipPath>
<clipPath id="clip42_457_2192">
<rect width="525.533" height="795.752" fill="white" transform="translate(1149.47 8)"/>
</clipPath>
<clipPath id="clip43_457_2192">
<rect width="43.8484" height="8.85608" fill="white" transform="translate(1348.8 605.199)"/>
</clipPath>
<clipPath id="clip44_457_2192">
<rect width="19.0082" height="7.34407" fill="white" transform="translate(1348.8 626.832)"/>
</clipPath>
<clipPath id="clip45_457_2192">
<rect width="30.0243" height="7.34407" fill="white" transform="translate(1348.8 640.258)"/>
</clipPath>
<clipPath id="clip46_457_2192">
<rect width="35.4243" height="7.34407" fill="white" transform="translate(1348.8 653.684)"/>
</clipPath>
<clipPath id="clip47_457_2192">
<rect width="25.0562" height="7.34407" fill="white" transform="translate(1348.8 667.109)"/>
</clipPath>
<clipPath id="clip48_457_2192">
<rect width="159.059" height="8.85608" fill="white" transform="translate(1461.2 605.199)"/>
</clipPath>
<clipPath id="clip49_457_2192">
<rect width="158.755" height="14.2561" fill="white" transform="translate(1461.51 626.527)"/>
</clipPath>
<clipPath id="clip50_457_2192">
<rect width="75.8167" height="7.12807" fill="white" transform="translate(1468.5 663.289)"/>
</clipPath>
<clipPath id="clip51_457_2192">
<rect width="31.1043" height="7.12807" fill="white" transform="translate(1574.34 697.18)"/>
</clipPath>
<clipPath id="clip52_457_2192">
<rect width="150.553" height="7.12807" fill="white" transform="translate(1337 784.32)"/>
</clipPath>
<clipPath id="clip53_457_2192">
<rect width="121.825" height="8.27208" fill="white" transform="translate(1219.23 121.895)"/>
</clipPath>
<clipPath id="clip54_457_2192">
<rect width="121.825" height="96.0689" fill="white" transform="translate(1219.23 136.184)"/>
</clipPath>
<clipPath id="clip55_457_2192">
<rect width="160.58" height="26.7843" fill="white" transform="translate(1461.08 382.914)"/>
</clipPath>
<clipPath id="clip56_457_2192">
<rect width="160.58" height="63.9366" fill="white" transform="translate(1461.08 419.43)"/>
</clipPath>
<clipPath id="clip57_457_2192">
<rect width="46.4404" height="12.9601" fill="white" transform="translate(1470.21 496.141)"/>
</clipPath>
<clipPath id="clip58_457_2192">
<rect width="18.7922" height="7.34407" fill="white" transform="translate(1357.48 21.1758)"/>
</clipPath>
<clipPath id="clip59_457_2192">
<rect width="33.2643" height="7.34407" fill="white" transform="translate(1396.65 19.6562)"/>
</clipPath>
<clipPath id="clip60_457_2192">
<rect width="40.3924" height="7.34407" fill="white" transform="translate(1450.29 21.1758)"/>
</clipPath>
<clipPath id="clip61_457_2192">
<rect width="27.2163" height="7.34407" fill="white" transform="translate(1509.54 21.1758)"/>
</clipPath>
<clipPath id="clip62_457_2192">
<rect width="28.7283" height="7.34407" fill="white" transform="translate(1555.61 21.1758)"/>
</clipPath>
<clipPath id="clip63_457_2192">
<rect width="17.0642" height="7.34407" fill="white" transform="translate(1603.2 21.1758)"/>
</clipPath>
</defs>
</svg>
