<svg width="564" height="2244" viewBox="0 0 564 2244" fill="none" xmlns="http://www.w3.org/2000/svg">
<g clip-path="url(#clip0_457_2193)" filter="url(#filter0_d_457_2193)">
<rect width="525.533" height="673.71" transform="translate(12 8)" fill="#272727"/>
<rect width="525.533" height="673.71" transform="translate(12 8)" fill="#B3B3B3"/>
<g clip-path="url(#clip1_457_2193)">
<circle cx="876.5" cy="1124.5" r="921" stroke="#F8E8B1" stroke-opacity="0.5"/>
<line x1="314.5" y1="8" x2="314.5" y2="1197" stroke="#F8E8B1" stroke-opacity="0.4"/>
<line x1="5" y1="203" x2="1194" y2="203" stroke="#F8E8B1" stroke-opacity="0.4"/>
<circle cx="284.5" cy="232.5" r="22" stroke="#F8E8B1" stroke-opacity="0.4"/>
<rect x="312.999" y="8.108" width="231.554" height="365.26" fill="#8E8E8E"/>
<rect x="312.999" y="8.108" width="231.554" height="365.26" stroke="white" stroke-width="0.216002"/>
<g opacity="0.2">
<path opacity="0.4" d="M458.823 205.14L449.471 183.268C447.768 179.264 445.228 176.993 442.329 176.844C439.461 176.694 436.682 178.696 434.56 182.521L428.883 192.71C427.688 194.862 425.985 196.146 424.132 196.296C422.25 196.475 420.367 195.489 418.843 193.547L418.186 192.71C416.065 190.051 413.435 188.766 410.746 189.035C408.057 189.304 405.756 191.156 404.232 194.174L399.063 204.483C397.21 208.218 397.389 212.551 399.571 216.077C401.752 219.602 405.547 221.724 409.7 221.724H447.827C451.831 221.724 455.566 219.722 457.777 216.375C460.048 213.029 460.407 208.816 458.823 205.14Z" fill="#7C7C7C"/>
<path d="M413.853 179.922C419.431 179.922 423.953 175.4 423.953 169.822C423.953 164.244 419.431 159.723 413.853 159.723C408.276 159.723 403.754 164.244 403.754 169.822C403.754 175.4 408.276 179.922 413.853 179.922Z" fill="#7C7C7C"/>
</g>
<g opacity="0.2" clip-path="url(#clip2_457_2193)">
<rect x="70.3906" y="294.652" width="205.85" height="9.73209" rx="4.86605" fill="white" fill-opacity="0.6"/>
</g>
<g opacity="0.2" clip-path="url(#clip3_457_2193)">
<rect x="66.7422" y="136" width="76.2487" height="38.9284" rx="19.4642" fill="white"/>
</g>
<g opacity="0.2" clip-path="url(#clip4_457_2193)">
<rect x="66.7422" y="181.371" width="219.458" height="19.4642" rx="9.73209" fill="#F8E8B1"/>
</g>
<g opacity="0.2" clip-path="url(#clip5_457_2193)">
<rect x="66.7422" y="215.148" width="228.704" height="9.73209" rx="4.86605" fill="white"/>
<rect x="66.7422" y="229.176" width="132.019" height="9.73209" rx="4.86605" fill="white"/>
</g>
</g>
<g clip-path="url(#clip6_457_2193)">
<rect width="525.533" height="318.726" transform="translate(12 362.918)" fill="#7E7E7E"/>
<g opacity="0.01">
<rect width="525.533" height="339.711" transform="translate(12 358.355)" fill="#272727"/>
<rect width="525.533" height="339.711" transform="translate(12 358.355)" fill="#B3B3B3"/>
</g>
<g clip-path="url(#clip7_457_2193)">
<rect x="48.6328" y="415.324" width="251.666" height="251.666" fill="#B3B3B3"/>
</g>
<rect x="69.7227" y="427.789" width="157.058" height="171.04" stroke="white" stroke-width="5.35955"/>
<g clip-path="url(#clip8_457_2193)">
<rect x="140.676" y="511.328" width="136.05" height="204.649" fill="#B3B3B3"/>
</g>
<rect x="152.328" y="521.582" width="89.7143" height="96.472" stroke="white" stroke-width="2.79629"/>
<g opacity="0.2" clip-path="url(#clip9_457_2193)">
<rect x="291.797" y="419.793" width="155.953" height="10.9486" rx="5.4743" fill="white"/>
</g>
<g opacity="0.2" clip-path="url(#clip10_457_2193)">
<rect x="291.797" y="441.695" width="197.075" height="6.08256" rx="3.04128" fill="#E8E8E8"/>
<rect x="291.797" y="455.281" width="197.075" height="6.08256" rx="3.04128" fill="#E8E8E8"/>
<rect x="291.797" y="468.867" width="197.075" height="6.08256" rx="3.04128" fill="#E8E8E8"/>
<rect x="291.797" y="482.453" width="197.075" height="6.08256" rx="3.04128" fill="#E8E8E8"/>
<rect x="291.797" y="496.035" width="81.1088" height="6.08256" rx="3.04128" fill="#E8E8E8"/>
<rect x="291.797" y="509.621" width="197.075" height="6.08256" rx="3.04128" fill="#E8E8E8"/>
<rect x="291.797" y="523.207" width="197.075" height="6.08256" rx="3.04128" fill="#E8E8E8"/>
<rect x="291.797" y="536.793" width="197.075" height="6.08256" rx="3.04128" fill="#E8E8E8"/>
<rect x="291.797" y="550.379" width="197.075" height="6.08256" rx="3.04128" fill="#E8E8E8"/>
<rect x="291.797" y="563.965" width="38.1244" height="6.08256" rx="3.04128" fill="#E8E8E8"/>
<rect x="291.797" y="577.551" width="197.075" height="6.08256" rx="3.04128" fill="#E8E8E8"/>
<rect x="291.797" y="591.133" width="17.1992" height="6.08256" rx="3.04128" fill="#E8E8E8"/>
</g>
<rect width="59.2881" height="19.0427" transform="translate(291.797 606.949)" fill="#DBDBDB"/>
<g opacity="0.2" clip-path="url(#clip11_457_2193)">
<rect x="300.922" y="613.43" width="41.0404" height="6.08256" rx="3.04128" fill="#14332D"/>
</g>
</g>
<rect width="525.533" height="33.9036" transform="translate(12 8)" fill="#272727"/>
<rect x="66.7422" y="12.0742" width="32.2156" height="25.5467" fill="#B3B3B3"/>
<mask id="path-34-inside-1_457_2193" fill="white">
<path d="M220.012 19.6562H241.845V30.0416H220.012V19.6562Z"/>
</mask>
<path d="M241.845 30.0416V29.4333H220.012V30.0416V30.6499H241.845V30.0416Z" fill="#F8E8B1" mask="url(#path-34-inside-1_457_2193)"/>
<g opacity="0.2" clip-path="url(#clip12_457_2193)">
<rect x="221.531" y="20.2852" width="18.7922" height="6.08256" rx="3.04128" fill="#F8E8B1"/>
</g>
<g opacity="0.2" clip-path="url(#clip13_457_2193)">
<rect x="260.699" y="21.8047" width="33.2643" height="6.08256" rx="3.04128" fill="white"/>
</g>
<g opacity="0.2" clip-path="url(#clip14_457_2193)">
<rect x="312.82" y="21.8047" width="40.3924" height="6.08256" rx="3.04128" fill="white"/>
</g>
<g opacity="0.2" clip-path="url(#clip15_457_2193)">
<rect x="372.07" y="21.8047" width="27.2163" height="6.08256" rx="3.04128" fill="white"/>
</g>
<g opacity="0.2" clip-path="url(#clip16_457_2193)">
<rect x="418.141" y="21.8047" width="28.7283" height="6.08256" rx="3.04128" fill="white"/>
</g>
<g opacity="0.2" clip-path="url(#clip17_457_2193)">
<rect x="465.727" y="21.8047" width="17.0642" height="6.08256" rx="3.04128" fill="white"/>
</g>
</g>
<g clip-path="url(#clip18_457_2193)">
<rect width="525.533" height="679.759" transform="translate(12 724.91)" fill="#272727"/>
<rect width="525.533" height="679.759" transform="translate(12 724.91)" fill="#B3B3B3"/>
<g clip-path="url(#clip19_457_2193)">
<rect width="525.533" height="257.596" transform="translate(12 758.605)" fill="#272727"/>
<rect width="525.533" height="257.596" transform="translate(12 758.605)" fill="#7D7D7D"/>
<path d="M173.554 922.344V877.437H181.894V915.287H205.373V922.344H173.554ZM238.6 922.985C235.093 922.985 231.864 922.408 228.913 921.253C225.962 920.098 223.396 918.495 221.215 916.442C219.034 914.346 217.344 911.908 216.147 909.128C214.949 906.306 214.351 903.226 214.351 899.89C214.351 896.555 214.949 893.497 216.147 890.717C217.344 887.894 219.034 885.456 221.215 883.403C223.396 881.308 225.962 879.682 228.913 878.528C231.864 877.373 235.072 876.796 238.536 876.796C242.043 876.796 245.251 877.373 248.159 878.528C251.11 879.682 253.676 881.308 255.857 883.403C258.038 885.456 259.728 887.894 260.925 890.717C262.123 893.497 262.721 896.555 262.721 899.89C262.721 903.226 262.123 906.306 260.925 909.128C259.728 911.951 258.038 914.389 255.857 916.442C253.676 918.495 251.11 920.098 248.159 921.253C245.251 922.408 242.064 922.985 238.6 922.985ZM238.536 915.672C240.803 915.672 242.898 915.287 244.823 914.517C246.748 913.747 248.415 912.657 249.827 911.245C251.238 909.791 252.329 908.123 253.099 906.242C253.911 904.317 254.318 902.2 254.318 899.89C254.318 897.581 253.911 895.485 253.099 893.604C252.329 891.679 251.238 890.011 249.827 888.6C248.415 887.146 246.748 886.034 244.823 885.264C242.898 884.494 240.803 884.109 238.536 884.109C236.269 884.109 234.174 884.494 232.249 885.264C230.367 886.034 228.699 887.146 227.245 888.6C225.834 890.011 224.722 891.679 223.909 893.604C223.139 895.485 222.755 897.581 222.755 899.89C222.755 902.157 223.139 904.253 223.909 906.177C224.722 908.102 225.834 909.791 227.245 911.245C228.657 912.657 230.325 913.747 232.249 914.517C234.174 915.287 236.269 915.672 238.536 915.672ZM298.954 922.985C295.447 922.985 292.218 922.429 289.267 921.317C286.359 920.163 283.815 918.559 281.633 916.506C279.452 914.41 277.763 911.951 276.565 909.128C275.368 906.306 274.769 903.226 274.769 899.89C274.769 896.555 275.368 893.475 276.565 890.653C277.763 887.83 279.452 885.392 281.633 883.339C283.857 881.244 286.445 879.64 289.396 878.528C292.347 877.373 295.576 876.796 299.083 876.796C302.889 876.796 306.311 877.416 309.347 878.656C312.426 879.896 315.014 881.714 317.11 884.109L311.849 889.241C310.096 887.488 308.192 886.205 306.14 885.392C304.129 884.537 301.905 884.109 299.468 884.109C297.115 884.109 294.934 884.494 292.924 885.264C290.914 886.034 289.182 887.124 287.728 888.535C286.274 889.947 285.14 891.615 284.328 893.539C283.558 895.464 283.173 897.581 283.173 899.89C283.173 902.157 283.558 904.253 284.328 906.177C285.14 908.102 286.274 909.791 287.728 911.245C289.182 912.657 290.893 913.747 292.86 914.517C294.827 915.287 297.009 915.672 299.404 915.672C301.627 915.672 303.766 915.33 305.819 914.645C307.914 913.918 309.903 912.721 311.785 911.053L316.532 917.276C314.18 919.158 311.443 920.59 308.321 921.574C305.241 922.515 302.119 922.985 298.954 922.985ZM308.641 916.185V899.377H316.532V917.276L308.641 916.185ZM354.989 922.985C351.482 922.985 348.253 922.408 345.302 921.253C342.351 920.098 339.785 918.495 337.604 916.442C335.423 914.346 333.733 911.908 332.536 909.128C331.338 906.306 330.739 903.226 330.739 899.89C330.739 896.555 331.338 893.497 332.536 890.717C333.733 887.894 335.423 885.456 337.604 883.403C339.785 881.308 342.351 879.682 345.302 878.528C348.253 877.373 351.461 876.796 354.925 876.796C358.432 876.796 361.639 877.373 364.548 878.528C367.499 879.682 370.065 881.308 372.246 883.403C374.427 885.456 376.117 887.894 377.314 890.717C378.512 893.497 379.11 896.555 379.11 899.89C379.11 903.226 378.512 906.306 377.314 909.128C376.117 911.951 374.427 914.389 372.246 916.442C370.065 918.495 367.499 920.098 364.548 921.253C361.639 922.408 358.453 922.985 354.989 922.985ZM354.925 915.672C357.192 915.672 359.287 915.287 361.212 914.517C363.136 913.747 364.804 912.657 366.216 911.245C367.627 909.791 368.718 908.123 369.487 906.242C370.3 904.317 370.706 902.2 370.706 899.89C370.706 897.581 370.3 895.485 369.487 893.604C368.718 891.679 367.627 890.011 366.216 888.6C364.804 887.146 363.136 886.034 361.212 885.264C359.287 884.494 357.192 884.109 354.925 884.109C352.658 884.109 350.563 884.494 348.638 885.264C346.756 886.034 345.088 887.146 343.634 888.6C342.223 890.011 341.111 891.679 340.298 893.604C339.528 895.485 339.143 897.581 339.143 899.89C339.143 902.157 339.528 904.253 340.298 906.177C341.111 908.102 342.223 909.791 343.634 911.245C345.045 912.657 346.713 913.747 348.638 914.517C350.563 915.287 352.658 915.672 354.925 915.672Z" fill="#262626"/>
<g opacity="0.2" clip-path="url(#clip20_457_2193)">
<rect x="413.453" y="928.66" width="69.3367" height="10.9486" rx="5.4743" fill="white"/>
</g>
<g opacity="0.2" clip-path="url(#clip21_457_2193)">
<rect x="167.105" y="951.211" width="315.685" height="7.29907" rx="3.64953" fill="#E8E8E8"/>
<rect x="181.141" y="973.07" width="301.649" height="7.29907" rx="3.64953" fill="#E8E8E8"/>
</g>
<g clip-path="url(#clip22_457_2193)">
<rect width="525.533" height="71.1659" transform="translate(12 758.605)" fill="white"/>
<rect x="12" y="626.918" width="531.611" height="462.887" fill="#B3B3B3"/>
</g>
<g clip-path="url(#clip23_457_2193)">
<rect x="66.7422" y="785.676" width="92.4549" height="92.4549" rx="46.2274" fill="white"/>
<rect x="65.3711" y="784.395" width="108.23" height="162.802" fill="#B3B3B3"/>
</g>
<rect x="68.2628" y="787.196" width="89.4136" height="89.4136" rx="44.7068" stroke="white" stroke-width="3.04128"/>
</g>
<rect width="525.533" height="388.371" transform="translate(12 1016.2)" fill="white"/>
<g opacity="0.2" clip-path="url(#clip24_457_2193)">
<rect x="66.7422" y="1084.47" width="155.521" height="10.9486" rx="5.4743" fill="black"/>
</g>
<g opacity="0.2" clip-path="url(#clip25_457_2193)">
<rect x="66.7422" y="1106.38" width="182.477" height="6.08256" rx="3.04128" fill="#777777"/>
<rect x="66.7422" y="1120.27" width="182.477" height="6.08256" rx="3.04128" fill="#777777"/>
<rect x="66.7422" y="1134.16" width="182.477" height="6.08256" rx="3.04128" fill="#777777"/>
<rect x="66.7422" y="1148.05" width="182.477" height="6.08256" rx="3.04128" fill="#777777"/>
<rect x="66.7422" y="1161.94" width="182.477" height="6.08256" rx="3.04128" fill="#777777"/>
<rect x="66.7422" y="1175.83" width="182.477" height="6.08256" rx="3.04128" fill="#777777"/>
<rect x="66.7422" y="1189.72" width="50.1665" height="6.08256" rx="3.04128" fill="#777777"/>
</g>
<g clip-path="url(#clip26_457_2193)">
<rect width="185.822" height="185.822" transform="translate(296.969 1046.61)" fill="white"/>
<rect x="293.926" y="1023.5" width="195.106" height="293.483" fill="#B3B3B3"/>
</g>
<g opacity="0.2" clip-path="url(#clip27_457_2193)">
<rect x="66.7422" y="1265.22" width="274.755" height="9.73209" rx="4.86605" fill="black"/>
</g>
<circle cx="69.6314" cy="1293.53" r="2.88922" fill="#297A53"/>
<g opacity="0.2" clip-path="url(#clip28_457_2193)">
<rect x="77.3867" y="1290.49" width="77.7607" height="6.08256" rx="3.04128" fill="#297A53"/>
</g>
<g opacity="0.2" clip-path="url(#clip29_457_2193)">
<rect x="174.402" y="1290.49" width="244.73" height="6.08256" rx="3.04128" fill="#777777"/>
</g>
<circle cx="69.6314" cy="1313.79" r="2.88922" fill="#297A53"/>
<g opacity="0.2" clip-path="url(#clip30_457_2193)">
<rect x="77.3867" y="1310.75" width="71.9287" height="6.08256" rx="3.04128" fill="#297A53"/>
</g>
<g opacity="0.2" clip-path="url(#clip31_457_2193)">
<rect x="174.402" y="1310.75" width="254.882" height="6.08256" rx="3.04128" fill="#777777"/>
</g>
<circle cx="69.6314" cy="1334.05" r="2.88922" fill="#297A53"/>
<g opacity="0.2" clip-path="url(#clip32_457_2193)">
<rect x="77.3867" y="1331.01" width="89.2089" height="6.08256" rx="3.04128" fill="#297A53"/>
</g>
<g opacity="0.2" clip-path="url(#clip33_457_2193)">
<rect x="174.402" y="1331.01" width="221.186" height="6.08256" rx="3.04128" fill="#777777"/>
</g>
<circle cx="69.6314" cy="1354.31" r="2.88922" fill="#297A53"/>
<g opacity="0.2" clip-path="url(#clip34_457_2193)">
<rect x="77.3867" y="1351.27" width="74.7367" height="6.08256" rx="3.04128" fill="#297A53"/>
</g>
<g opacity="0.2" clip-path="url(#clip35_457_2193)">
<rect x="174.402" y="1347.83" width="308.386" height="6.08256" rx="3.04128" fill="#777777"/>
<rect x="174.402" y="1367.66" width="26.2015" height="6.08256" rx="3.04128" fill="#777777"/>
</g>
<rect width="525.533" height="33.9036" transform="translate(12 724.91)" fill="#272727"/>
<rect x="66.7422" y="728.984" width="32.2156" height="25.5467" fill="#B3B3B3"/>
<g opacity="0.2" clip-path="url(#clip36_457_2193)">
<rect x="220.012" y="738.715" width="18.7922" height="6.08256" rx="3.04128" fill="white"/>
</g>
<mask id="path-75-inside-2_457_2193" fill="white">
<path d="M257.66 736.566H293.966V746.952H257.66V736.566Z"/>
</mask>
<path d="M293.966 746.952V746.343H257.66V746.952V747.56H293.966V746.952Z" fill="#F8E8B1" mask="url(#path-75-inside-2_457_2193)"/>
<g opacity="0.2" clip-path="url(#clip37_457_2193)">
<rect x="259.18" y="737.195" width="33.2643" height="6.08256" rx="3.04128" fill="#F8E8B1"/>
</g>
<g opacity="0.2" clip-path="url(#clip38_457_2193)">
<rect x="312.82" y="738.715" width="40.3924" height="6.08256" rx="3.04128" fill="white"/>
</g>
<g opacity="0.2" clip-path="url(#clip39_457_2193)">
<rect x="372.07" y="738.715" width="27.2163" height="6.08256" rx="3.04128" fill="white"/>
</g>
<g opacity="0.2" clip-path="url(#clip40_457_2193)">
<rect x="418.141" y="738.715" width="28.7283" height="6.08256" rx="3.04128" fill="white"/>
</g>
<g opacity="0.2" clip-path="url(#clip41_457_2193)">
<rect x="465.727" y="738.715" width="17.0642" height="6.08256" rx="3.04128" fill="white"/>
</g>
</g>
<g clip-path="url(#clip42_457_2193)">
<rect width="525.533" height="795.752" transform="translate(12 1447.87)" fill="#272727"/>
<rect width="525.533" height="795.752" transform="translate(12 1447.87)" fill="#B3B3B3"/>
<rect width="525.533" height="222.926" transform="translate(12 2020.74)" fill="white"/>
<rect x="66.7422" y="2173.91" width="9.72009" height="9.72009" fill="#8C8C8C"/>
<rect x="88.6289" y="2173.91" width="9.72009" height="9.72009" fill="#8C8C8C"/>
<rect x="110.512" y="2173.91" width="9.72009" height="9.72009" fill="#8C8C8C"/>
<rect x="132.398" y="2173.91" width="9.72009" height="9.72009" fill="#8C8C8C"/>
<rect x="154.281" y="2173.91" width="9.72009" height="9.72009" fill="#8C8C8C"/>
<rect x="63.7031" y="2045.07" width="79.0732" height="66.2999" fill="#B3B3B3"/>
<g opacity="0.2" clip-path="url(#clip43_457_2193)">
<rect x="211.332" y="2045.85" width="43.8484" height="7.29907" rx="3.64953" fill="black"/>
</g>
<g opacity="0.2" clip-path="url(#clip44_457_2193)">
<rect x="211.332" y="2067.33" width="19.0082" height="6.08256" rx="3.04128" fill="#1B1B1B"/>
</g>
<g opacity="0.2" clip-path="url(#clip45_457_2193)">
<rect x="211.332" y="2080.76" width="30.0243" height="6.08256" rx="3.04128" fill="#1B1B1B"/>
</g>
<g opacity="0.2" clip-path="url(#clip46_457_2193)">
<rect x="211.332" y="2094.18" width="35.4243" height="6.08256" rx="3.04128" fill="#1B1B1B"/>
</g>
<g opacity="0.2" clip-path="url(#clip47_457_2193)">
<rect x="211.332" y="2107.61" width="25.0562" height="6.08256" rx="3.04128" fill="#1B1B1B"/>
</g>
<g opacity="0.2" clip-path="url(#clip48_457_2193)">
<rect x="323.734" y="2045.85" width="41.0404" height="7.29907" rx="3.64953" fill="black"/>
</g>
<g opacity="0.2" clip-path="url(#clip49_457_2193)">
<rect x="324.039" y="2066.4" width="158.755" height="6.08256" rx="3.04128" fill="black"/>
<rect x="324.039" y="2074.57" width="69.7754" height="6.08256" rx="3.04128" fill="black"/>
</g>
<rect x="323.886" y="2096.01" width="158.755" height="21.4221" stroke="#E2E2E2" stroke-width="0.304128"/>
<g opacity="0.2" clip-path="url(#clip50_457_2193)">
<rect x="331.035" y="2103.68" width="75.8167" height="6.08256" rx="3.04128" fill="black"/>
</g>
<rect x="424.855" y="2129.9" width="57.7843" height="21.4221" stroke="#1B1B1B" stroke-width="0.304128"/>
<g opacity="0.2" clip-path="url(#clip51_457_2193)">
<rect x="436.867" y="2137.57" width="31.1043" height="6.08256" rx="3.04128" fill="#297A53"/>
</g>
<g opacity="0.2" clip-path="url(#clip52_457_2193)">
<rect x="199.535" y="2224.71" width="150.553" height="6.08256" rx="3.04128" fill="#297A53"/>
</g>
<rect x="12.108" y="1481.74" width="261.147" height="270.219" fill="#B2B2B2"/>
<rect x="12.108" y="1481.74" width="261.147" height="270.219" stroke="#1E1E1E" stroke-width="0.216002"/>
<g opacity="0.2" clip-path="url(#clip53_457_2193)">
<rect x="81.7656" y="1562.52" width="96.4449" height="6.76806" rx="3.38403" fill="black"/>
</g>
<g opacity="0.2" clip-path="url(#clip54_457_2193)">
<rect x="81.7656" y="1576.05" width="121.825" height="3.76004" rx="1.88002" fill="#2F2F2F"/>
<rect x="81.7656" y="1584.45" width="121.825" height="3.76004" rx="1.88002" fill="#2F2F2F"/>
<rect x="81.7656" y="1592.84" width="121.825" height="3.76004" rx="1.88002" fill="#2F2F2F"/>
<rect x="81.7656" y="1601.23" width="121.825" height="3.76004" rx="1.88002" fill="#2F2F2F"/>
<rect x="81.7656" y="1609.62" width="50.1965" height="3.76004" rx="1.88002" fill="#2F2F2F"/>
<rect x="81.7656" y="1618.01" width="121.825" height="3.76004" rx="1.88002" fill="#2F2F2F"/>
<rect x="81.7656" y="1626.41" width="121.825" height="3.76004" rx="1.88002" fill="#2F2F2F"/>
<rect x="81.7656" y="1634.8" width="121.825" height="3.76004" rx="1.88002" fill="#2F2F2F"/>
<rect x="81.7656" y="1643.19" width="121.825" height="3.76004" rx="1.88002" fill="#2F2F2F"/>
<rect x="81.7656" y="1651.58" width="23.6882" height="3.76004" rx="1.88002" fill="#2F2F2F"/>
<rect x="81.7656" y="1659.97" width="121.825" height="3.76004" rx="1.88002" fill="#2F2F2F"/>
<rect x="81.7656" y="1668.36" width="10.7161" height="3.76004" rx="1.88002" fill="#2F2F2F"/>
</g>
<rect x="273.579" y="1481.84" width="263.739" height="270.003" fill="#8E8E8E"/>
<rect x="273.579" y="1481.84" width="263.739" height="270.003" stroke="white" stroke-width="0.432004"/>
<g opacity="0.6">
<path opacity="0.4" d="M435.499 1631.36L426.146 1609.49C424.443 1605.48 421.903 1603.21 419.005 1603.06C416.137 1602.91 413.358 1604.92 411.236 1608.74L405.559 1618.93C404.364 1621.08 402.661 1622.37 400.808 1622.51C398.926 1622.69 397.043 1621.71 395.519 1619.77L394.862 1618.93C392.74 1616.27 390.111 1614.98 387.422 1615.25C384.732 1615.52 382.432 1617.38 380.908 1620.39L375.738 1630.7C373.886 1634.44 374.065 1638.77 376.246 1642.3C378.428 1645.82 382.222 1647.94 386.376 1647.94H424.503C428.507 1647.94 432.242 1645.94 434.453 1642.59C436.724 1639.25 437.083 1635.03 435.499 1631.36Z" fill="#272727"/>
<path d="M390.529 1606.14C396.107 1606.14 400.629 1601.62 400.629 1596.04C400.629 1590.46 396.107 1585.94 390.529 1585.94C384.951 1585.94 380.43 1590.46 380.43 1596.04C380.43 1601.62 384.951 1606.14 390.529 1606.14Z" fill="#272727"/>
</g>
<rect x="12.216" y="1752.28" width="263.739" height="270.003" fill="#8E8E8E"/>
<rect x="12.216" y="1752.28" width="263.739" height="270.003" stroke="white" stroke-width="0.432004"/>
<g opacity="0.6">
<path opacity="0.4" d="M174.136 1901.79L164.783 1879.92C163.08 1875.92 160.54 1873.65 157.642 1873.5C154.773 1873.35 151.994 1875.35 149.873 1879.17L144.196 1889.36C143 1891.51 141.297 1892.8 139.445 1892.95C137.562 1893.13 135.68 1892.14 134.156 1890.2L133.499 1889.36C131.377 1886.7 128.748 1885.42 126.058 1885.69C123.369 1885.96 121.068 1887.81 119.544 1890.83L114.375 1901.14C112.523 1904.87 112.702 1909.2 114.883 1912.73C117.064 1916.25 120.859 1918.38 125.013 1918.38H163.14C167.144 1918.38 170.879 1916.37 173.09 1913.03C175.361 1909.68 175.719 1905.47 174.136 1901.79Z" fill="#272727"/>
<path d="M129.166 1876.57C134.744 1876.57 139.265 1872.05 139.265 1866.47C139.265 1860.9 134.744 1856.38 129.166 1856.38C123.588 1856.38 119.066 1860.9 119.066 1866.47C119.066 1872.05 123.588 1876.57 129.166 1876.57Z" fill="#272727"/>
</g>
<rect width="261.363" height="270.37" transform="translate(276.172 1752.06)" fill="white"/>
<rect width="261.363" height="270.37" transform="translate(276.172 1752.06)" fill="#B3B3B3"/>
<g opacity="0.2" clip-path="url(#clip55_457_2193)">
<rect x="323.613" y="1822.79" width="160.58" height="10.9486" rx="5.4743" fill="black"/>
<rect x="323.613" y="1838.62" width="104.023" height="10.9486" rx="5.4743" fill="black"/>
</g>
<g opacity="0.2" clip-path="url(#clip56_457_2193)">
<rect x="323.613" y="1859.3" width="160.58" height="6.08256" rx="3.04128" fill="#777777"/>
<rect x="323.613" y="1873.77" width="160.58" height="6.08256" rx="3.04128" fill="#777777"/>
<rect x="323.613" y="1888.23" width="160.58" height="6.08256" rx="3.04128" fill="#777777"/>
<rect x="323.613" y="1902.69" width="160.58" height="6.08256" rx="3.04128" fill="#777777"/>
<rect x="323.613" y="1917.16" width="109.801" height="6.08256" rx="3.04128" fill="#777777"/>
</g>
<rect width="64.6881" height="19.0427" transform="translate(323.613 1932.97)" fill="#DBDBDB"/>
<g opacity="0.2" clip-path="url(#clip57_457_2193)">
<rect x="332.738" y="1939.45" width="46.4404" height="6.08256" rx="3.04128" fill="#14332D"/>
</g>
<rect width="525.533" height="33.9036" transform="translate(12 1447.87)" fill="#272727"/>
<rect x="66.7422" y="1451.95" width="32.2156" height="25.5467" fill="#B3B3B3"/>
<g opacity="0.2" clip-path="url(#clip58_457_2193)">
<rect x="220.012" y="1461.68" width="18.7922" height="6.08256" rx="3.04128" fill="white"/>
</g>
<mask id="path-131-inside-3_457_2193" fill="white">
<path d="M257.66 1459.53H293.966V1469.91H257.66V1459.53Z"/>
</mask>
<path d="M293.966 1469.91V1469.3H257.66V1469.91V1470.52H293.966V1469.91Z" fill="#F8E8B1" mask="url(#path-131-inside-3_457_2193)"/>
<g opacity="0.2" clip-path="url(#clip59_457_2193)">
<rect x="259.18" y="1460.16" width="33.2643" height="6.08256" rx="3.04128" fill="#F8E8B1"/>
</g>
<g opacity="0.2" clip-path="url(#clip60_457_2193)">
<rect x="312.82" y="1461.68" width="40.3924" height="6.08256" rx="3.04128" fill="white"/>
</g>
<g opacity="0.2" clip-path="url(#clip61_457_2193)">
<rect x="372.07" y="1461.68" width="27.2163" height="6.08256" rx="3.04128" fill="white"/>
</g>
<g opacity="0.2" clip-path="url(#clip62_457_2193)">
<rect x="418.141" y="1461.68" width="28.7283" height="6.08256" rx="3.04128" fill="white"/>
</g>
<g opacity="0.2" clip-path="url(#clip63_457_2193)">
<rect x="465.727" y="1461.68" width="17.0642" height="6.08256" rx="3.04128" fill="white"/>
</g>
</g>
<defs>
<filter id="filter0_d_457_2193" x="0.919094" y="0.375127" width="562.381" height="710.561" filterUnits="userSpaceOnUse" color-interpolation-filters="sRGB">
<feFlood flood-opacity="0" result="BackgroundImageFix"/>
<feColorMatrix in="SourceAlpha" type="matrix" values="0 0 0 0 0 0 0 0 0 0 0 0 0 0 0 0 0 0 127 0" result="hardAlpha"/>
<feMorphology radius="4.32004" operator="dilate" in="SourceAlpha" result="effect1_dropShadow_457_2193"/>
<feOffset dx="7.34407" dy="10.8001"/>
<feGaussianBlur stdDeviation="7.05247"/>
<feComposite in2="hardAlpha" operator="out"/>
<feColorMatrix type="matrix" values="0 0 0 0 0.299171 0 0 0 0 0.335833 0 0 0 0 0.312035 0 0 0 0.27 0"/>
<feBlend mode="normal" in2="BackgroundImageFix" result="effect1_dropShadow_457_2193"/>
<feBlend mode="normal" in="SourceGraphic" in2="effect1_dropShadow_457_2193" result="shape"/>
</filter>
<clipPath id="clip0_457_2193">
<rect width="525.533" height="673.71" fill="white" transform="translate(12 8)"/>
</clipPath>
<clipPath id="clip1_457_2193">
<rect width="525.533" height="354.309" fill="white" transform="translate(12 8)"/>
</clipPath>
<clipPath id="clip2_457_2193">
<rect width="206.282" height="11.8801" fill="white" transform="translate(70.3906 293.578)"/>
</clipPath>
<clipPath id="clip3_457_2193">
<rect width="219.458" height="47.5205" fill="white" transform="translate(66.7422 131.703)"/>
</clipPath>
<clipPath id="clip4_457_2193">
<rect width="219.458" height="23.7602" fill="white" transform="translate(66.7422 179.223)"/>
</clipPath>
<clipPath id="clip5_457_2193">
<rect width="228.704" height="23.7602" fill="white" transform="translate(66.7422 215.148)"/>
</clipPath>
<clipPath id="clip6_457_2193">
<rect width="525.533" height="318.726" fill="white" transform="translate(12 362.918)"/>
</clipPath>
<clipPath id="clip7_457_2193">
<rect x="67.043" y="425.109" width="162.418" height="176.399" fill="white"/>
</clipPath>
<clipPath id="clip8_457_2193">
<rect x="150.93" y="520.184" width="92.5106" height="99.2683" fill="white"/>
</clipPath>
<clipPath id="clip9_457_2193">
<rect width="197.075" height="13.3921" fill="white" transform="translate(291.797 418.57)"/>
</clipPath>
<clipPath id="clip10_457_2193">
<rect width="197.075" height="155.521" fill="white" transform="translate(291.797 441.695)"/>
</clipPath>
<clipPath id="clip11_457_2193">
<rect width="41.0404" height="12.9601" fill="white" transform="translate(300.922 609.992)"/>
</clipPath>
<clipPath id="clip12_457_2193">
<rect width="18.7922" height="7.34407" fill="white" transform="translate(221.531 19.6562)"/>
</clipPath>
<clipPath id="clip13_457_2193">
<rect width="33.2643" height="7.34407" fill="white" transform="translate(260.699 21.1758)"/>
</clipPath>
<clipPath id="clip14_457_2193">
<rect width="40.3924" height="7.34407" fill="white" transform="translate(312.82 21.1758)"/>
</clipPath>
<clipPath id="clip15_457_2193">
<rect width="27.2163" height="7.34407" fill="white" transform="translate(372.07 21.1758)"/>
</clipPath>
<clipPath id="clip16_457_2193">
<rect width="28.7283" height="7.34407" fill="white" transform="translate(418.141 21.1758)"/>
</clipPath>
<clipPath id="clip17_457_2193">
<rect width="17.0642" height="7.34407" fill="white" transform="translate(465.727 21.1758)"/>
</clipPath>
<clipPath id="clip18_457_2193">
<rect width="525.533" height="679.759" fill="white" transform="translate(12 724.91)"/>
</clipPath>
<clipPath id="clip19_457_2193">
<rect width="525.533" height="257.596" fill="white" transform="translate(12 758.605)"/>
</clipPath>
<clipPath id="clip20_457_2193">
<rect width="315.685" height="14.6881" fill="white" transform="translate(167.105 926.789)"/>
</clipPath>
<clipPath id="clip21_457_2193">
<rect width="315.685" height="29.1603" fill="white" transform="translate(167.105 951.211)"/>
</clipPath>
<clipPath id="clip22_457_2193">
<rect width="525.533" height="71.1659" fill="white" transform="translate(12 758.605)"/>
</clipPath>
<clipPath id="clip23_457_2193">
<rect x="66.7422" y="785.676" width="92.4549" height="92.4549" rx="46.2274" fill="white"/>
</clipPath>
<clipPath id="clip24_457_2193">
<rect width="182.477" height="13.3921" fill="white" transform="translate(66.7422 1083.25)"/>
</clipPath>
<clipPath id="clip25_457_2193">
<rect width="182.477" height="89.4249" fill="white" transform="translate(66.7422 1106.38)"/>
</clipPath>
<clipPath id="clip26_457_2193">
<rect width="185.822" height="185.822" fill="white" transform="translate(296.969 1046.61)"/>
</clipPath>
<clipPath id="clip27_457_2193">
<rect width="416.047" height="14.4721" fill="white" transform="translate(66.7422 1262.85)"/>
</clipPath>
<clipPath id="clip28_457_2193">
<rect width="89.7177" height="12.9601" fill="white" transform="translate(77.3867 1287.05)"/>
</clipPath>
<clipPath id="clip29_457_2193">
<rect width="308.386" height="12.9601" fill="white" transform="translate(174.402 1287.05)"/>
</clipPath>
<clipPath id="clip30_457_2193">
<rect width="89.7177" height="12.9601" fill="white" transform="translate(77.3867 1307.31)"/>
</clipPath>
<clipPath id="clip31_457_2193">
<rect width="308.386" height="12.9601" fill="white" transform="translate(174.402 1307.31)"/>
</clipPath>
<clipPath id="clip32_457_2193">
<rect width="89.7177" height="12.9601" fill="white" transform="translate(77.3867 1327.57)"/>
</clipPath>
<clipPath id="clip33_457_2193">
<rect width="308.386" height="12.9601" fill="white" transform="translate(174.402 1327.57)"/>
</clipPath>
<clipPath id="clip34_457_2193">
<rect width="89.7177" height="12.9601" fill="white" transform="translate(77.3867 1347.83)"/>
</clipPath>
<clipPath id="clip35_457_2193">
<rect width="308.386" height="25.9202" fill="white" transform="translate(174.402 1347.83)"/>
</clipPath>
<clipPath id="clip36_457_2193">
<rect width="18.7922" height="7.34407" fill="white" transform="translate(220.012 738.086)"/>
</clipPath>
<clipPath id="clip37_457_2193">
<rect width="33.2643" height="7.34407" fill="white" transform="translate(259.18 736.566)"/>
</clipPath>
<clipPath id="clip38_457_2193">
<rect width="40.3924" height="7.34407" fill="white" transform="translate(312.82 738.086)"/>
</clipPath>
<clipPath id="clip39_457_2193">
<rect width="27.2163" height="7.34407" fill="white" transform="translate(372.07 738.086)"/>
</clipPath>
<clipPath id="clip40_457_2193">
<rect width="28.7283" height="7.34407" fill="white" transform="translate(418.141 738.086)"/>
</clipPath>
<clipPath id="clip41_457_2193">
<rect width="17.0642" height="7.34407" fill="white" transform="translate(465.727 738.086)"/>
</clipPath>
<clipPath id="clip42_457_2193">
<rect width="525.533" height="795.752" fill="white" transform="translate(12 1447.87)"/>
</clipPath>
<clipPath id="clip43_457_2193">
<rect width="43.8484" height="8.85608" fill="white" transform="translate(211.332 2045.07)"/>
</clipPath>
<clipPath id="clip44_457_2193">
<rect width="19.0082" height="7.34407" fill="white" transform="translate(211.332 2066.7)"/>
</clipPath>
<clipPath id="clip45_457_2193">
<rect width="30.0243" height="7.34407" fill="white" transform="translate(211.332 2080.13)"/>
</clipPath>
<clipPath id="clip46_457_2193">
<rect width="35.4243" height="7.34407" fill="white" transform="translate(211.332 2093.55)"/>
</clipPath>
<clipPath id="clip47_457_2193">
<rect width="25.0562" height="7.34407" fill="white" transform="translate(211.332 2106.98)"/>
</clipPath>
<clipPath id="clip48_457_2193">
<rect width="159.059" height="8.85608" fill="white" transform="translate(323.734 2045.07)"/>
</clipPath>
<clipPath id="clip49_457_2193">
<rect width="158.755" height="14.2561" fill="white" transform="translate(324.039 2066.4)"/>
</clipPath>
<clipPath id="clip50_457_2193">
<rect width="75.8167" height="7.12807" fill="white" transform="translate(331.035 2103.16)"/>
</clipPath>
<clipPath id="clip51_457_2193">
<rect width="31.1043" height="7.12807" fill="white" transform="translate(436.867 2137.05)"/>
</clipPath>
<clipPath id="clip52_457_2193">
<rect width="150.553" height="7.12807" fill="white" transform="translate(199.535 2224.19)"/>
</clipPath>
<clipPath id="clip53_457_2193">
<rect width="121.825" height="8.27208" fill="white" transform="translate(81.7656 1561.77)"/>
</clipPath>
<clipPath id="clip54_457_2193">
<rect width="121.825" height="96.0689" fill="white" transform="translate(81.7656 1576.05)"/>
</clipPath>
<clipPath id="clip55_457_2193">
<rect width="160.58" height="26.7843" fill="white" transform="translate(323.613 1822.79)"/>
</clipPath>
<clipPath id="clip56_457_2193">
<rect width="160.58" height="63.9366" fill="white" transform="translate(323.613 1859.3)"/>
</clipPath>
<clipPath id="clip57_457_2193">
<rect width="46.4404" height="12.9601" fill="white" transform="translate(332.738 1936.01)"/>
</clipPath>
<clipPath id="clip58_457_2193">
<rect width="18.7922" height="7.34407" fill="white" transform="translate(220.012 1461.05)"/>
</clipPath>
<clipPath id="clip59_457_2193">
<rect width="33.2643" height="7.34407" fill="white" transform="translate(259.18 1459.53)"/>
</clipPath>
<clipPath id="clip60_457_2193">
<rect width="40.3924" height="7.34407" fill="white" transform="translate(312.82 1461.05)"/>
</clipPath>
<clipPath id="clip61_457_2193">
<rect width="27.2163" height="7.34407" fill="white" transform="translate(372.07 1461.05)"/>
</clipPath>
<clipPath id="clip62_457_2193">
<rect width="28.7283" height="7.34407" fill="white" transform="translate(418.141 1461.05)"/>
</clipPath>
<clipPath id="clip63_457_2193">
<rect width="17.0642" height="7.34407" fill="white" transform="translate(465.727 1461.05)"/>
</clipPath>
</defs>
</svg>
